M48
; DRILL file {KiCad (6.0.7)} date Mon Oct  3 20:15:32 2022
; FORMAT={-:-/ absolute / metric / decimal}
; #@! TF.CreationDate,2022-10-03T20:15:32+03:00
; #@! TF.GenerationSoftware,Kicad,Pcbnew,(6.0.7)
; #@! TF.FileFunction,Plated,1,2,PTH
FMAT,2
METRIC
; #@! TA.AperFunction,Plated,PTH,ComponentDrill
T1C0.300
; #@! TA.AperFunction,Plated,PTH,ViaDrill
T2C0.400
; #@! TA.AperFunction,Plated,PTH,ComponentDrill
T3C1.000
; #@! TA.AperFunction,Plated,PTH,ComponentDrill
T4C1.100
; #@! TA.AperFunction,Plated,PTH,ComponentDrill
T5C1.200
; #@! TA.AperFunction,Plated,PTH,ComponentDrill
T6C1.500
%
G90
G05
T1
X117.675Y-48.45
X117.675Y-49.5
X117.675Y-50.55
X117.675Y-62.7
X117.675Y-63.75
X117.675Y-64.8
X118.725Y-48.45
X118.725Y-49.5
X118.725Y-50.55
X118.725Y-62.7
X118.725Y-63.75
X118.725Y-64.8
X119.775Y-48.45
X119.775Y-49.5
X119.775Y-50.55
X119.775Y-62.7
X119.775Y-63.75
X119.775Y-64.8
T2
X52.0Y-73.75
X52.25Y-65.75
X52.5Y-29.0
X52.5Y-58.0
X53.0Y-78.75
X55.75Y-38.5
X55.75Y-48.0
X56.75Y-68.5
X56.75Y-83.25
X57.25Y-22.75
X57.75Y-55.5
X58.75Y-30.0
X59.0Y-60.25
X59.5Y-76.0
X60.0Y-73.25
X61.0Y-62.5
X61.25Y-43.5
X62.25Y-31.5
X62.25Y-84.25
X62.5Y-38.5
X62.5Y-55.75
X64.0Y-22.0
X64.75Y-73.5
X64.75Y-78.0
X65.25Y-44.5
X65.75Y-36.25
X65.75Y-69.75
X67.25Y-60.0
X68.5Y-74.75
X68.75Y-64.0
X68.75Y-73.5
X69.0Y-29.0
X70.75Y-80.5
X71.5Y-84.0
X71.75Y-68.0
X72.5Y-69.0
X72.875Y-27.625
X73.0Y-39.5
X73.0Y-55.75
X73.5Y-68.0
X74.25Y-69.25
X74.75Y-76.5
X75.0Y-42.0
X75.25Y-28.0
X77.0Y-64.0
X77.5Y-73.5
X77.75Y-44.5
X78.75Y-61.5
X79.25Y-22.0
X81.0Y-75.5
X81.25Y-83.75
X82.0Y-39.0
X84.0Y-29.5
X84.5Y-43.0
X85.25Y-37.5
X85.5Y-39.5
X86.0Y-78.5
X86.25Y-52.75
X86.5Y-66.0
X87.0Y-43.25
X87.75Y-35.0
X88.0Y-31.5
X89.5Y-68.25
X90.25Y-47.0
X90.5Y-44.25
X90.5Y-52.5
X90.75Y-85.0
X91.75Y-51.5
X92.5Y-38.25
X92.75Y-43.5
X93.0Y-50.25
X93.75Y-77.75
X94.25Y-33.75
X94.25Y-49.0
X94.5Y-84.0
X96.0Y-32.75
X96.75Y-61.0
X97.25Y-22.0
X98.0Y-30.75
X98.5Y-46.5
X99.5Y-40.0
X99.75Y-67.75
X100.5Y-31.75
X100.5Y-43.75
X100.75Y-33.25
X101.0Y-36.25
X101.25Y-30.25
X101.5Y-35.0
X101.5Y-51.0
X102.5Y-28.0
X103.0Y-79.75
X103.25Y-57.0
X104.0Y-43.25
X104.5Y-50.0
X104.75Y-30.75
X105.25Y-27.5
X105.75Y-48.75
X106.25Y-26.0
X107.0Y-69.0
X107.0Y-73.25
X107.25Y-31.75
X107.25Y-47.75
X107.75Y-82.0
X108.25Y-29.25
X108.25Y-40.25
X108.75Y-53.5
X110.0Y-56.5
X110.25Y-51.75
X110.988Y-54.012
X111.0Y-47.25
X111.0Y-48.5
X111.0Y-50.0
X111.5Y-22.75
X111.5Y-39.5
X112.25Y-73.0
X112.75Y-42.95
X112.75Y-45.5
X112.75Y-52.75
X112.75Y-65.75
X113.0Y-37.25
X114.0Y-51.75
X114.0Y-66.0
X114.25Y-38.75
X115.0Y-71.25
X115.25Y-39.5
X116.25Y-27.25
X116.25Y-78.75
X116.75Y-66.75
X117.0Y-52.5
X117.25Y-68.5
X117.75Y-53.25
X117.75Y-67.0
X119.5Y-57.25
X119.75Y-22.75
X121.0Y-51.25
X121.0Y-65.5
X121.25Y-42.75
X121.25Y-43.75
X121.75Y-41.75
X121.75Y-51.75
X121.75Y-66.0
X122.0Y-73.5
X122.25Y-42.75
X122.25Y-43.75
X123.5Y-47.5
X123.5Y-56.75
X123.5Y-61.75
X124.0Y-46.25
X124.0Y-53.0
X124.0Y-60.5
X124.25Y-28.0
X124.5Y-41.75
X125.75Y-84.5
X126.25Y-54.5
X126.5Y-58.25
X126.5Y-68.25
X127.5Y-34.75
X127.5Y-37.25
X127.75Y-43.0
X128.25Y-26.75
X131.5Y-65.25
X131.5Y-77.75
X131.75Y-45.75
X131.75Y-52.25
X132.0Y-37.75
X132.0Y-59.5
X132.5Y-30.5
T3
X55.88Y-33.02
X55.88Y-58.42
X58.42Y-33.02
X58.42Y-58.42
X60.96Y-33.02
X60.96Y-58.42
X62.23Y-25.375
X63.5Y-33.02
X63.5Y-58.42
X64.77Y-25.375
X66.04Y-33.02
X66.04Y-58.42
X67.31Y-25.375
X68.58Y-33.02
X68.58Y-58.42
X69.85Y-25.375
X71.12Y-33.02
X71.12Y-58.42
X72.39Y-25.375
X73.66Y-33.02
X73.66Y-58.42
X74.93Y-25.375
X76.2Y-33.02
X76.2Y-58.42
X77.47Y-25.375
X78.74Y-33.02
X78.74Y-58.42
X80.01Y-25.375
X81.28Y-33.02
X81.28Y-58.42
X82.55Y-25.375
X83.82Y-33.02
X83.82Y-58.42
X85.09Y-25.375
X86.36Y-33.02
X86.36Y-58.42
X87.63Y-25.375
X88.9Y-33.02
X88.9Y-58.42
X90.17Y-25.375
X91.44Y-33.02
X91.44Y-58.42
X92.71Y-25.375
X95.25Y-25.375
X97.79Y-25.375
X98.5Y-84.05
X100.33Y-25.375
X101.0Y-84.05
X103.5Y-84.05
X110.75Y-75.5
X110.75Y-78.0
X110.75Y-80.5
X111.725Y-25.25
X114.265Y-25.25
X118.25Y-25.225
X118.25Y-27.765
X118.25Y-30.305
X125.25Y-75.5
X125.25Y-80.5
X128.75Y-48.25
X128.75Y-50.79
X128.75Y-62.5
X128.75Y-65.04
T4
X58.75Y-79.75
X58.75Y-84.25
X65.25Y-79.75
X65.25Y-84.25
X68.5Y-79.75
X68.5Y-84.25
X75.0Y-79.75
X75.0Y-84.25
X78.25Y-79.75
X78.25Y-84.25
X84.75Y-79.75
X84.75Y-84.25
X125.75Y-23.25
X125.75Y-29.75
X130.25Y-23.25
X130.25Y-29.75
T5
X52.745Y-69.67
X57.745Y-73.27
X58.845Y-66.57
X60.845Y-65.17
X60.845Y-68.07
X60.845Y-71.27
T6
X117.6Y-72.4G85X118.9Y-72.4
G05
X117.6Y-83.6G85X118.9Y-83.6
G05
T0
M30
