G04 #@! TF.GenerationSoftware,KiCad,Pcbnew,(6.0.7)*
G04 #@! TF.CreationDate,2022-10-03T20:14:31+03:00*
G04 #@! TF.ProjectId,ESP32_blAudio_portable,45535033-325f-4626-9c41-7564696f5f70,rev?*
G04 #@! TF.SameCoordinates,Original*
G04 #@! TF.FileFunction,Legend,Top*
G04 #@! TF.FilePolarity,Positive*
%FSLAX46Y46*%
G04 Gerber Fmt 4.6, Leading zero omitted, Abs format (unit mm)*
G04 Created by KiCad (PCBNEW (6.0.7)) date 2022-10-03 20:14:31*
%MOMM*%
%LPD*%
G01*
G04 APERTURE LIST*
G04 Aperture macros list*
%AMRoundRect*
0 Rectangle with rounded corners*
0 $1 Rounding radius*
0 $2 $3 $4 $5 $6 $7 $8 $9 X,Y pos of 4 corners*
0 Add a 4 corners polygon primitive as box body*
4,1,4,$2,$3,$4,$5,$6,$7,$8,$9,$2,$3,0*
0 Add four circle primitives for the rounded corners*
1,1,$1+$1,$2,$3*
1,1,$1+$1,$4,$5*
1,1,$1+$1,$6,$7*
1,1,$1+$1,$8,$9*
0 Add four rect primitives between the rounded corners*
20,1,$1+$1,$2,$3,$4,$5,0*
20,1,$1+$1,$4,$5,$6,$7,0*
20,1,$1+$1,$6,$7,$8,$9,0*
20,1,$1+$1,$8,$9,$2,$3,0*%
%AMFreePoly0*
4,1,22,0.500000,-0.750000,0.000000,-0.750000,0.000000,-0.745033,-0.079941,-0.743568,-0.215256,-0.701293,-0.333266,-0.622738,-0.424486,-0.514219,-0.481581,-0.384460,-0.499164,-0.250000,-0.500000,-0.250000,-0.500000,0.250000,-0.499164,0.250000,-0.499963,0.256109,-0.478152,0.396186,-0.417904,0.524511,-0.324060,0.630769,-0.204165,0.706417,-0.067858,0.745374,0.000000,0.744959,0.000000,0.750000,
0.500000,0.750000,0.500000,-0.750000,0.500000,-0.750000,$1*%
%AMFreePoly1*
4,1,20,0.000000,0.744959,0.073905,0.744508,0.209726,0.703889,0.328688,0.626782,0.421226,0.519385,0.479903,0.390333,0.500000,0.250000,0.500000,-0.250000,0.499851,-0.262216,0.476331,-0.402017,0.414519,-0.529596,0.319384,-0.634700,0.198574,-0.708877,0.061801,-0.746166,0.000000,-0.745033,0.000000,-0.750000,-0.500000,-0.750000,-0.500000,0.750000,0.000000,0.750000,0.000000,0.744959,
0.000000,0.744959,$1*%
G04 Aperture macros list end*
%ADD10C,0.150000*%
%ADD11C,0.120000*%
%ADD12C,1.300000*%
%ADD13RoundRect,0.450000X-0.650000X-0.450000X0.650000X-0.450000X0.650000X0.450000X-0.650000X0.450000X0*%
%ADD14RoundRect,0.450000X0.450000X-0.650000X0.450000X0.650000X-0.450000X0.650000X-0.450000X-0.650000X0*%
%ADD15R,1.700000X1.700000*%
%ADD16O,1.700000X1.700000*%
%ADD17RoundRect,0.250000X0.650000X-0.325000X0.650000X0.325000X-0.650000X0.325000X-0.650000X-0.325000X0*%
%ADD18RoundRect,0.200000X-0.200000X-0.275000X0.200000X-0.275000X0.200000X0.275000X-0.200000X0.275000X0*%
%ADD19RoundRect,0.200000X0.200000X0.275000X-0.200000X0.275000X-0.200000X-0.275000X0.200000X-0.275000X0*%
%ADD20RoundRect,0.200000X-0.275000X0.200000X-0.275000X-0.200000X0.275000X-0.200000X0.275000X0.200000X0*%
%ADD21RoundRect,0.150000X-0.150000X0.512500X-0.150000X-0.512500X0.150000X-0.512500X0.150000X0.512500X0*%
%ADD22C,2.000000*%
%ADD23R,3.200000X2.000000*%
%ADD24R,2.000000X2.000000*%
%ADD25C,4.000000*%
%ADD26C,1.800000*%
%ADD27RoundRect,0.225000X-0.225000X-0.250000X0.225000X-0.250000X0.225000X0.250000X-0.225000X0.250000X0*%
%ADD28RoundRect,0.225000X-0.250000X0.225000X-0.250000X-0.225000X0.250000X-0.225000X0.250000X0.225000X0*%
%ADD29RoundRect,0.218750X0.256250X-0.218750X0.256250X0.218750X-0.256250X0.218750X-0.256250X-0.218750X0*%
%ADD30RoundRect,0.218750X-0.218750X-0.256250X0.218750X-0.256250X0.218750X0.256250X-0.218750X0.256250X0*%
%ADD31R,0.700000X0.450000*%
%ADD32RoundRect,0.100000X-0.637500X-0.100000X0.637500X-0.100000X0.637500X0.100000X-0.637500X0.100000X0*%
%ADD33RoundRect,0.200000X0.275000X-0.200000X0.275000X0.200000X-0.275000X0.200000X-0.275000X-0.200000X0*%
%ADD34RoundRect,0.225000X0.225000X0.250000X-0.225000X0.250000X-0.225000X-0.250000X0.225000X-0.250000X0*%
%ADD35C,3.200000*%
%ADD36FreePoly0,90.000000*%
%ADD37FreePoly1,90.000000*%
%ADD38R,0.450000X0.600000*%
%ADD39R,1.500000X4.000000*%
%ADD40R,2.000000X1.500000*%
%ADD41R,2.000000X3.800000*%
%ADD42RoundRect,0.225000X0.250000X-0.225000X0.250000X0.225000X-0.250000X0.225000X-0.250000X-0.225000X0*%
%ADD43RoundRect,0.062500X0.062500X-0.375000X0.062500X0.375000X-0.062500X0.375000X-0.062500X-0.375000X0*%
%ADD44RoundRect,0.062500X0.375000X-0.062500X0.375000X0.062500X-0.375000X0.062500X-0.375000X-0.062500X0*%
%ADD45R,2.600000X2.600000*%
%ADD46RoundRect,0.150000X-0.512500X-0.150000X0.512500X-0.150000X0.512500X0.150000X-0.512500X0.150000X0*%
%ADD47FreePoly0,270.000000*%
%ADD48FreePoly1,270.000000*%
G04 APERTURE END LIST*
D10*
X53416666Y-63452380D02*
X53416666Y-64166666D01*
X53369047Y-64309523D01*
X53273809Y-64404761D01*
X53130952Y-64452380D01*
X53035714Y-64452380D01*
X54321428Y-63452380D02*
X54130952Y-63452380D01*
X54035714Y-63500000D01*
X53988095Y-63547619D01*
X53892857Y-63690476D01*
X53845238Y-63880952D01*
X53845238Y-64261904D01*
X53892857Y-64357142D01*
X53940476Y-64404761D01*
X54035714Y-64452380D01*
X54226190Y-64452380D01*
X54321428Y-64404761D01*
X54369047Y-64357142D01*
X54416666Y-64261904D01*
X54416666Y-64023809D01*
X54369047Y-63928571D01*
X54321428Y-63880952D01*
X54226190Y-63833333D01*
X54035714Y-63833333D01*
X53940476Y-63880952D01*
X53892857Y-63928571D01*
X53845238Y-64023809D01*
X128416666Y-45372380D02*
X128416666Y-46086666D01*
X128369047Y-46229523D01*
X128273809Y-46324761D01*
X128130952Y-46372380D01*
X128035714Y-46372380D01*
X129369047Y-45372380D02*
X128892857Y-45372380D01*
X128845238Y-45848571D01*
X128892857Y-45800952D01*
X128988095Y-45753333D01*
X129226190Y-45753333D01*
X129321428Y-45800952D01*
X129369047Y-45848571D01*
X129416666Y-45943809D01*
X129416666Y-46181904D01*
X129369047Y-46277142D01*
X129321428Y-46324761D01*
X129226190Y-46372380D01*
X128988095Y-46372380D01*
X128892857Y-46324761D01*
X128845238Y-46277142D01*
X128607142Y-70416666D02*
X128654761Y-70464285D01*
X128702380Y-70607142D01*
X128702380Y-70702380D01*
X128654761Y-70845238D01*
X128559523Y-70940476D01*
X128464285Y-70988095D01*
X128273809Y-71035714D01*
X128130952Y-71035714D01*
X127940476Y-70988095D01*
X127845238Y-70940476D01*
X127750000Y-70845238D01*
X127702380Y-70702380D01*
X127702380Y-70607142D01*
X127750000Y-70464285D01*
X127797619Y-70416666D01*
X128035714Y-69559523D02*
X128702380Y-69559523D01*
X127654761Y-69797619D02*
X128369047Y-70035714D01*
X128369047Y-69416666D01*
X109357142Y-61702380D02*
X109023809Y-61226190D01*
X108785714Y-61702380D02*
X108785714Y-60702380D01*
X109166666Y-60702380D01*
X109261904Y-60750000D01*
X109309523Y-60797619D01*
X109357142Y-60892857D01*
X109357142Y-61035714D01*
X109309523Y-61130952D01*
X109261904Y-61178571D01*
X109166666Y-61226190D01*
X108785714Y-61226190D01*
X110309523Y-61702380D02*
X109738095Y-61702380D01*
X110023809Y-61702380D02*
X110023809Y-60702380D01*
X109928571Y-60845238D01*
X109833333Y-60940476D01*
X109738095Y-60988095D01*
X110880952Y-61130952D02*
X110785714Y-61083333D01*
X110738095Y-61035714D01*
X110690476Y-60940476D01*
X110690476Y-60892857D01*
X110738095Y-60797619D01*
X110785714Y-60750000D01*
X110880952Y-60702380D01*
X111071428Y-60702380D01*
X111166666Y-60750000D01*
X111214285Y-60797619D01*
X111261904Y-60892857D01*
X111261904Y-60940476D01*
X111214285Y-61035714D01*
X111166666Y-61083333D01*
X111071428Y-61130952D01*
X110880952Y-61130952D01*
X110785714Y-61178571D01*
X110738095Y-61226190D01*
X110690476Y-61321428D01*
X110690476Y-61511904D01*
X110738095Y-61607142D01*
X110785714Y-61654761D01*
X110880952Y-61702380D01*
X111071428Y-61702380D01*
X111166666Y-61654761D01*
X111214285Y-61607142D01*
X111261904Y-61511904D01*
X111261904Y-61321428D01*
X111214285Y-61226190D01*
X111166666Y-61178571D01*
X111071428Y-61130952D01*
X78607142Y-71202380D02*
X78273809Y-70726190D01*
X78035714Y-71202380D02*
X78035714Y-70202380D01*
X78416666Y-70202380D01*
X78511904Y-70250000D01*
X78559523Y-70297619D01*
X78607142Y-70392857D01*
X78607142Y-70535714D01*
X78559523Y-70630952D01*
X78511904Y-70678571D01*
X78416666Y-70726190D01*
X78035714Y-70726190D01*
X78940476Y-70202380D02*
X79559523Y-70202380D01*
X79226190Y-70583333D01*
X79369047Y-70583333D01*
X79464285Y-70630952D01*
X79511904Y-70678571D01*
X79559523Y-70773809D01*
X79559523Y-71011904D01*
X79511904Y-71107142D01*
X79464285Y-71154761D01*
X79369047Y-71202380D01*
X79083333Y-71202380D01*
X78988095Y-71154761D01*
X78940476Y-71107142D01*
X79940476Y-70297619D02*
X79988095Y-70250000D01*
X80083333Y-70202380D01*
X80321428Y-70202380D01*
X80416666Y-70250000D01*
X80464285Y-70297619D01*
X80511904Y-70392857D01*
X80511904Y-70488095D01*
X80464285Y-70630952D01*
X79892857Y-71202380D01*
X80511904Y-71202380D01*
X117416666Y-22347380D02*
X117416666Y-23061666D01*
X117369047Y-23204523D01*
X117273809Y-23299761D01*
X117130952Y-23347380D01*
X117035714Y-23347380D01*
X117892857Y-23347380D02*
X117892857Y-22347380D01*
X118273809Y-22347380D01*
X118369047Y-22395000D01*
X118416666Y-22442619D01*
X118464285Y-22537857D01*
X118464285Y-22680714D01*
X118416666Y-22775952D01*
X118369047Y-22823571D01*
X118273809Y-22871190D01*
X117892857Y-22871190D01*
X119416666Y-23347380D02*
X118845238Y-23347380D01*
X119130952Y-23347380D02*
X119130952Y-22347380D01*
X119035714Y-22490238D01*
X118940476Y-22585476D01*
X118845238Y-22633095D01*
X121357142Y-58452380D02*
X121023809Y-57976190D01*
X120785714Y-58452380D02*
X120785714Y-57452380D01*
X121166666Y-57452380D01*
X121261904Y-57500000D01*
X121309523Y-57547619D01*
X121357142Y-57642857D01*
X121357142Y-57785714D01*
X121309523Y-57880952D01*
X121261904Y-57928571D01*
X121166666Y-57976190D01*
X120785714Y-57976190D01*
X122309523Y-58452380D02*
X121738095Y-58452380D01*
X122023809Y-58452380D02*
X122023809Y-57452380D01*
X121928571Y-57595238D01*
X121833333Y-57690476D01*
X121738095Y-57738095D01*
X122642857Y-57452380D02*
X123309523Y-57452380D01*
X122880952Y-58452380D01*
X121357142Y-22272380D02*
X121023809Y-21796190D01*
X120785714Y-22272380D02*
X120785714Y-21272380D01*
X121166666Y-21272380D01*
X121261904Y-21320000D01*
X121309523Y-21367619D01*
X121357142Y-21462857D01*
X121357142Y-21605714D01*
X121309523Y-21700952D01*
X121261904Y-21748571D01*
X121166666Y-21796190D01*
X120785714Y-21796190D01*
X122309523Y-22272380D02*
X121738095Y-22272380D01*
X122023809Y-22272380D02*
X122023809Y-21272380D01*
X121928571Y-21415238D01*
X121833333Y-21510476D01*
X121738095Y-21558095D01*
X122690476Y-21367619D02*
X122738095Y-21320000D01*
X122833333Y-21272380D01*
X123071428Y-21272380D01*
X123166666Y-21320000D01*
X123214285Y-21367619D01*
X123261904Y-21462857D01*
X123261904Y-21558095D01*
X123214285Y-21700952D01*
X122642857Y-22272380D01*
X123261904Y-22272380D01*
X95357142Y-42702380D02*
X95023809Y-42226190D01*
X94785714Y-42702380D02*
X94785714Y-41702380D01*
X95166666Y-41702380D01*
X95261904Y-41750000D01*
X95309523Y-41797619D01*
X95357142Y-41892857D01*
X95357142Y-42035714D01*
X95309523Y-42130952D01*
X95261904Y-42178571D01*
X95166666Y-42226190D01*
X94785714Y-42226190D01*
X96214285Y-42035714D02*
X96214285Y-42702380D01*
X95976190Y-41654761D02*
X95738095Y-42369047D01*
X96357142Y-42369047D01*
X96642857Y-41702380D02*
X97261904Y-41702380D01*
X96928571Y-42083333D01*
X97071428Y-42083333D01*
X97166666Y-42130952D01*
X97214285Y-42178571D01*
X97261904Y-42273809D01*
X97261904Y-42511904D01*
X97214285Y-42607142D01*
X97166666Y-42654761D01*
X97071428Y-42702380D01*
X96785714Y-42702380D01*
X96690476Y-42654761D01*
X96642857Y-42607142D01*
X110202380Y-45142857D02*
X109726190Y-45476190D01*
X110202380Y-45714285D02*
X109202380Y-45714285D01*
X109202380Y-45333333D01*
X109250000Y-45238095D01*
X109297619Y-45190476D01*
X109392857Y-45142857D01*
X109535714Y-45142857D01*
X109630952Y-45190476D01*
X109678571Y-45238095D01*
X109726190Y-45333333D01*
X109726190Y-45714285D01*
X109202380Y-44809523D02*
X109202380Y-44190476D01*
X109583333Y-44523809D01*
X109583333Y-44380952D01*
X109630952Y-44285714D01*
X109678571Y-44238095D01*
X109773809Y-44190476D01*
X110011904Y-44190476D01*
X110107142Y-44238095D01*
X110154761Y-44285714D01*
X110202380Y-44380952D01*
X110202380Y-44666666D01*
X110154761Y-44761904D01*
X110107142Y-44809523D01*
X110202380Y-43238095D02*
X110202380Y-43809523D01*
X110202380Y-43523809D02*
X109202380Y-43523809D01*
X109345238Y-43619047D01*
X109440476Y-43714285D01*
X109488095Y-43809523D01*
X74607142Y-61702380D02*
X74273809Y-61226190D01*
X74035714Y-61702380D02*
X74035714Y-60702380D01*
X74416666Y-60702380D01*
X74511904Y-60750000D01*
X74559523Y-60797619D01*
X74607142Y-60892857D01*
X74607142Y-61035714D01*
X74559523Y-61130952D01*
X74511904Y-61178571D01*
X74416666Y-61226190D01*
X74035714Y-61226190D01*
X74940476Y-60702380D02*
X75559523Y-60702380D01*
X75226190Y-61083333D01*
X75369047Y-61083333D01*
X75464285Y-61130952D01*
X75511904Y-61178571D01*
X75559523Y-61273809D01*
X75559523Y-61511904D01*
X75511904Y-61607142D01*
X75464285Y-61654761D01*
X75369047Y-61702380D01*
X75083333Y-61702380D01*
X74988095Y-61654761D01*
X74940476Y-61607142D01*
X76416666Y-61035714D02*
X76416666Y-61702380D01*
X76178571Y-60654761D02*
X75940476Y-61369047D01*
X76559523Y-61369047D01*
X108452380Y-31511904D02*
X109261904Y-31511904D01*
X109357142Y-31464285D01*
X109404761Y-31416666D01*
X109452380Y-31321428D01*
X109452380Y-31130952D01*
X109404761Y-31035714D01*
X109357142Y-30988095D01*
X109261904Y-30940476D01*
X108452380Y-30940476D01*
X109452380Y-29940476D02*
X109452380Y-30511904D01*
X109452380Y-30226190D02*
X108452380Y-30226190D01*
X108595238Y-30321428D01*
X108690476Y-30416666D01*
X108738095Y-30511904D01*
X111404761Y-73083333D02*
X111452380Y-72940476D01*
X111452380Y-72702380D01*
X111404761Y-72607142D01*
X111357142Y-72559523D01*
X111261904Y-72511904D01*
X111166666Y-72511904D01*
X111071428Y-72559523D01*
X111023809Y-72607142D01*
X110976190Y-72702380D01*
X110928571Y-72892857D01*
X110880952Y-72988095D01*
X110833333Y-73035714D01*
X110738095Y-73083333D01*
X110642857Y-73083333D01*
X110547619Y-73035714D01*
X110500000Y-72988095D01*
X110452380Y-72892857D01*
X110452380Y-72654761D01*
X110500000Y-72511904D01*
X110452380Y-72178571D02*
X111452380Y-71940476D01*
X110738095Y-71750000D01*
X111452380Y-71559523D01*
X110452380Y-71321428D01*
X110785714Y-70511904D02*
X111452380Y-70511904D01*
X110404761Y-70750000D02*
X111119047Y-70988095D01*
X111119047Y-70369047D01*
X95202380Y-73595238D02*
X94726190Y-73928571D01*
X95202380Y-74166666D02*
X94202380Y-74166666D01*
X94202380Y-73785714D01*
X94250000Y-73690476D01*
X94297619Y-73642857D01*
X94392857Y-73595238D01*
X94535714Y-73595238D01*
X94630952Y-73642857D01*
X94678571Y-73690476D01*
X94726190Y-73785714D01*
X94726190Y-74166666D01*
X94202380Y-73309523D02*
X95202380Y-72976190D01*
X94202380Y-72642857D01*
X95202380Y-71785714D02*
X95202380Y-72357142D01*
X95202380Y-72071428D02*
X94202380Y-72071428D01*
X94345238Y-72166666D01*
X94440476Y-72261904D01*
X94488095Y-72357142D01*
X128083333Y-72357142D02*
X128035714Y-72404761D01*
X127892857Y-72452380D01*
X127797619Y-72452380D01*
X127654761Y-72404761D01*
X127559523Y-72309523D01*
X127511904Y-72214285D01*
X127464285Y-72023809D01*
X127464285Y-71880952D01*
X127511904Y-71690476D01*
X127559523Y-71595238D01*
X127654761Y-71500000D01*
X127797619Y-71452380D01*
X127892857Y-71452380D01*
X128035714Y-71500000D01*
X128083333Y-71547619D01*
X128940476Y-71452380D02*
X128750000Y-71452380D01*
X128654761Y-71500000D01*
X128607142Y-71547619D01*
X128511904Y-71690476D01*
X128464285Y-71880952D01*
X128464285Y-72261904D01*
X128511904Y-72357142D01*
X128559523Y-72404761D01*
X128654761Y-72452380D01*
X128845238Y-72452380D01*
X128940476Y-72404761D01*
X128988095Y-72357142D01*
X129035714Y-72261904D01*
X129035714Y-72023809D01*
X128988095Y-71928571D01*
X128940476Y-71880952D01*
X128845238Y-71833333D01*
X128654761Y-71833333D01*
X128559523Y-71880952D01*
X128511904Y-71928571D01*
X128464285Y-72023809D01*
X126607142Y-42892857D02*
X126654761Y-42940476D01*
X126702380Y-43083333D01*
X126702380Y-43178571D01*
X126654761Y-43321428D01*
X126559523Y-43416666D01*
X126464285Y-43464285D01*
X126273809Y-43511904D01*
X126130952Y-43511904D01*
X125940476Y-43464285D01*
X125845238Y-43416666D01*
X125750000Y-43321428D01*
X125702380Y-43178571D01*
X125702380Y-43083333D01*
X125750000Y-42940476D01*
X125797619Y-42892857D01*
X125797619Y-42511904D02*
X125750000Y-42464285D01*
X125702380Y-42369047D01*
X125702380Y-42130952D01*
X125750000Y-42035714D01*
X125797619Y-41988095D01*
X125892857Y-41940476D01*
X125988095Y-41940476D01*
X126130952Y-41988095D01*
X126702380Y-42559523D01*
X126702380Y-41940476D01*
X125702380Y-41083333D02*
X125702380Y-41273809D01*
X125750000Y-41369047D01*
X125797619Y-41416666D01*
X125940476Y-41511904D01*
X126130952Y-41559523D01*
X126511904Y-41559523D01*
X126607142Y-41511904D01*
X126654761Y-41464285D01*
X126702380Y-41369047D01*
X126702380Y-41178571D01*
X126654761Y-41083333D01*
X126607142Y-41035714D01*
X126511904Y-40988095D01*
X126273809Y-40988095D01*
X126178571Y-41035714D01*
X126130952Y-41083333D01*
X126083333Y-41178571D01*
X126083333Y-41369047D01*
X126130952Y-41464285D01*
X126178571Y-41511904D01*
X126273809Y-41559523D01*
X88022380Y-83738095D02*
X87022380Y-83738095D01*
X87022380Y-83500000D01*
X87070000Y-83357142D01*
X87165238Y-83261904D01*
X87260476Y-83214285D01*
X87450952Y-83166666D01*
X87593809Y-83166666D01*
X87784285Y-83214285D01*
X87879523Y-83261904D01*
X87974761Y-83357142D01*
X88022380Y-83500000D01*
X88022380Y-83738095D01*
X87117619Y-82785714D02*
X87070000Y-82738095D01*
X87022380Y-82642857D01*
X87022380Y-82404761D01*
X87070000Y-82309523D01*
X87117619Y-82261904D01*
X87212857Y-82214285D01*
X87308095Y-82214285D01*
X87450952Y-82261904D01*
X88022380Y-82833333D01*
X88022380Y-82214285D01*
X130333333Y-71452380D02*
X129857142Y-71452380D01*
X129857142Y-70452380D01*
X130619047Y-70547619D02*
X130666666Y-70500000D01*
X130761904Y-70452380D01*
X131000000Y-70452380D01*
X131095238Y-70500000D01*
X131142857Y-70547619D01*
X131190476Y-70642857D01*
X131190476Y-70738095D01*
X131142857Y-70880952D01*
X130571428Y-71452380D01*
X131190476Y-71452380D01*
X125404761Y-32547619D02*
X125309523Y-32500000D01*
X125214285Y-32404761D01*
X125071428Y-32261904D01*
X124976190Y-32214285D01*
X124880952Y-32214285D01*
X124928571Y-32452380D02*
X124833333Y-32404761D01*
X124738095Y-32309523D01*
X124690476Y-32119047D01*
X124690476Y-31785714D01*
X124738095Y-31595238D01*
X124833333Y-31500000D01*
X124928571Y-31452380D01*
X125119047Y-31452380D01*
X125214285Y-31500000D01*
X125309523Y-31595238D01*
X125357142Y-31785714D01*
X125357142Y-32119047D01*
X125309523Y-32309523D01*
X125214285Y-32404761D01*
X125119047Y-32452380D01*
X124928571Y-32452380D01*
X126309523Y-32452380D02*
X125738095Y-32452380D01*
X126023809Y-32452380D02*
X126023809Y-31452380D01*
X125928571Y-31595238D01*
X125833333Y-31690476D01*
X125738095Y-31738095D01*
X74988095Y-71952380D02*
X74988095Y-72761904D01*
X75035714Y-72857142D01*
X75083333Y-72904761D01*
X75178571Y-72952380D01*
X75369047Y-72952380D01*
X75464285Y-72904761D01*
X75511904Y-72857142D01*
X75559523Y-72761904D01*
X75559523Y-71952380D01*
X76464285Y-72285714D02*
X76464285Y-72952380D01*
X76226190Y-71904761D02*
X75988095Y-72619047D01*
X76607142Y-72619047D01*
X71607142Y-61702380D02*
X71273809Y-61226190D01*
X71035714Y-61702380D02*
X71035714Y-60702380D01*
X71416666Y-60702380D01*
X71511904Y-60750000D01*
X71559523Y-60797619D01*
X71607142Y-60892857D01*
X71607142Y-61035714D01*
X71559523Y-61130952D01*
X71511904Y-61178571D01*
X71416666Y-61226190D01*
X71035714Y-61226190D01*
X71940476Y-60702380D02*
X72559523Y-60702380D01*
X72226190Y-61083333D01*
X72369047Y-61083333D01*
X72464285Y-61130952D01*
X72511904Y-61178571D01*
X72559523Y-61273809D01*
X72559523Y-61511904D01*
X72511904Y-61607142D01*
X72464285Y-61654761D01*
X72369047Y-61702380D01*
X72083333Y-61702380D01*
X71988095Y-61654761D01*
X71940476Y-61607142D01*
X72892857Y-60702380D02*
X73511904Y-60702380D01*
X73178571Y-61083333D01*
X73321428Y-61083333D01*
X73416666Y-61130952D01*
X73464285Y-61178571D01*
X73511904Y-61273809D01*
X73511904Y-61511904D01*
X73464285Y-61607142D01*
X73416666Y-61654761D01*
X73321428Y-61702380D01*
X73035714Y-61702380D01*
X72940476Y-61654761D01*
X72892857Y-61607142D01*
X81202380Y-66642857D02*
X80726190Y-66976190D01*
X81202380Y-67214285D02*
X80202380Y-67214285D01*
X80202380Y-66833333D01*
X80250000Y-66738095D01*
X80297619Y-66690476D01*
X80392857Y-66642857D01*
X80535714Y-66642857D01*
X80630952Y-66690476D01*
X80678571Y-66738095D01*
X80726190Y-66833333D01*
X80726190Y-67214285D01*
X80202380Y-66309523D02*
X80202380Y-65690476D01*
X80583333Y-66023809D01*
X80583333Y-65880952D01*
X80630952Y-65785714D01*
X80678571Y-65738095D01*
X80773809Y-65690476D01*
X81011904Y-65690476D01*
X81107142Y-65738095D01*
X81154761Y-65785714D01*
X81202380Y-65880952D01*
X81202380Y-66166666D01*
X81154761Y-66261904D01*
X81107142Y-66309523D01*
X80202380Y-64833333D02*
X80202380Y-65023809D01*
X80250000Y-65119047D01*
X80297619Y-65166666D01*
X80440476Y-65261904D01*
X80630952Y-65309523D01*
X81011904Y-65309523D01*
X81107142Y-65261904D01*
X81154761Y-65214285D01*
X81202380Y-65119047D01*
X81202380Y-64928571D01*
X81154761Y-64833333D01*
X81107142Y-64785714D01*
X81011904Y-64738095D01*
X80773809Y-64738095D01*
X80678571Y-64785714D01*
X80630952Y-64833333D01*
X80583333Y-64928571D01*
X80583333Y-65119047D01*
X80630952Y-65214285D01*
X80678571Y-65261904D01*
X80773809Y-65309523D01*
X121357142Y-55882380D02*
X121023809Y-55406190D01*
X120785714Y-55882380D02*
X120785714Y-54882380D01*
X121166666Y-54882380D01*
X121261904Y-54930000D01*
X121309523Y-54977619D01*
X121357142Y-55072857D01*
X121357142Y-55215714D01*
X121309523Y-55310952D01*
X121261904Y-55358571D01*
X121166666Y-55406190D01*
X120785714Y-55406190D01*
X121738095Y-54977619D02*
X121785714Y-54930000D01*
X121880952Y-54882380D01*
X122119047Y-54882380D01*
X122214285Y-54930000D01*
X122261904Y-54977619D01*
X122309523Y-55072857D01*
X122309523Y-55168095D01*
X122261904Y-55310952D01*
X121690476Y-55882380D01*
X122309523Y-55882380D01*
X123166666Y-55215714D02*
X123166666Y-55882380D01*
X122928571Y-54834761D02*
X122690476Y-55549047D01*
X123309523Y-55549047D01*
X108857142Y-48952380D02*
X108523809Y-48476190D01*
X108285714Y-48952380D02*
X108285714Y-47952380D01*
X108666666Y-47952380D01*
X108761904Y-48000000D01*
X108809523Y-48047619D01*
X108857142Y-48142857D01*
X108857142Y-48285714D01*
X108809523Y-48380952D01*
X108761904Y-48428571D01*
X108666666Y-48476190D01*
X108285714Y-48476190D01*
X109238095Y-48047619D02*
X109285714Y-48000000D01*
X109380952Y-47952380D01*
X109619047Y-47952380D01*
X109714285Y-48000000D01*
X109761904Y-48047619D01*
X109809523Y-48142857D01*
X109809523Y-48238095D01*
X109761904Y-48380952D01*
X109190476Y-48952380D01*
X109809523Y-48952380D01*
X110380952Y-48380952D02*
X110285714Y-48333333D01*
X110238095Y-48285714D01*
X110190476Y-48190476D01*
X110190476Y-48142857D01*
X110238095Y-48047619D01*
X110285714Y-48000000D01*
X110380952Y-47952380D01*
X110571428Y-47952380D01*
X110666666Y-48000000D01*
X110714285Y-48047619D01*
X110761904Y-48142857D01*
X110761904Y-48190476D01*
X110714285Y-48285714D01*
X110666666Y-48333333D01*
X110571428Y-48380952D01*
X110380952Y-48380952D01*
X110285714Y-48428571D01*
X110238095Y-48476190D01*
X110190476Y-48571428D01*
X110190476Y-48761904D01*
X110238095Y-48857142D01*
X110285714Y-48904761D01*
X110380952Y-48952380D01*
X110571428Y-48952380D01*
X110666666Y-48904761D01*
X110714285Y-48857142D01*
X110761904Y-48761904D01*
X110761904Y-48571428D01*
X110714285Y-48476190D01*
X110666666Y-48428571D01*
X110571428Y-48380952D01*
X74607142Y-63202380D02*
X74273809Y-62726190D01*
X74035714Y-63202380D02*
X74035714Y-62202380D01*
X74416666Y-62202380D01*
X74511904Y-62250000D01*
X74559523Y-62297619D01*
X74607142Y-62392857D01*
X74607142Y-62535714D01*
X74559523Y-62630952D01*
X74511904Y-62678571D01*
X74416666Y-62726190D01*
X74035714Y-62726190D01*
X74940476Y-62202380D02*
X75559523Y-62202380D01*
X75226190Y-62583333D01*
X75369047Y-62583333D01*
X75464285Y-62630952D01*
X75511904Y-62678571D01*
X75559523Y-62773809D01*
X75559523Y-63011904D01*
X75511904Y-63107142D01*
X75464285Y-63154761D01*
X75369047Y-63202380D01*
X75083333Y-63202380D01*
X74988095Y-63154761D01*
X74940476Y-63107142D01*
X76130952Y-62630952D02*
X76035714Y-62583333D01*
X75988095Y-62535714D01*
X75940476Y-62440476D01*
X75940476Y-62392857D01*
X75988095Y-62297619D01*
X76035714Y-62250000D01*
X76130952Y-62202380D01*
X76321428Y-62202380D01*
X76416666Y-62250000D01*
X76464285Y-62297619D01*
X76511904Y-62392857D01*
X76511904Y-62440476D01*
X76464285Y-62535714D01*
X76416666Y-62583333D01*
X76321428Y-62630952D01*
X76130952Y-62630952D01*
X76035714Y-62678571D01*
X75988095Y-62726190D01*
X75940476Y-62821428D01*
X75940476Y-63011904D01*
X75988095Y-63107142D01*
X76035714Y-63154761D01*
X76130952Y-63202380D01*
X76321428Y-63202380D01*
X76416666Y-63154761D01*
X76464285Y-63107142D01*
X76511904Y-63011904D01*
X76511904Y-62821428D01*
X76464285Y-62726190D01*
X76416666Y-62678571D01*
X76321428Y-62630952D01*
X128083333Y-68857142D02*
X128035714Y-68904761D01*
X127892857Y-68952380D01*
X127797619Y-68952380D01*
X127654761Y-68904761D01*
X127559523Y-68809523D01*
X127511904Y-68714285D01*
X127464285Y-68523809D01*
X127464285Y-68380952D01*
X127511904Y-68190476D01*
X127559523Y-68095238D01*
X127654761Y-68000000D01*
X127797619Y-67952380D01*
X127892857Y-67952380D01*
X128035714Y-68000000D01*
X128083333Y-68047619D01*
X128988095Y-67952380D02*
X128511904Y-67952380D01*
X128464285Y-68428571D01*
X128511904Y-68380952D01*
X128607142Y-68333333D01*
X128845238Y-68333333D01*
X128940476Y-68380952D01*
X128988095Y-68428571D01*
X129035714Y-68523809D01*
X129035714Y-68761904D01*
X128988095Y-68857142D01*
X128940476Y-68904761D01*
X128845238Y-68952380D01*
X128607142Y-68952380D01*
X128511904Y-68904761D01*
X128464285Y-68857142D01*
X65357142Y-65107142D02*
X65309523Y-65154761D01*
X65166666Y-65202380D01*
X65071428Y-65202380D01*
X64928571Y-65154761D01*
X64833333Y-65059523D01*
X64785714Y-64964285D01*
X64738095Y-64773809D01*
X64738095Y-64630952D01*
X64785714Y-64440476D01*
X64833333Y-64345238D01*
X64928571Y-64250000D01*
X65071428Y-64202380D01*
X65166666Y-64202380D01*
X65309523Y-64250000D01*
X65357142Y-64297619D01*
X66309523Y-65202380D02*
X65738095Y-65202380D01*
X66023809Y-65202380D02*
X66023809Y-64202380D01*
X65928571Y-64345238D01*
X65833333Y-64440476D01*
X65738095Y-64488095D01*
X67214285Y-64202380D02*
X66738095Y-64202380D01*
X66690476Y-64678571D01*
X66738095Y-64630952D01*
X66833333Y-64583333D01*
X67071428Y-64583333D01*
X67166666Y-64630952D01*
X67214285Y-64678571D01*
X67261904Y-64773809D01*
X67261904Y-65011904D01*
X67214285Y-65107142D01*
X67166666Y-65154761D01*
X67071428Y-65202380D01*
X66833333Y-65202380D01*
X66738095Y-65154761D01*
X66690476Y-65107142D01*
X124607142Y-53537142D02*
X124559523Y-53584761D01*
X124416666Y-53632380D01*
X124321428Y-53632380D01*
X124178571Y-53584761D01*
X124083333Y-53489523D01*
X124035714Y-53394285D01*
X123988095Y-53203809D01*
X123988095Y-53060952D01*
X124035714Y-52870476D01*
X124083333Y-52775238D01*
X124178571Y-52680000D01*
X124321428Y-52632380D01*
X124416666Y-52632380D01*
X124559523Y-52680000D01*
X124607142Y-52727619D01*
X125559523Y-53632380D02*
X124988095Y-53632380D01*
X125273809Y-53632380D02*
X125273809Y-52632380D01*
X125178571Y-52775238D01*
X125083333Y-52870476D01*
X124988095Y-52918095D01*
X125892857Y-52632380D02*
X126511904Y-52632380D01*
X126178571Y-53013333D01*
X126321428Y-53013333D01*
X126416666Y-53060952D01*
X126464285Y-53108571D01*
X126511904Y-53203809D01*
X126511904Y-53441904D01*
X126464285Y-53537142D01*
X126416666Y-53584761D01*
X126321428Y-53632380D01*
X126035714Y-53632380D01*
X125940476Y-53584761D01*
X125892857Y-53537142D01*
X116166666Y-54952380D02*
X116166666Y-55666666D01*
X116119047Y-55809523D01*
X116023809Y-55904761D01*
X115880952Y-55952380D01*
X115785714Y-55952380D01*
X116642857Y-55952380D02*
X116642857Y-54952380D01*
X117023809Y-54952380D01*
X117119047Y-55000000D01*
X117166666Y-55047619D01*
X117214285Y-55142857D01*
X117214285Y-55285714D01*
X117166666Y-55380952D01*
X117119047Y-55428571D01*
X117023809Y-55476190D01*
X116642857Y-55476190D01*
X118119047Y-54952380D02*
X117642857Y-54952380D01*
X117595238Y-55428571D01*
X117642857Y-55380952D01*
X117738095Y-55333333D01*
X117976190Y-55333333D01*
X118071428Y-55380952D01*
X118119047Y-55428571D01*
X118166666Y-55523809D01*
X118166666Y-55761904D01*
X118119047Y-55857142D01*
X118071428Y-55904761D01*
X117976190Y-55952380D01*
X117738095Y-55952380D01*
X117642857Y-55904761D01*
X117595238Y-55857142D01*
X132654761Y-27833333D02*
X132702380Y-27690476D01*
X132702380Y-27452380D01*
X132654761Y-27357142D01*
X132607142Y-27309523D01*
X132511904Y-27261904D01*
X132416666Y-27261904D01*
X132321428Y-27309523D01*
X132273809Y-27357142D01*
X132226190Y-27452380D01*
X132178571Y-27642857D01*
X132130952Y-27738095D01*
X132083333Y-27785714D01*
X131988095Y-27833333D01*
X131892857Y-27833333D01*
X131797619Y-27785714D01*
X131750000Y-27738095D01*
X131702380Y-27642857D01*
X131702380Y-27404761D01*
X131750000Y-27261904D01*
X131702380Y-26928571D02*
X132702380Y-26690476D01*
X131988095Y-26500000D01*
X132702380Y-26309523D01*
X131702380Y-26071428D01*
X131702380Y-25214285D02*
X131702380Y-25690476D01*
X132178571Y-25738095D01*
X132130952Y-25690476D01*
X132083333Y-25595238D01*
X132083333Y-25357142D01*
X132130952Y-25261904D01*
X132178571Y-25214285D01*
X132273809Y-25166666D01*
X132511904Y-25166666D01*
X132607142Y-25214285D01*
X132654761Y-25261904D01*
X132702380Y-25357142D01*
X132702380Y-25595238D01*
X132654761Y-25690476D01*
X132607142Y-25738095D01*
X108857142Y-50452380D02*
X108523809Y-49976190D01*
X108285714Y-50452380D02*
X108285714Y-49452380D01*
X108666666Y-49452380D01*
X108761904Y-49500000D01*
X108809523Y-49547619D01*
X108857142Y-49642857D01*
X108857142Y-49785714D01*
X108809523Y-49880952D01*
X108761904Y-49928571D01*
X108666666Y-49976190D01*
X108285714Y-49976190D01*
X109190476Y-49452380D02*
X109809523Y-49452380D01*
X109476190Y-49833333D01*
X109619047Y-49833333D01*
X109714285Y-49880952D01*
X109761904Y-49928571D01*
X109809523Y-50023809D01*
X109809523Y-50261904D01*
X109761904Y-50357142D01*
X109714285Y-50404761D01*
X109619047Y-50452380D01*
X109333333Y-50452380D01*
X109238095Y-50404761D01*
X109190476Y-50357142D01*
X110428571Y-49452380D02*
X110523809Y-49452380D01*
X110619047Y-49500000D01*
X110666666Y-49547619D01*
X110714285Y-49642857D01*
X110761904Y-49833333D01*
X110761904Y-50071428D01*
X110714285Y-50261904D01*
X110666666Y-50357142D01*
X110619047Y-50404761D01*
X110523809Y-50452380D01*
X110428571Y-50452380D01*
X110333333Y-50404761D01*
X110285714Y-50357142D01*
X110238095Y-50261904D01*
X110190476Y-50071428D01*
X110190476Y-49833333D01*
X110238095Y-49642857D01*
X110285714Y-49547619D01*
X110333333Y-49500000D01*
X110428571Y-49452380D01*
X108857142Y-47452380D02*
X108523809Y-46976190D01*
X108285714Y-47452380D02*
X108285714Y-46452380D01*
X108666666Y-46452380D01*
X108761904Y-46500000D01*
X108809523Y-46547619D01*
X108857142Y-46642857D01*
X108857142Y-46785714D01*
X108809523Y-46880952D01*
X108761904Y-46928571D01*
X108666666Y-46976190D01*
X108285714Y-46976190D01*
X109238095Y-46547619D02*
X109285714Y-46500000D01*
X109380952Y-46452380D01*
X109619047Y-46452380D01*
X109714285Y-46500000D01*
X109761904Y-46547619D01*
X109809523Y-46642857D01*
X109809523Y-46738095D01*
X109761904Y-46880952D01*
X109190476Y-47452380D01*
X109809523Y-47452380D01*
X110666666Y-46452380D02*
X110476190Y-46452380D01*
X110380952Y-46500000D01*
X110333333Y-46547619D01*
X110238095Y-46690476D01*
X110190476Y-46880952D01*
X110190476Y-47261904D01*
X110238095Y-47357142D01*
X110285714Y-47404761D01*
X110380952Y-47452380D01*
X110571428Y-47452380D01*
X110666666Y-47404761D01*
X110714285Y-47357142D01*
X110761904Y-47261904D01*
X110761904Y-47023809D01*
X110714285Y-46928571D01*
X110666666Y-46880952D01*
X110571428Y-46833333D01*
X110380952Y-46833333D01*
X110285714Y-46880952D01*
X110238095Y-46928571D01*
X110190476Y-47023809D01*
X125083333Y-67787142D02*
X125035714Y-67834761D01*
X124892857Y-67882380D01*
X124797619Y-67882380D01*
X124654761Y-67834761D01*
X124559523Y-67739523D01*
X124511904Y-67644285D01*
X124464285Y-67453809D01*
X124464285Y-67310952D01*
X124511904Y-67120476D01*
X124559523Y-67025238D01*
X124654761Y-66930000D01*
X124797619Y-66882380D01*
X124892857Y-66882380D01*
X125035714Y-66930000D01*
X125083333Y-66977619D01*
X125416666Y-66882380D02*
X126083333Y-66882380D01*
X125654761Y-67882380D01*
X114452380Y-35416666D02*
X113976190Y-35750000D01*
X114452380Y-35988095D02*
X113452380Y-35988095D01*
X113452380Y-35607142D01*
X113500000Y-35511904D01*
X113547619Y-35464285D01*
X113642857Y-35416666D01*
X113785714Y-35416666D01*
X113880952Y-35464285D01*
X113928571Y-35511904D01*
X113976190Y-35607142D01*
X113976190Y-35988095D01*
X113452380Y-34559523D02*
X113452380Y-34750000D01*
X113500000Y-34845238D01*
X113547619Y-34892857D01*
X113690476Y-34988095D01*
X113880952Y-35035714D01*
X114261904Y-35035714D01*
X114357142Y-34988095D01*
X114404761Y-34940476D01*
X114452380Y-34845238D01*
X114452380Y-34654761D01*
X114404761Y-34559523D01*
X114357142Y-34511904D01*
X114261904Y-34464285D01*
X114023809Y-34464285D01*
X113928571Y-34511904D01*
X113880952Y-34559523D01*
X113833333Y-34654761D01*
X113833333Y-34845238D01*
X113880952Y-34940476D01*
X113928571Y-34988095D01*
X114023809Y-35035714D01*
X93662380Y-58753333D02*
X94376666Y-58753333D01*
X94519523Y-58800952D01*
X94614761Y-58896190D01*
X94662380Y-59039047D01*
X94662380Y-59134285D01*
X93757619Y-58324761D02*
X93710000Y-58277142D01*
X93662380Y-58181904D01*
X93662380Y-57943809D01*
X93710000Y-57848571D01*
X93757619Y-57800952D01*
X93852857Y-57753333D01*
X93948095Y-57753333D01*
X94090952Y-57800952D01*
X94662380Y-58372380D01*
X94662380Y-57753333D01*
X115607142Y-54166666D02*
X115654761Y-54214285D01*
X115702380Y-54357142D01*
X115702380Y-54452380D01*
X115654761Y-54595238D01*
X115559523Y-54690476D01*
X115464285Y-54738095D01*
X115273809Y-54785714D01*
X115130952Y-54785714D01*
X114940476Y-54738095D01*
X114845238Y-54690476D01*
X114750000Y-54595238D01*
X114702380Y-54452380D01*
X114702380Y-54357142D01*
X114750000Y-54214285D01*
X114797619Y-54166666D01*
X115702380Y-53690476D02*
X115702380Y-53500000D01*
X115654761Y-53404761D01*
X115607142Y-53357142D01*
X115464285Y-53261904D01*
X115273809Y-53214285D01*
X114892857Y-53214285D01*
X114797619Y-53261904D01*
X114750000Y-53309523D01*
X114702380Y-53404761D01*
X114702380Y-53595238D01*
X114750000Y-53690476D01*
X114797619Y-53738095D01*
X114892857Y-53785714D01*
X115130952Y-53785714D01*
X115226190Y-53738095D01*
X115273809Y-53690476D01*
X115321428Y-53595238D01*
X115321428Y-53404761D01*
X115273809Y-53309523D01*
X115226190Y-53261904D01*
X115130952Y-53214285D01*
X91022380Y-79416666D02*
X90546190Y-79750000D01*
X91022380Y-79988095D02*
X90022380Y-79988095D01*
X90022380Y-79607142D01*
X90070000Y-79511904D01*
X90117619Y-79464285D01*
X90212857Y-79416666D01*
X90355714Y-79416666D01*
X90450952Y-79464285D01*
X90498571Y-79511904D01*
X90546190Y-79607142D01*
X90546190Y-79988095D01*
X90022380Y-79083333D02*
X90022380Y-78464285D01*
X90403333Y-78797619D01*
X90403333Y-78654761D01*
X90450952Y-78559523D01*
X90498571Y-78511904D01*
X90593809Y-78464285D01*
X90831904Y-78464285D01*
X90927142Y-78511904D01*
X90974761Y-78559523D01*
X91022380Y-78654761D01*
X91022380Y-78940476D01*
X90974761Y-79035714D01*
X90927142Y-79083333D01*
X76916666Y-77904761D02*
X77059523Y-77952380D01*
X77297619Y-77952380D01*
X77392857Y-77904761D01*
X77440476Y-77857142D01*
X77488095Y-77761904D01*
X77488095Y-77666666D01*
X77440476Y-77571428D01*
X77392857Y-77523809D01*
X77297619Y-77476190D01*
X77107142Y-77428571D01*
X77011904Y-77380952D01*
X76964285Y-77333333D01*
X76916666Y-77238095D01*
X76916666Y-77142857D01*
X76964285Y-77047619D01*
X77011904Y-77000000D01*
X77107142Y-76952380D01*
X77345238Y-76952380D01*
X77488095Y-77000000D01*
X77821428Y-76952380D02*
X78059523Y-77952380D01*
X78250000Y-77238095D01*
X78440476Y-77952380D01*
X78678571Y-76952380D01*
X79583333Y-77952380D02*
X79011904Y-77952380D01*
X79297619Y-77952380D02*
X79297619Y-76952380D01*
X79202380Y-77095238D01*
X79107142Y-77190476D01*
X79011904Y-77238095D01*
X57416666Y-77904761D02*
X57559523Y-77952380D01*
X57797619Y-77952380D01*
X57892857Y-77904761D01*
X57940476Y-77857142D01*
X57988095Y-77761904D01*
X57988095Y-77666666D01*
X57940476Y-77571428D01*
X57892857Y-77523809D01*
X57797619Y-77476190D01*
X57607142Y-77428571D01*
X57511904Y-77380952D01*
X57464285Y-77333333D01*
X57416666Y-77238095D01*
X57416666Y-77142857D01*
X57464285Y-77047619D01*
X57511904Y-77000000D01*
X57607142Y-76952380D01*
X57845238Y-76952380D01*
X57988095Y-77000000D01*
X58321428Y-76952380D02*
X58559523Y-77952380D01*
X58750000Y-77238095D01*
X58940476Y-77952380D01*
X59178571Y-76952380D01*
X59464285Y-76952380D02*
X60083333Y-76952380D01*
X59750000Y-77333333D01*
X59892857Y-77333333D01*
X59988095Y-77380952D01*
X60035714Y-77428571D01*
X60083333Y-77523809D01*
X60083333Y-77761904D01*
X60035714Y-77857142D01*
X59988095Y-77904761D01*
X59892857Y-77952380D01*
X59607142Y-77952380D01*
X59511904Y-77904761D01*
X59464285Y-77857142D01*
X82702380Y-66642857D02*
X82226190Y-66976190D01*
X82702380Y-67214285D02*
X81702380Y-67214285D01*
X81702380Y-66833333D01*
X81750000Y-66738095D01*
X81797619Y-66690476D01*
X81892857Y-66642857D01*
X82035714Y-66642857D01*
X82130952Y-66690476D01*
X82178571Y-66738095D01*
X82226190Y-66833333D01*
X82226190Y-67214285D01*
X81702380Y-66309523D02*
X81702380Y-65690476D01*
X82083333Y-66023809D01*
X82083333Y-65880952D01*
X82130952Y-65785714D01*
X82178571Y-65738095D01*
X82273809Y-65690476D01*
X82511904Y-65690476D01*
X82607142Y-65738095D01*
X82654761Y-65785714D01*
X82702380Y-65880952D01*
X82702380Y-66166666D01*
X82654761Y-66261904D01*
X82607142Y-66309523D01*
X81702380Y-64785714D02*
X81702380Y-65261904D01*
X82178571Y-65309523D01*
X82130952Y-65261904D01*
X82083333Y-65166666D01*
X82083333Y-64928571D01*
X82130952Y-64833333D01*
X82178571Y-64785714D01*
X82273809Y-64738095D01*
X82511904Y-64738095D01*
X82607142Y-64785714D01*
X82654761Y-64833333D01*
X82702380Y-64928571D01*
X82702380Y-65166666D01*
X82654761Y-65261904D01*
X82607142Y-65309523D01*
X58912380Y-25708333D02*
X59626666Y-25708333D01*
X59769523Y-25755952D01*
X59864761Y-25851190D01*
X59912380Y-25994047D01*
X59912380Y-26089285D01*
X58912380Y-25327380D02*
X58912380Y-24660714D01*
X59912380Y-25089285D01*
X98852380Y-40738095D02*
X97852380Y-40738095D01*
X97852380Y-40500000D01*
X97900000Y-40357142D01*
X97995238Y-40261904D01*
X98090476Y-40214285D01*
X98280952Y-40166666D01*
X98423809Y-40166666D01*
X98614285Y-40214285D01*
X98709523Y-40261904D01*
X98804761Y-40357142D01*
X98852380Y-40500000D01*
X98852380Y-40738095D01*
X98185714Y-39309523D02*
X98852380Y-39309523D01*
X97804761Y-39547619D02*
X98519047Y-39785714D01*
X98519047Y-39166666D01*
X103833333Y-35952380D02*
X103357142Y-35952380D01*
X103357142Y-34952380D01*
X104642857Y-34952380D02*
X104166666Y-34952380D01*
X104119047Y-35428571D01*
X104166666Y-35380952D01*
X104261904Y-35333333D01*
X104500000Y-35333333D01*
X104595238Y-35380952D01*
X104642857Y-35428571D01*
X104690476Y-35523809D01*
X104690476Y-35761904D01*
X104642857Y-35857142D01*
X104595238Y-35904761D01*
X104500000Y-35952380D01*
X104261904Y-35952380D01*
X104166666Y-35904761D01*
X104119047Y-35857142D01*
X108537142Y-43642857D02*
X108584761Y-43690476D01*
X108632380Y-43833333D01*
X108632380Y-43928571D01*
X108584761Y-44071428D01*
X108489523Y-44166666D01*
X108394285Y-44214285D01*
X108203809Y-44261904D01*
X108060952Y-44261904D01*
X107870476Y-44214285D01*
X107775238Y-44166666D01*
X107680000Y-44071428D01*
X107632380Y-43928571D01*
X107632380Y-43833333D01*
X107680000Y-43690476D01*
X107727619Y-43642857D01*
X107727619Y-43261904D02*
X107680000Y-43214285D01*
X107632380Y-43119047D01*
X107632380Y-42880952D01*
X107680000Y-42785714D01*
X107727619Y-42738095D01*
X107822857Y-42690476D01*
X107918095Y-42690476D01*
X108060952Y-42738095D01*
X108632380Y-43309523D01*
X108632380Y-42690476D01*
X107727619Y-42309523D02*
X107680000Y-42261904D01*
X107632380Y-42166666D01*
X107632380Y-41928571D01*
X107680000Y-41833333D01*
X107727619Y-41785714D01*
X107822857Y-41738095D01*
X107918095Y-41738095D01*
X108060952Y-41785714D01*
X108632380Y-42357142D01*
X108632380Y-41738095D01*
X113202380Y-59392857D02*
X112726190Y-59726190D01*
X113202380Y-59964285D02*
X112202380Y-59964285D01*
X112202380Y-59583333D01*
X112250000Y-59488095D01*
X112297619Y-59440476D01*
X112392857Y-59392857D01*
X112535714Y-59392857D01*
X112630952Y-59440476D01*
X112678571Y-59488095D01*
X112726190Y-59583333D01*
X112726190Y-59964285D01*
X113202380Y-58440476D02*
X113202380Y-59011904D01*
X113202380Y-58726190D02*
X112202380Y-58726190D01*
X112345238Y-58821428D01*
X112440476Y-58916666D01*
X112488095Y-59011904D01*
X113202380Y-57964285D02*
X113202380Y-57773809D01*
X113154761Y-57678571D01*
X113107142Y-57630952D01*
X112964285Y-57535714D01*
X112773809Y-57488095D01*
X112392857Y-57488095D01*
X112297619Y-57535714D01*
X112250000Y-57583333D01*
X112202380Y-57678571D01*
X112202380Y-57869047D01*
X112250000Y-57964285D01*
X112297619Y-58011904D01*
X112392857Y-58059523D01*
X112630952Y-58059523D01*
X112726190Y-58011904D01*
X112773809Y-57964285D01*
X112821428Y-57869047D01*
X112821428Y-57678571D01*
X112773809Y-57583333D01*
X112726190Y-57535714D01*
X112630952Y-57488095D01*
X124607142Y-46107142D02*
X124559523Y-46154761D01*
X124416666Y-46202380D01*
X124321428Y-46202380D01*
X124178571Y-46154761D01*
X124083333Y-46059523D01*
X124035714Y-45964285D01*
X123988095Y-45773809D01*
X123988095Y-45630952D01*
X124035714Y-45440476D01*
X124083333Y-45345238D01*
X124178571Y-45250000D01*
X124321428Y-45202380D01*
X124416666Y-45202380D01*
X124559523Y-45250000D01*
X124607142Y-45297619D01*
X125559523Y-46202380D02*
X124988095Y-46202380D01*
X125273809Y-46202380D02*
X125273809Y-45202380D01*
X125178571Y-45345238D01*
X125083333Y-45440476D01*
X124988095Y-45488095D01*
X126416666Y-45535714D02*
X126416666Y-46202380D01*
X126178571Y-45154761D02*
X125940476Y-45869047D01*
X126559523Y-45869047D01*
X116988095Y-33702380D02*
X116988095Y-34511904D01*
X117035714Y-34607142D01*
X117083333Y-34654761D01*
X117178571Y-34702380D01*
X117369047Y-34702380D01*
X117464285Y-34654761D01*
X117511904Y-34607142D01*
X117559523Y-34511904D01*
X117559523Y-33702380D01*
X117940476Y-33702380D02*
X118607142Y-33702380D01*
X118178571Y-34702380D01*
X110202380Y-59392857D02*
X109726190Y-59726190D01*
X110202380Y-59964285D02*
X109202380Y-59964285D01*
X109202380Y-59583333D01*
X109250000Y-59488095D01*
X109297619Y-59440476D01*
X109392857Y-59392857D01*
X109535714Y-59392857D01*
X109630952Y-59440476D01*
X109678571Y-59488095D01*
X109726190Y-59583333D01*
X109726190Y-59964285D01*
X109297619Y-59011904D02*
X109250000Y-58964285D01*
X109202380Y-58869047D01*
X109202380Y-58630952D01*
X109250000Y-58535714D01*
X109297619Y-58488095D01*
X109392857Y-58440476D01*
X109488095Y-58440476D01*
X109630952Y-58488095D01*
X110202380Y-59059523D01*
X110202380Y-58440476D01*
X109202380Y-58107142D02*
X109202380Y-57488095D01*
X109583333Y-57821428D01*
X109583333Y-57678571D01*
X109630952Y-57583333D01*
X109678571Y-57535714D01*
X109773809Y-57488095D01*
X110011904Y-57488095D01*
X110107142Y-57535714D01*
X110154761Y-57583333D01*
X110202380Y-57678571D01*
X110202380Y-57964285D01*
X110154761Y-58059523D01*
X110107142Y-58107142D01*
X128416666Y-59622380D02*
X128416666Y-60336666D01*
X128369047Y-60479523D01*
X128273809Y-60574761D01*
X128130952Y-60622380D01*
X128035714Y-60622380D01*
X129321428Y-59955714D02*
X129321428Y-60622380D01*
X129083333Y-59574761D02*
X128845238Y-60289047D01*
X129464285Y-60289047D01*
X109357142Y-64702380D02*
X109023809Y-64226190D01*
X108785714Y-64702380D02*
X108785714Y-63702380D01*
X109166666Y-63702380D01*
X109261904Y-63750000D01*
X109309523Y-63797619D01*
X109357142Y-63892857D01*
X109357142Y-64035714D01*
X109309523Y-64130952D01*
X109261904Y-64178571D01*
X109166666Y-64226190D01*
X108785714Y-64226190D01*
X109738095Y-63797619D02*
X109785714Y-63750000D01*
X109880952Y-63702380D01*
X110119047Y-63702380D01*
X110214285Y-63750000D01*
X110261904Y-63797619D01*
X110309523Y-63892857D01*
X110309523Y-63988095D01*
X110261904Y-64130952D01*
X109690476Y-64702380D01*
X110309523Y-64702380D01*
X110690476Y-63797619D02*
X110738095Y-63750000D01*
X110833333Y-63702380D01*
X111071428Y-63702380D01*
X111166666Y-63750000D01*
X111214285Y-63797619D01*
X111261904Y-63892857D01*
X111261904Y-63988095D01*
X111214285Y-64130952D01*
X110642857Y-64702380D01*
X111261904Y-64702380D01*
X88022380Y-79416666D02*
X87546190Y-79750000D01*
X88022380Y-79988095D02*
X87022380Y-79988095D01*
X87022380Y-79607142D01*
X87070000Y-79511904D01*
X87117619Y-79464285D01*
X87212857Y-79416666D01*
X87355714Y-79416666D01*
X87450952Y-79464285D01*
X87498571Y-79511904D01*
X87546190Y-79607142D01*
X87546190Y-79988095D01*
X87355714Y-78559523D02*
X88022380Y-78559523D01*
X86974761Y-78797619D02*
X87689047Y-79035714D01*
X87689047Y-78416666D01*
X71607142Y-63202380D02*
X71273809Y-62726190D01*
X71035714Y-63202380D02*
X71035714Y-62202380D01*
X71416666Y-62202380D01*
X71511904Y-62250000D01*
X71559523Y-62297619D01*
X71607142Y-62392857D01*
X71607142Y-62535714D01*
X71559523Y-62630952D01*
X71511904Y-62678571D01*
X71416666Y-62726190D01*
X71035714Y-62726190D01*
X71940476Y-62202380D02*
X72559523Y-62202380D01*
X72226190Y-62583333D01*
X72369047Y-62583333D01*
X72464285Y-62630952D01*
X72511904Y-62678571D01*
X72559523Y-62773809D01*
X72559523Y-63011904D01*
X72511904Y-63107142D01*
X72464285Y-63154761D01*
X72369047Y-63202380D01*
X72083333Y-63202380D01*
X71988095Y-63154761D01*
X71940476Y-63107142D01*
X72892857Y-62202380D02*
X73559523Y-62202380D01*
X73130952Y-63202380D01*
X64607142Y-76142857D02*
X64654761Y-76190476D01*
X64702380Y-76333333D01*
X64702380Y-76428571D01*
X64654761Y-76571428D01*
X64559523Y-76666666D01*
X64464285Y-76714285D01*
X64273809Y-76761904D01*
X64130952Y-76761904D01*
X63940476Y-76714285D01*
X63845238Y-76666666D01*
X63750000Y-76571428D01*
X63702380Y-76428571D01*
X63702380Y-76333333D01*
X63750000Y-76190476D01*
X63797619Y-76142857D01*
X63797619Y-75761904D02*
X63750000Y-75714285D01*
X63702380Y-75619047D01*
X63702380Y-75380952D01*
X63750000Y-75285714D01*
X63797619Y-75238095D01*
X63892857Y-75190476D01*
X63988095Y-75190476D01*
X64130952Y-75238095D01*
X64702380Y-75809523D01*
X64702380Y-75190476D01*
X64702380Y-74238095D02*
X64702380Y-74809523D01*
X64702380Y-74523809D02*
X63702380Y-74523809D01*
X63845238Y-74619047D01*
X63940476Y-74714285D01*
X63988095Y-74809523D01*
X111702380Y-45142857D02*
X111226190Y-45476190D01*
X111702380Y-45714285D02*
X110702380Y-45714285D01*
X110702380Y-45333333D01*
X110750000Y-45238095D01*
X110797619Y-45190476D01*
X110892857Y-45142857D01*
X111035714Y-45142857D01*
X111130952Y-45190476D01*
X111178571Y-45238095D01*
X111226190Y-45333333D01*
X111226190Y-45714285D01*
X110797619Y-44761904D02*
X110750000Y-44714285D01*
X110702380Y-44619047D01*
X110702380Y-44380952D01*
X110750000Y-44285714D01*
X110797619Y-44238095D01*
X110892857Y-44190476D01*
X110988095Y-44190476D01*
X111130952Y-44238095D01*
X111702380Y-44809523D01*
X111702380Y-44190476D01*
X111702380Y-43714285D02*
X111702380Y-43523809D01*
X111654761Y-43428571D01*
X111607142Y-43380952D01*
X111464285Y-43285714D01*
X111273809Y-43238095D01*
X110892857Y-43238095D01*
X110797619Y-43285714D01*
X110750000Y-43333333D01*
X110702380Y-43428571D01*
X110702380Y-43619047D01*
X110750000Y-43714285D01*
X110797619Y-43761904D01*
X110892857Y-43809523D01*
X111130952Y-43809523D01*
X111226190Y-43761904D01*
X111273809Y-43714285D01*
X111321428Y-43619047D01*
X111321428Y-43428571D01*
X111273809Y-43333333D01*
X111226190Y-43285714D01*
X111130952Y-43238095D01*
X132452380Y-33642857D02*
X131976190Y-33976190D01*
X132452380Y-34214285D02*
X131452380Y-34214285D01*
X131452380Y-33833333D01*
X131500000Y-33738095D01*
X131547619Y-33690476D01*
X131642857Y-33642857D01*
X131785714Y-33642857D01*
X131880952Y-33690476D01*
X131928571Y-33738095D01*
X131976190Y-33833333D01*
X131976190Y-34214285D01*
X132452380Y-32690476D02*
X132452380Y-33261904D01*
X132452380Y-32976190D02*
X131452380Y-32976190D01*
X131595238Y-33071428D01*
X131690476Y-33166666D01*
X131738095Y-33261904D01*
X131452380Y-32357142D02*
X131452380Y-31738095D01*
X131833333Y-32071428D01*
X131833333Y-31928571D01*
X131880952Y-31833333D01*
X131928571Y-31785714D01*
X132023809Y-31738095D01*
X132261904Y-31738095D01*
X132357142Y-31785714D01*
X132404761Y-31833333D01*
X132452380Y-31928571D01*
X132452380Y-32214285D01*
X132404761Y-32309523D01*
X132357142Y-32357142D01*
X126238095Y-55452380D02*
X126238095Y-56261904D01*
X126285714Y-56357142D01*
X126333333Y-56404761D01*
X126428571Y-56452380D01*
X126619047Y-56452380D01*
X126714285Y-56404761D01*
X126761904Y-56357142D01*
X126809523Y-56261904D01*
X126809523Y-55452380D01*
X127190476Y-55452380D02*
X127809523Y-55452380D01*
X127476190Y-55833333D01*
X127619047Y-55833333D01*
X127714285Y-55880952D01*
X127761904Y-55928571D01*
X127809523Y-56023809D01*
X127809523Y-56261904D01*
X127761904Y-56357142D01*
X127714285Y-56404761D01*
X127619047Y-56452380D01*
X127333333Y-56452380D01*
X127238095Y-56404761D01*
X127190476Y-56357142D01*
X91022380Y-83738095D02*
X90022380Y-83738095D01*
X90022380Y-83500000D01*
X90070000Y-83357142D01*
X90165238Y-83261904D01*
X90260476Y-83214285D01*
X90450952Y-83166666D01*
X90593809Y-83166666D01*
X90784285Y-83214285D01*
X90879523Y-83261904D01*
X90974761Y-83357142D01*
X91022380Y-83500000D01*
X91022380Y-83738095D01*
X91022380Y-82214285D02*
X91022380Y-82785714D01*
X91022380Y-82500000D02*
X90022380Y-82500000D01*
X90165238Y-82595238D01*
X90260476Y-82690476D01*
X90308095Y-82785714D01*
X115607142Y-68416666D02*
X115654761Y-68464285D01*
X115702380Y-68607142D01*
X115702380Y-68702380D01*
X115654761Y-68845238D01*
X115559523Y-68940476D01*
X115464285Y-68988095D01*
X115273809Y-69035714D01*
X115130952Y-69035714D01*
X114940476Y-68988095D01*
X114845238Y-68940476D01*
X114750000Y-68845238D01*
X114702380Y-68702380D01*
X114702380Y-68607142D01*
X114750000Y-68464285D01*
X114797619Y-68416666D01*
X114702380Y-68083333D02*
X114702380Y-67464285D01*
X115083333Y-67797619D01*
X115083333Y-67654761D01*
X115130952Y-67559523D01*
X115178571Y-67511904D01*
X115273809Y-67464285D01*
X115511904Y-67464285D01*
X115607142Y-67511904D01*
X115654761Y-67559523D01*
X115702380Y-67654761D01*
X115702380Y-67940476D01*
X115654761Y-68035714D01*
X115607142Y-68083333D01*
X65916666Y-75428571D02*
X65583333Y-75428571D01*
X65583333Y-75952380D02*
X65583333Y-74952380D01*
X66059523Y-74952380D01*
X66773809Y-75428571D02*
X66916666Y-75476190D01*
X66964285Y-75523809D01*
X67011904Y-75619047D01*
X67011904Y-75761904D01*
X66964285Y-75857142D01*
X66916666Y-75904761D01*
X66821428Y-75952380D01*
X66440476Y-75952380D01*
X66440476Y-74952380D01*
X66773809Y-74952380D01*
X66869047Y-75000000D01*
X66916666Y-75047619D01*
X66964285Y-75142857D01*
X66964285Y-75238095D01*
X66916666Y-75333333D01*
X66869047Y-75380952D01*
X66773809Y-75428571D01*
X66440476Y-75428571D01*
X67964285Y-75952380D02*
X67392857Y-75952380D01*
X67678571Y-75952380D02*
X67678571Y-74952380D01*
X67583333Y-75095238D01*
X67488095Y-75190476D01*
X67392857Y-75238095D01*
X130333333Y-69952380D02*
X129857142Y-69952380D01*
X129857142Y-68952380D01*
X131190476Y-69952380D02*
X130619047Y-69952380D01*
X130904761Y-69952380D02*
X130904761Y-68952380D01*
X130809523Y-69095238D01*
X130714285Y-69190476D01*
X130619047Y-69238095D01*
X129357142Y-56642857D02*
X129404761Y-56690476D01*
X129452380Y-56833333D01*
X129452380Y-56928571D01*
X129404761Y-57071428D01*
X129309523Y-57166666D01*
X129214285Y-57214285D01*
X129023809Y-57261904D01*
X128880952Y-57261904D01*
X128690476Y-57214285D01*
X128595238Y-57166666D01*
X128500000Y-57071428D01*
X128452380Y-56928571D01*
X128452380Y-56833333D01*
X128500000Y-56690476D01*
X128547619Y-56642857D01*
X129452380Y-55690476D02*
X129452380Y-56261904D01*
X129452380Y-55976190D02*
X128452380Y-55976190D01*
X128595238Y-56071428D01*
X128690476Y-56166666D01*
X128738095Y-56261904D01*
X128452380Y-55071428D02*
X128452380Y-54976190D01*
X128500000Y-54880952D01*
X128547619Y-54833333D01*
X128642857Y-54785714D01*
X128833333Y-54738095D01*
X129071428Y-54738095D01*
X129261904Y-54785714D01*
X129357142Y-54833333D01*
X129404761Y-54880952D01*
X129452380Y-54976190D01*
X129452380Y-55071428D01*
X129404761Y-55166666D01*
X129357142Y-55214285D01*
X129261904Y-55261904D01*
X129071428Y-55309523D01*
X128833333Y-55309523D01*
X128642857Y-55261904D01*
X128547619Y-55214285D01*
X128500000Y-55166666D01*
X128452380Y-55071428D01*
X103238095Y-44952380D02*
X103238095Y-45761904D01*
X103285714Y-45857142D01*
X103333333Y-45904761D01*
X103428571Y-45952380D01*
X103619047Y-45952380D01*
X103714285Y-45904761D01*
X103761904Y-45857142D01*
X103809523Y-45761904D01*
X103809523Y-44952380D01*
X104761904Y-44952380D02*
X104285714Y-44952380D01*
X104238095Y-45428571D01*
X104285714Y-45380952D01*
X104380952Y-45333333D01*
X104619047Y-45333333D01*
X104714285Y-45380952D01*
X104761904Y-45428571D01*
X104809523Y-45523809D01*
X104809523Y-45761904D01*
X104761904Y-45857142D01*
X104714285Y-45904761D01*
X104619047Y-45952380D01*
X104380952Y-45952380D01*
X104285714Y-45904761D01*
X104238095Y-45857142D01*
X130583333Y-55952380D02*
X130107142Y-55952380D01*
X130107142Y-54952380D01*
X130821428Y-54952380D02*
X131440476Y-54952380D01*
X131107142Y-55333333D01*
X131250000Y-55333333D01*
X131345238Y-55380952D01*
X131392857Y-55428571D01*
X131440476Y-55523809D01*
X131440476Y-55761904D01*
X131392857Y-55857142D01*
X131345238Y-55904761D01*
X131250000Y-55952380D01*
X130964285Y-55952380D01*
X130869047Y-55904761D01*
X130821428Y-55857142D01*
X130583333Y-57202380D02*
X130107142Y-57202380D01*
X130107142Y-56202380D01*
X131345238Y-56535714D02*
X131345238Y-57202380D01*
X131107142Y-56154761D02*
X130869047Y-56869047D01*
X131488095Y-56869047D01*
X70107142Y-62392857D02*
X70154761Y-62440476D01*
X70202380Y-62583333D01*
X70202380Y-62678571D01*
X70154761Y-62821428D01*
X70059523Y-62916666D01*
X69964285Y-62964285D01*
X69773809Y-63011904D01*
X69630952Y-63011904D01*
X69440476Y-62964285D01*
X69345238Y-62916666D01*
X69250000Y-62821428D01*
X69202380Y-62678571D01*
X69202380Y-62583333D01*
X69250000Y-62440476D01*
X69297619Y-62392857D01*
X70202380Y-61440476D02*
X70202380Y-62011904D01*
X70202380Y-61726190D02*
X69202380Y-61726190D01*
X69345238Y-61821428D01*
X69440476Y-61916666D01*
X69488095Y-62011904D01*
X69202380Y-60583333D02*
X69202380Y-60773809D01*
X69250000Y-60869047D01*
X69297619Y-60916666D01*
X69440476Y-61011904D01*
X69630952Y-61059523D01*
X70011904Y-61059523D01*
X70107142Y-61011904D01*
X70154761Y-60964285D01*
X70202380Y-60869047D01*
X70202380Y-60678571D01*
X70154761Y-60583333D01*
X70107142Y-60535714D01*
X70011904Y-60488095D01*
X69773809Y-60488095D01*
X69678571Y-60535714D01*
X69630952Y-60583333D01*
X69583333Y-60678571D01*
X69583333Y-60869047D01*
X69630952Y-60964285D01*
X69678571Y-61011904D01*
X69773809Y-61059523D01*
X116166666Y-69452380D02*
X116166666Y-70166666D01*
X116119047Y-70309523D01*
X116023809Y-70404761D01*
X115880952Y-70452380D01*
X115785714Y-70452380D01*
X116642857Y-70452380D02*
X116642857Y-69452380D01*
X117023809Y-69452380D01*
X117119047Y-69500000D01*
X117166666Y-69547619D01*
X117214285Y-69642857D01*
X117214285Y-69785714D01*
X117166666Y-69880952D01*
X117119047Y-69928571D01*
X117023809Y-69976190D01*
X116642857Y-69976190D01*
X117547619Y-69452380D02*
X118166666Y-69452380D01*
X117833333Y-69833333D01*
X117976190Y-69833333D01*
X118071428Y-69880952D01*
X118119047Y-69928571D01*
X118166666Y-70023809D01*
X118166666Y-70261904D01*
X118119047Y-70357142D01*
X118071428Y-70404761D01*
X117976190Y-70452380D01*
X117690476Y-70452380D01*
X117595238Y-70404761D01*
X117547619Y-70357142D01*
X128357142Y-58357142D02*
X128309523Y-58404761D01*
X128166666Y-58452380D01*
X128071428Y-58452380D01*
X127928571Y-58404761D01*
X127833333Y-58309523D01*
X127785714Y-58214285D01*
X127738095Y-58023809D01*
X127738095Y-57880952D01*
X127785714Y-57690476D01*
X127833333Y-57595238D01*
X127928571Y-57500000D01*
X128071428Y-57452380D01*
X128166666Y-57452380D01*
X128309523Y-57500000D01*
X128357142Y-57547619D01*
X129309523Y-58452380D02*
X128738095Y-58452380D01*
X129023809Y-58452380D02*
X129023809Y-57452380D01*
X128928571Y-57595238D01*
X128833333Y-57690476D01*
X128738095Y-57738095D01*
X129690476Y-57547619D02*
X129738095Y-57500000D01*
X129833333Y-57452380D01*
X130071428Y-57452380D01*
X130166666Y-57500000D01*
X130214285Y-57547619D01*
X130261904Y-57642857D01*
X130261904Y-57738095D01*
X130214285Y-57880952D01*
X129642857Y-58452380D01*
X130261904Y-58452380D01*
X93662380Y-33353333D02*
X94376666Y-33353333D01*
X94519523Y-33400952D01*
X94614761Y-33496190D01*
X94662380Y-33639047D01*
X94662380Y-33734285D01*
X94662380Y-32353333D02*
X94662380Y-32924761D01*
X94662380Y-32639047D02*
X93662380Y-32639047D01*
X93805238Y-32734285D01*
X93900476Y-32829523D01*
X93948095Y-32924761D01*
X73702380Y-76892857D02*
X73226190Y-77226190D01*
X73702380Y-77464285D02*
X72702380Y-77464285D01*
X72702380Y-77083333D01*
X72750000Y-76988095D01*
X72797619Y-76940476D01*
X72892857Y-76892857D01*
X73035714Y-76892857D01*
X73130952Y-76940476D01*
X73178571Y-76988095D01*
X73226190Y-77083333D01*
X73226190Y-77464285D01*
X72702380Y-76559523D02*
X72702380Y-75940476D01*
X73083333Y-76273809D01*
X73083333Y-76130952D01*
X73130952Y-76035714D01*
X73178571Y-75988095D01*
X73273809Y-75940476D01*
X73511904Y-75940476D01*
X73607142Y-75988095D01*
X73654761Y-76035714D01*
X73702380Y-76130952D01*
X73702380Y-76416666D01*
X73654761Y-76511904D01*
X73607142Y-76559523D01*
X73702380Y-75464285D02*
X73702380Y-75273809D01*
X73654761Y-75178571D01*
X73607142Y-75130952D01*
X73464285Y-75035714D01*
X73273809Y-74988095D01*
X72892857Y-74988095D01*
X72797619Y-75035714D01*
X72750000Y-75083333D01*
X72702380Y-75178571D01*
X72702380Y-75369047D01*
X72750000Y-75464285D01*
X72797619Y-75511904D01*
X72892857Y-75559523D01*
X73130952Y-75559523D01*
X73226190Y-75511904D01*
X73273809Y-75464285D01*
X73321428Y-75369047D01*
X73321428Y-75178571D01*
X73273809Y-75083333D01*
X73226190Y-75035714D01*
X73130952Y-74988095D01*
X118416666Y-56702380D02*
X118416666Y-57416666D01*
X118369047Y-57559523D01*
X118273809Y-57654761D01*
X118130952Y-57702380D01*
X118035714Y-57702380D01*
X118892857Y-57702380D02*
X118892857Y-56702380D01*
X119273809Y-56702380D01*
X119369047Y-56750000D01*
X119416666Y-56797619D01*
X119464285Y-56892857D01*
X119464285Y-57035714D01*
X119416666Y-57130952D01*
X119369047Y-57178571D01*
X119273809Y-57226190D01*
X118892857Y-57226190D01*
X119845238Y-56797619D02*
X119892857Y-56750000D01*
X119988095Y-56702380D01*
X120226190Y-56702380D01*
X120321428Y-56750000D01*
X120369047Y-56797619D01*
X120416666Y-56892857D01*
X120416666Y-56988095D01*
X120369047Y-57130952D01*
X119797619Y-57702380D01*
X120416666Y-57702380D01*
X124357142Y-44702380D02*
X124023809Y-44226190D01*
X123785714Y-44702380D02*
X123785714Y-43702380D01*
X124166666Y-43702380D01*
X124261904Y-43750000D01*
X124309523Y-43797619D01*
X124357142Y-43892857D01*
X124357142Y-44035714D01*
X124309523Y-44130952D01*
X124261904Y-44178571D01*
X124166666Y-44226190D01*
X123785714Y-44226190D01*
X124738095Y-43797619D02*
X124785714Y-43750000D01*
X124880952Y-43702380D01*
X125119047Y-43702380D01*
X125214285Y-43750000D01*
X125261904Y-43797619D01*
X125309523Y-43892857D01*
X125309523Y-43988095D01*
X125261904Y-44130952D01*
X124690476Y-44702380D01*
X125309523Y-44702380D01*
X126214285Y-43702380D02*
X125738095Y-43702380D01*
X125690476Y-44178571D01*
X125738095Y-44130952D01*
X125833333Y-44083333D01*
X126071428Y-44083333D01*
X126166666Y-44130952D01*
X126214285Y-44178571D01*
X126261904Y-44273809D01*
X126261904Y-44511904D01*
X126214285Y-44607142D01*
X126166666Y-44654761D01*
X126071428Y-44702380D01*
X125833333Y-44702380D01*
X125738095Y-44654761D01*
X125690476Y-44607142D01*
X72202380Y-76892857D02*
X71726190Y-77226190D01*
X72202380Y-77464285D02*
X71202380Y-77464285D01*
X71202380Y-77083333D01*
X71250000Y-76988095D01*
X71297619Y-76940476D01*
X71392857Y-76892857D01*
X71535714Y-76892857D01*
X71630952Y-76940476D01*
X71678571Y-76988095D01*
X71726190Y-77083333D01*
X71726190Y-77464285D01*
X71535714Y-76035714D02*
X72202380Y-76035714D01*
X71154761Y-76273809D02*
X71869047Y-76511904D01*
X71869047Y-75892857D01*
X71202380Y-75321428D02*
X71202380Y-75226190D01*
X71250000Y-75130952D01*
X71297619Y-75083333D01*
X71392857Y-75035714D01*
X71583333Y-74988095D01*
X71821428Y-74988095D01*
X72011904Y-75035714D01*
X72107142Y-75083333D01*
X72154761Y-75130952D01*
X72202380Y-75226190D01*
X72202380Y-75321428D01*
X72154761Y-75416666D01*
X72107142Y-75464285D01*
X72011904Y-75511904D01*
X71821428Y-75559523D01*
X71583333Y-75559523D01*
X71392857Y-75511904D01*
X71297619Y-75464285D01*
X71250000Y-75416666D01*
X71202380Y-75321428D01*
X62678571Y-76583333D02*
X62678571Y-76916666D01*
X63202380Y-76916666D02*
X62202380Y-76916666D01*
X62202380Y-76440476D01*
X62678571Y-75726190D02*
X62726190Y-75583333D01*
X62773809Y-75535714D01*
X62869047Y-75488095D01*
X63011904Y-75488095D01*
X63107142Y-75535714D01*
X63154761Y-75583333D01*
X63202380Y-75678571D01*
X63202380Y-76059523D01*
X62202380Y-76059523D01*
X62202380Y-75726190D01*
X62250000Y-75630952D01*
X62297619Y-75583333D01*
X62392857Y-75535714D01*
X62488095Y-75535714D01*
X62583333Y-75583333D01*
X62630952Y-75630952D01*
X62678571Y-75726190D01*
X62678571Y-76059523D01*
X62297619Y-75107142D02*
X62250000Y-75059523D01*
X62202380Y-74964285D01*
X62202380Y-74726190D01*
X62250000Y-74630952D01*
X62297619Y-74583333D01*
X62392857Y-74535714D01*
X62488095Y-74535714D01*
X62630952Y-74583333D01*
X63202380Y-75154761D01*
X63202380Y-74535714D01*
X66666666Y-77904761D02*
X66809523Y-77952380D01*
X67047619Y-77952380D01*
X67142857Y-77904761D01*
X67190476Y-77857142D01*
X67238095Y-77761904D01*
X67238095Y-77666666D01*
X67190476Y-77571428D01*
X67142857Y-77523809D01*
X67047619Y-77476190D01*
X66857142Y-77428571D01*
X66761904Y-77380952D01*
X66714285Y-77333333D01*
X66666666Y-77238095D01*
X66666666Y-77142857D01*
X66714285Y-77047619D01*
X66761904Y-77000000D01*
X66857142Y-76952380D01*
X67095238Y-76952380D01*
X67238095Y-77000000D01*
X67571428Y-76952380D02*
X67809523Y-77952380D01*
X68000000Y-77238095D01*
X68190476Y-77952380D01*
X68428571Y-76952380D01*
X68761904Y-77047619D02*
X68809523Y-77000000D01*
X68904761Y-76952380D01*
X69142857Y-76952380D01*
X69238095Y-77000000D01*
X69285714Y-77047619D01*
X69333333Y-77142857D01*
X69333333Y-77238095D01*
X69285714Y-77380952D01*
X68714285Y-77952380D01*
X69333333Y-77952380D01*
X70607142Y-76892857D02*
X70654761Y-76940476D01*
X70702380Y-77083333D01*
X70702380Y-77178571D01*
X70654761Y-77321428D01*
X70559523Y-77416666D01*
X70464285Y-77464285D01*
X70273809Y-77511904D01*
X70130952Y-77511904D01*
X69940476Y-77464285D01*
X69845238Y-77416666D01*
X69750000Y-77321428D01*
X69702380Y-77178571D01*
X69702380Y-77083333D01*
X69750000Y-76940476D01*
X69797619Y-76892857D01*
X70702380Y-75940476D02*
X70702380Y-76511904D01*
X70702380Y-76226190D02*
X69702380Y-76226190D01*
X69845238Y-76321428D01*
X69940476Y-76416666D01*
X69988095Y-76511904D01*
X70702380Y-75464285D02*
X70702380Y-75273809D01*
X70654761Y-75178571D01*
X70607142Y-75130952D01*
X70464285Y-75035714D01*
X70273809Y-74988095D01*
X69892857Y-74988095D01*
X69797619Y-75035714D01*
X69750000Y-75083333D01*
X69702380Y-75178571D01*
X69702380Y-75369047D01*
X69750000Y-75464285D01*
X69797619Y-75511904D01*
X69892857Y-75559523D01*
X70130952Y-75559523D01*
X70226190Y-75511904D01*
X70273809Y-75464285D01*
X70321428Y-75369047D01*
X70321428Y-75178571D01*
X70273809Y-75083333D01*
X70226190Y-75035714D01*
X70130952Y-74988095D01*
X121357142Y-70132380D02*
X121023809Y-69656190D01*
X120785714Y-70132380D02*
X120785714Y-69132380D01*
X121166666Y-69132380D01*
X121261904Y-69180000D01*
X121309523Y-69227619D01*
X121357142Y-69322857D01*
X121357142Y-69465714D01*
X121309523Y-69560952D01*
X121261904Y-69608571D01*
X121166666Y-69656190D01*
X120785714Y-69656190D01*
X122309523Y-70132380D02*
X121738095Y-70132380D01*
X122023809Y-70132380D02*
X122023809Y-69132380D01*
X121928571Y-69275238D01*
X121833333Y-69370476D01*
X121738095Y-69418095D01*
X123166666Y-69132380D02*
X122976190Y-69132380D01*
X122880952Y-69180000D01*
X122833333Y-69227619D01*
X122738095Y-69370476D01*
X122690476Y-69560952D01*
X122690476Y-69941904D01*
X122738095Y-70037142D01*
X122785714Y-70084761D01*
X122880952Y-70132380D01*
X123071428Y-70132380D01*
X123166666Y-70084761D01*
X123214285Y-70037142D01*
X123261904Y-69941904D01*
X123261904Y-69703809D01*
X123214285Y-69608571D01*
X123166666Y-69560952D01*
X123071428Y-69513333D01*
X122880952Y-69513333D01*
X122785714Y-69560952D01*
X122738095Y-69608571D01*
X122690476Y-69703809D01*
X111702380Y-59392857D02*
X111226190Y-59726190D01*
X111702380Y-59964285D02*
X110702380Y-59964285D01*
X110702380Y-59583333D01*
X110750000Y-59488095D01*
X110797619Y-59440476D01*
X110892857Y-59392857D01*
X111035714Y-59392857D01*
X111130952Y-59440476D01*
X111178571Y-59488095D01*
X111226190Y-59583333D01*
X111226190Y-59964285D01*
X110797619Y-59011904D02*
X110750000Y-58964285D01*
X110702380Y-58869047D01*
X110702380Y-58630952D01*
X110750000Y-58535714D01*
X110797619Y-58488095D01*
X110892857Y-58440476D01*
X110988095Y-58440476D01*
X111130952Y-58488095D01*
X111702380Y-59059523D01*
X111702380Y-58440476D01*
X111702380Y-57488095D02*
X111702380Y-58059523D01*
X111702380Y-57773809D02*
X110702380Y-57773809D01*
X110845238Y-57869047D01*
X110940476Y-57964285D01*
X110988095Y-58059523D01*
X63857142Y-69857142D02*
X63809523Y-69904761D01*
X63666666Y-69952380D01*
X63571428Y-69952380D01*
X63428571Y-69904761D01*
X63333333Y-69809523D01*
X63285714Y-69714285D01*
X63238095Y-69523809D01*
X63238095Y-69380952D01*
X63285714Y-69190476D01*
X63333333Y-69095238D01*
X63428571Y-69000000D01*
X63571428Y-68952380D01*
X63666666Y-68952380D01*
X63809523Y-69000000D01*
X63857142Y-69047619D01*
X64238095Y-69047619D02*
X64285714Y-69000000D01*
X64380952Y-68952380D01*
X64619047Y-68952380D01*
X64714285Y-69000000D01*
X64761904Y-69047619D01*
X64809523Y-69142857D01*
X64809523Y-69238095D01*
X64761904Y-69380952D01*
X64190476Y-69952380D01*
X64809523Y-69952380D01*
X65428571Y-68952380D02*
X65523809Y-68952380D01*
X65619047Y-69000000D01*
X65666666Y-69047619D01*
X65714285Y-69142857D01*
X65761904Y-69333333D01*
X65761904Y-69571428D01*
X65714285Y-69761904D01*
X65666666Y-69857142D01*
X65619047Y-69904761D01*
X65523809Y-69952380D01*
X65428571Y-69952380D01*
X65333333Y-69904761D01*
X65285714Y-69857142D01*
X65238095Y-69761904D01*
X65190476Y-69571428D01*
X65190476Y-69333333D01*
X65238095Y-69142857D01*
X65285714Y-69047619D01*
X65333333Y-69000000D01*
X65428571Y-68952380D01*
X125083333Y-60607142D02*
X125035714Y-60654761D01*
X124892857Y-60702380D01*
X124797619Y-60702380D01*
X124654761Y-60654761D01*
X124559523Y-60559523D01*
X124511904Y-60464285D01*
X124464285Y-60273809D01*
X124464285Y-60130952D01*
X124511904Y-59940476D01*
X124559523Y-59845238D01*
X124654761Y-59750000D01*
X124797619Y-59702380D01*
X124892857Y-59702380D01*
X125035714Y-59750000D01*
X125083333Y-59797619D01*
X125654761Y-60130952D02*
X125559523Y-60083333D01*
X125511904Y-60035714D01*
X125464285Y-59940476D01*
X125464285Y-59892857D01*
X125511904Y-59797619D01*
X125559523Y-59750000D01*
X125654761Y-59702380D01*
X125845238Y-59702380D01*
X125940476Y-59750000D01*
X125988095Y-59797619D01*
X126035714Y-59892857D01*
X126035714Y-59940476D01*
X125988095Y-60035714D01*
X125940476Y-60083333D01*
X125845238Y-60130952D01*
X125654761Y-60130952D01*
X125559523Y-60178571D01*
X125511904Y-60226190D01*
X125464285Y-60321428D01*
X125464285Y-60511904D01*
X125511904Y-60607142D01*
X125559523Y-60654761D01*
X125654761Y-60702380D01*
X125845238Y-60702380D01*
X125940476Y-60654761D01*
X125988095Y-60607142D01*
X126035714Y-60511904D01*
X126035714Y-60321428D01*
X125988095Y-60226190D01*
X125940476Y-60178571D01*
X125845238Y-60130952D01*
X115583333Y-32452380D02*
X115250000Y-31976190D01*
X115011904Y-32452380D02*
X115011904Y-31452380D01*
X115392857Y-31452380D01*
X115488095Y-31500000D01*
X115535714Y-31547619D01*
X115583333Y-31642857D01*
X115583333Y-31785714D01*
X115535714Y-31880952D01*
X115488095Y-31928571D01*
X115392857Y-31976190D01*
X115011904Y-31976190D01*
X115916666Y-31452380D02*
X116583333Y-31452380D01*
X116154761Y-32452380D01*
X101607142Y-46642857D02*
X101654761Y-46690476D01*
X101702380Y-46833333D01*
X101702380Y-46928571D01*
X101654761Y-47071428D01*
X101559523Y-47166666D01*
X101464285Y-47214285D01*
X101273809Y-47261904D01*
X101130952Y-47261904D01*
X100940476Y-47214285D01*
X100845238Y-47166666D01*
X100750000Y-47071428D01*
X100702380Y-46928571D01*
X100702380Y-46833333D01*
X100750000Y-46690476D01*
X100797619Y-46642857D01*
X100797619Y-46261904D02*
X100750000Y-46214285D01*
X100702380Y-46119047D01*
X100702380Y-45880952D01*
X100750000Y-45785714D01*
X100797619Y-45738095D01*
X100892857Y-45690476D01*
X100988095Y-45690476D01*
X101130952Y-45738095D01*
X101702380Y-46309523D01*
X101702380Y-45690476D01*
X100702380Y-45357142D02*
X100702380Y-44738095D01*
X101083333Y-45071428D01*
X101083333Y-44928571D01*
X101130952Y-44833333D01*
X101178571Y-44785714D01*
X101273809Y-44738095D01*
X101511904Y-44738095D01*
X101607142Y-44785714D01*
X101654761Y-44833333D01*
X101702380Y-44928571D01*
X101702380Y-45214285D01*
X101654761Y-45309523D01*
X101607142Y-45357142D01*
X128357142Y-54357142D02*
X128309523Y-54404761D01*
X128166666Y-54452380D01*
X128071428Y-54452380D01*
X127928571Y-54404761D01*
X127833333Y-54309523D01*
X127785714Y-54214285D01*
X127738095Y-54023809D01*
X127738095Y-53880952D01*
X127785714Y-53690476D01*
X127833333Y-53595238D01*
X127928571Y-53500000D01*
X128071428Y-53452380D01*
X128166666Y-53452380D01*
X128309523Y-53500000D01*
X128357142Y-53547619D01*
X129309523Y-54452380D02*
X128738095Y-54452380D01*
X129023809Y-54452380D02*
X129023809Y-53452380D01*
X128928571Y-53595238D01*
X128833333Y-53690476D01*
X128738095Y-53738095D01*
X130261904Y-54452380D02*
X129690476Y-54452380D01*
X129976190Y-54452380D02*
X129976190Y-53452380D01*
X129880952Y-53595238D01*
X129785714Y-53690476D01*
X129690476Y-53738095D01*
X95357142Y-44202380D02*
X95023809Y-43726190D01*
X94785714Y-44202380D02*
X94785714Y-43202380D01*
X95166666Y-43202380D01*
X95261904Y-43250000D01*
X95309523Y-43297619D01*
X95357142Y-43392857D01*
X95357142Y-43535714D01*
X95309523Y-43630952D01*
X95261904Y-43678571D01*
X95166666Y-43726190D01*
X94785714Y-43726190D01*
X96214285Y-43535714D02*
X96214285Y-44202380D01*
X95976190Y-43154761D02*
X95738095Y-43869047D01*
X96357142Y-43869047D01*
X97166666Y-43535714D02*
X97166666Y-44202380D01*
X96928571Y-43154761D02*
X96690476Y-43869047D01*
X97309523Y-43869047D01*
X118416666Y-42452380D02*
X118416666Y-43166666D01*
X118369047Y-43309523D01*
X118273809Y-43404761D01*
X118130952Y-43452380D01*
X118035714Y-43452380D01*
X118892857Y-43452380D02*
X118892857Y-42452380D01*
X119273809Y-42452380D01*
X119369047Y-42500000D01*
X119416666Y-42547619D01*
X119464285Y-42642857D01*
X119464285Y-42785714D01*
X119416666Y-42880952D01*
X119369047Y-42928571D01*
X119273809Y-42976190D01*
X118892857Y-42976190D01*
X120321428Y-42785714D02*
X120321428Y-43452380D01*
X120083333Y-42404761D02*
X119845238Y-43119047D01*
X120464285Y-43119047D01*
X109083333Y-28357142D02*
X109035714Y-28404761D01*
X108892857Y-28452380D01*
X108797619Y-28452380D01*
X108654761Y-28404761D01*
X108559523Y-28309523D01*
X108511904Y-28214285D01*
X108464285Y-28023809D01*
X108464285Y-27880952D01*
X108511904Y-27690476D01*
X108559523Y-27595238D01*
X108654761Y-27500000D01*
X108797619Y-27452380D01*
X108892857Y-27452380D01*
X109035714Y-27500000D01*
X109083333Y-27547619D01*
X109464285Y-27547619D02*
X109511904Y-27500000D01*
X109607142Y-27452380D01*
X109845238Y-27452380D01*
X109940476Y-27500000D01*
X109988095Y-27547619D01*
X110035714Y-27642857D01*
X110035714Y-27738095D01*
X109988095Y-27880952D01*
X109416666Y-28452380D01*
X110035714Y-28452380D01*
X65357142Y-63607142D02*
X65309523Y-63654761D01*
X65166666Y-63702380D01*
X65071428Y-63702380D01*
X64928571Y-63654761D01*
X64833333Y-63559523D01*
X64785714Y-63464285D01*
X64738095Y-63273809D01*
X64738095Y-63130952D01*
X64785714Y-62940476D01*
X64833333Y-62845238D01*
X64928571Y-62750000D01*
X65071428Y-62702380D01*
X65166666Y-62702380D01*
X65309523Y-62750000D01*
X65357142Y-62797619D01*
X66309523Y-63702380D02*
X65738095Y-63702380D01*
X66023809Y-63702380D02*
X66023809Y-62702380D01*
X65928571Y-62845238D01*
X65833333Y-62940476D01*
X65738095Y-62988095D01*
X66642857Y-62702380D02*
X67309523Y-62702380D01*
X66880952Y-63702380D01*
X109357142Y-63202380D02*
X109023809Y-62726190D01*
X108785714Y-63202380D02*
X108785714Y-62202380D01*
X109166666Y-62202380D01*
X109261904Y-62250000D01*
X109309523Y-62297619D01*
X109357142Y-62392857D01*
X109357142Y-62535714D01*
X109309523Y-62630952D01*
X109261904Y-62678571D01*
X109166666Y-62726190D01*
X108785714Y-62726190D01*
X109738095Y-62297619D02*
X109785714Y-62250000D01*
X109880952Y-62202380D01*
X110119047Y-62202380D01*
X110214285Y-62250000D01*
X110261904Y-62297619D01*
X110309523Y-62392857D01*
X110309523Y-62488095D01*
X110261904Y-62630952D01*
X109690476Y-63202380D01*
X110309523Y-63202380D01*
X110928571Y-62202380D02*
X111023809Y-62202380D01*
X111119047Y-62250000D01*
X111166666Y-62297619D01*
X111214285Y-62392857D01*
X111261904Y-62583333D01*
X111261904Y-62821428D01*
X111214285Y-63011904D01*
X111166666Y-63107142D01*
X111119047Y-63154761D01*
X111023809Y-63202380D01*
X110928571Y-63202380D01*
X110833333Y-63154761D01*
X110785714Y-63107142D01*
X110738095Y-63011904D01*
X110690476Y-62821428D01*
X110690476Y-62583333D01*
X110738095Y-62392857D01*
X110785714Y-62297619D01*
X110833333Y-62250000D01*
X110928571Y-62202380D01*
X113202380Y-45142857D02*
X112726190Y-45476190D01*
X113202380Y-45714285D02*
X112202380Y-45714285D01*
X112202380Y-45333333D01*
X112250000Y-45238095D01*
X112297619Y-45190476D01*
X112392857Y-45142857D01*
X112535714Y-45142857D01*
X112630952Y-45190476D01*
X112678571Y-45238095D01*
X112726190Y-45333333D01*
X112726190Y-45714285D01*
X112297619Y-44761904D02*
X112250000Y-44714285D01*
X112202380Y-44619047D01*
X112202380Y-44380952D01*
X112250000Y-44285714D01*
X112297619Y-44238095D01*
X112392857Y-44190476D01*
X112488095Y-44190476D01*
X112630952Y-44238095D01*
X113202380Y-44809523D01*
X113202380Y-44190476D01*
X112202380Y-43857142D02*
X112202380Y-43190476D01*
X113202380Y-43619047D01*
X131952380Y-36392857D02*
X131476190Y-36726190D01*
X131952380Y-36964285D02*
X130952380Y-36964285D01*
X130952380Y-36583333D01*
X131000000Y-36488095D01*
X131047619Y-36440476D01*
X131142857Y-36392857D01*
X131285714Y-36392857D01*
X131380952Y-36440476D01*
X131428571Y-36488095D01*
X131476190Y-36583333D01*
X131476190Y-36964285D01*
X131952380Y-35440476D02*
X131952380Y-36011904D01*
X131952380Y-35726190D02*
X130952380Y-35726190D01*
X131095238Y-35821428D01*
X131190476Y-35916666D01*
X131238095Y-36011904D01*
X131952380Y-34488095D02*
X131952380Y-35059523D01*
X131952380Y-34773809D02*
X130952380Y-34773809D01*
X131095238Y-34869047D01*
X131190476Y-34964285D01*
X131238095Y-35059523D01*
X125488095Y-69702380D02*
X125488095Y-70511904D01*
X125535714Y-70607142D01*
X125583333Y-70654761D01*
X125678571Y-70702380D01*
X125869047Y-70702380D01*
X125964285Y-70654761D01*
X126011904Y-70607142D01*
X126059523Y-70511904D01*
X126059523Y-69702380D01*
X126488095Y-69797619D02*
X126535714Y-69750000D01*
X126630952Y-69702380D01*
X126869047Y-69702380D01*
X126964285Y-69750000D01*
X127011904Y-69797619D01*
X127059523Y-69892857D01*
X127059523Y-69988095D01*
X127011904Y-70130952D01*
X126440476Y-70702380D01*
X127059523Y-70702380D01*
X61537142Y-76392857D02*
X61584761Y-76440476D01*
X61632380Y-76583333D01*
X61632380Y-76678571D01*
X61584761Y-76821428D01*
X61489523Y-76916666D01*
X61394285Y-76964285D01*
X61203809Y-77011904D01*
X61060952Y-77011904D01*
X60870476Y-76964285D01*
X60775238Y-76916666D01*
X60680000Y-76821428D01*
X60632380Y-76678571D01*
X60632380Y-76583333D01*
X60680000Y-76440476D01*
X60727619Y-76392857D01*
X61632380Y-75440476D02*
X61632380Y-76011904D01*
X61632380Y-75726190D02*
X60632380Y-75726190D01*
X60775238Y-75821428D01*
X60870476Y-75916666D01*
X60918095Y-76011904D01*
X61060952Y-74869047D02*
X61013333Y-74964285D01*
X60965714Y-75011904D01*
X60870476Y-75059523D01*
X60822857Y-75059523D01*
X60727619Y-75011904D01*
X60680000Y-74964285D01*
X60632380Y-74869047D01*
X60632380Y-74678571D01*
X60680000Y-74583333D01*
X60727619Y-74535714D01*
X60822857Y-74488095D01*
X60870476Y-74488095D01*
X60965714Y-74535714D01*
X61013333Y-74583333D01*
X61060952Y-74678571D01*
X61060952Y-74869047D01*
X61108571Y-74964285D01*
X61156190Y-75011904D01*
X61251428Y-75059523D01*
X61441904Y-75059523D01*
X61537142Y-75011904D01*
X61584761Y-74964285D01*
X61632380Y-74869047D01*
X61632380Y-74678571D01*
X61584761Y-74583333D01*
X61537142Y-74535714D01*
X61441904Y-74488095D01*
X61251428Y-74488095D01*
X61156190Y-74535714D01*
X61108571Y-74583333D01*
X61060952Y-74678571D01*
X124107142Y-34357142D02*
X124059523Y-34404761D01*
X123916666Y-34452380D01*
X123821428Y-34452380D01*
X123678571Y-34404761D01*
X123583333Y-34309523D01*
X123535714Y-34214285D01*
X123488095Y-34023809D01*
X123488095Y-33880952D01*
X123535714Y-33690476D01*
X123583333Y-33595238D01*
X123678571Y-33500000D01*
X123821428Y-33452380D01*
X123916666Y-33452380D01*
X124059523Y-33500000D01*
X124107142Y-33547619D01*
X124488095Y-33547619D02*
X124535714Y-33500000D01*
X124630952Y-33452380D01*
X124869047Y-33452380D01*
X124964285Y-33500000D01*
X125011904Y-33547619D01*
X125059523Y-33642857D01*
X125059523Y-33738095D01*
X125011904Y-33880952D01*
X124440476Y-34452380D01*
X125059523Y-34452380D01*
X125964285Y-33452380D02*
X125488095Y-33452380D01*
X125440476Y-33928571D01*
X125488095Y-33880952D01*
X125583333Y-33833333D01*
X125821428Y-33833333D01*
X125916666Y-33880952D01*
X125964285Y-33928571D01*
X126011904Y-34023809D01*
X126011904Y-34261904D01*
X125964285Y-34357142D01*
X125916666Y-34404761D01*
X125821428Y-34452380D01*
X125583333Y-34452380D01*
X125488095Y-34404761D01*
X125440476Y-34357142D01*
X108847380Y-25583333D02*
X109561666Y-25583333D01*
X109704523Y-25630952D01*
X109799761Y-25726190D01*
X109847380Y-25869047D01*
X109847380Y-25964285D01*
X108847380Y-25202380D02*
X108847380Y-24583333D01*
X109228333Y-24916666D01*
X109228333Y-24773809D01*
X109275952Y-24678571D01*
X109323571Y-24630952D01*
X109418809Y-24583333D01*
X109656904Y-24583333D01*
X109752142Y-24630952D01*
X109799761Y-24678571D01*
X109847380Y-24773809D01*
X109847380Y-25059523D01*
X109799761Y-25154761D01*
X109752142Y-25202380D01*
X121904761Y-30297619D02*
X121809523Y-30250000D01*
X121714285Y-30154761D01*
X121571428Y-30011904D01*
X121476190Y-29964285D01*
X121380952Y-29964285D01*
X121428571Y-30202380D02*
X121333333Y-30154761D01*
X121238095Y-30059523D01*
X121190476Y-29869047D01*
X121190476Y-29535714D01*
X121238095Y-29345238D01*
X121333333Y-29250000D01*
X121428571Y-29202380D01*
X121619047Y-29202380D01*
X121714285Y-29250000D01*
X121809523Y-29345238D01*
X121857142Y-29535714D01*
X121857142Y-29869047D01*
X121809523Y-30059523D01*
X121714285Y-30154761D01*
X121619047Y-30202380D01*
X121428571Y-30202380D01*
X122238095Y-29297619D02*
X122285714Y-29250000D01*
X122380952Y-29202380D01*
X122619047Y-29202380D01*
X122714285Y-29250000D01*
X122761904Y-29297619D01*
X122809523Y-29392857D01*
X122809523Y-29488095D01*
X122761904Y-29630952D01*
X122190476Y-30202380D01*
X122809523Y-30202380D01*
X111333333Y-35357142D02*
X111285714Y-35404761D01*
X111142857Y-35452380D01*
X111047619Y-35452380D01*
X110904761Y-35404761D01*
X110809523Y-35309523D01*
X110761904Y-35214285D01*
X110714285Y-35023809D01*
X110714285Y-34880952D01*
X110761904Y-34690476D01*
X110809523Y-34595238D01*
X110904761Y-34500000D01*
X111047619Y-34452380D01*
X111142857Y-34452380D01*
X111285714Y-34500000D01*
X111333333Y-34547619D01*
X112285714Y-35452380D02*
X111714285Y-35452380D01*
X112000000Y-35452380D02*
X112000000Y-34452380D01*
X111904761Y-34595238D01*
X111809523Y-34690476D01*
X111714285Y-34738095D01*
X114011904Y-28022380D02*
X114011904Y-27022380D01*
X114250000Y-27022380D01*
X114392857Y-27070000D01*
X114488095Y-27165238D01*
X114535714Y-27260476D01*
X114583333Y-27450952D01*
X114583333Y-27593809D01*
X114535714Y-27784285D01*
X114488095Y-27879523D01*
X114392857Y-27974761D01*
X114250000Y-28022380D01*
X114011904Y-28022380D01*
X114916666Y-27022380D02*
X115535714Y-27022380D01*
X115202380Y-27403333D01*
X115345238Y-27403333D01*
X115440476Y-27450952D01*
X115488095Y-27498571D01*
X115535714Y-27593809D01*
X115535714Y-27831904D01*
X115488095Y-27927142D01*
X115440476Y-27974761D01*
X115345238Y-28022380D01*
X115059523Y-28022380D01*
X114964285Y-27974761D01*
X114916666Y-27927142D01*
D11*
X54095000Y-67920000D02*
X54095000Y-71420000D01*
X54095000Y-71420000D02*
X53095000Y-71420000D01*
X53095000Y-67920000D02*
X53095000Y-64920000D01*
X53095000Y-64920000D02*
X62845000Y-64920000D01*
X53095000Y-67920000D02*
X54095000Y-67920000D01*
X53095000Y-71420000D02*
X53095000Y-74170000D01*
X62845000Y-64920000D02*
X62845000Y-74170000D01*
X62845000Y-74170000D02*
X53095000Y-74170000D01*
X127420000Y-48250000D02*
X127420000Y-46920000D01*
X127420000Y-46920000D02*
X128750000Y-46920000D01*
X127420000Y-49520000D02*
X127420000Y-52120000D01*
X127420000Y-52120000D02*
X130080000Y-52120000D01*
X127420000Y-49520000D02*
X130080000Y-49520000D01*
X130080000Y-49520000D02*
X130080000Y-52120000D01*
X121590000Y-64461252D02*
X121590000Y-63038748D01*
X123410000Y-64461252D02*
X123410000Y-63038748D01*
X112762742Y-61772500D02*
X113237258Y-61772500D01*
X112762742Y-60727500D02*
X113237258Y-60727500D01*
X79012742Y-69772500D02*
X79487258Y-69772500D01*
X79012742Y-68727500D02*
X79487258Y-68727500D01*
X116920000Y-23895000D02*
X118250000Y-23895000D01*
X116920000Y-25225000D02*
X116920000Y-23895000D01*
X116920000Y-26495000D02*
X119580000Y-26495000D01*
X119580000Y-26495000D02*
X119580000Y-31635000D01*
X116920000Y-26495000D02*
X116920000Y-31635000D01*
X116920000Y-31635000D02*
X119580000Y-31635000D01*
X122237258Y-59772500D02*
X121762742Y-59772500D01*
X122237258Y-58727500D02*
X121762742Y-58727500D01*
X121762742Y-22727500D02*
X122237258Y-22727500D01*
X121762742Y-23772500D02*
X122237258Y-23772500D01*
X98762742Y-41727500D02*
X99237258Y-41727500D01*
X98762742Y-42772500D02*
X99237258Y-42772500D01*
X113727500Y-44262742D02*
X113727500Y-44737258D01*
X114772500Y-44262742D02*
X114772500Y-44737258D01*
X75012742Y-64522500D02*
X75487258Y-64522500D01*
X75012742Y-63477500D02*
X75487258Y-63477500D01*
X109940000Y-30750000D02*
X109940000Y-29950000D01*
X109940000Y-30750000D02*
X109940000Y-31550000D01*
X113060000Y-30750000D02*
X113060000Y-31550000D01*
X113060000Y-30750000D02*
X113060000Y-28950000D01*
X121250000Y-78000000D02*
G75*
G03*
X121250000Y-78000000I-3000000J0D01*
G01*
X117750000Y-78000000D02*
X118750000Y-78000000D01*
X120250000Y-72100000D02*
X124350000Y-72100000D01*
X110450000Y-73900000D02*
X111050000Y-73900000D01*
X124350000Y-81500000D02*
X124350000Y-83900000D01*
X118250000Y-77500000D02*
X118250000Y-78500000D01*
X116250000Y-83900000D02*
X112150000Y-83900000D01*
X112150000Y-72100000D02*
X112150000Y-83900000D01*
X124350000Y-72100000D02*
X124350000Y-74500000D01*
X110750000Y-74200000D02*
X110450000Y-73900000D01*
X124350000Y-83900000D02*
X120250000Y-83900000D01*
X111050000Y-73900000D02*
X110750000Y-74200000D01*
X116250000Y-72100000D02*
X112150000Y-72100000D01*
X124350000Y-76700000D02*
X124350000Y-79300000D01*
X101871000Y-83170000D02*
X102630000Y-83170000D01*
X105970000Y-83170000D02*
X105970000Y-79305000D01*
X105970000Y-74795000D02*
X105970000Y-70930000D01*
X96030000Y-83170000D02*
X97629000Y-83170000D01*
X96030000Y-74795000D02*
X96030000Y-70930000D01*
X96030000Y-83170000D02*
X96030000Y-79305000D01*
X104370000Y-83170000D02*
X105970000Y-83170000D01*
X99371000Y-83170000D02*
X100130000Y-83170000D01*
X96030000Y-70930000D02*
X105970000Y-70930000D01*
X122109420Y-67260000D02*
X122390580Y-67260000D01*
X122109420Y-66240000D02*
X122390580Y-66240000D01*
X126610000Y-39159420D02*
X126610000Y-39440580D01*
X125590000Y-39159420D02*
X125590000Y-39440580D01*
X89735000Y-84485000D02*
X89735000Y-82200000D01*
X88265000Y-82200000D02*
X88265000Y-84485000D01*
X88265000Y-84485000D02*
X89735000Y-84485000D01*
X125087221Y-65010000D02*
X125412779Y-65010000D01*
X125087221Y-63990000D02*
X125412779Y-63990000D01*
X127020000Y-34160000D02*
X129050000Y-34160000D01*
X127020000Y-32500000D02*
X127020000Y-31840000D01*
X127020000Y-34160000D02*
X127020000Y-33500000D01*
X128430000Y-31840000D02*
X127020000Y-31840000D01*
X73000000Y-66265000D02*
X69400000Y-66265000D01*
X73000000Y-71735000D02*
X70800000Y-71735000D01*
X73000000Y-66265000D02*
X75200000Y-66265000D01*
X73000000Y-71735000D02*
X75200000Y-71735000D01*
X72012742Y-64522500D02*
X72487258Y-64522500D01*
X72012742Y-63477500D02*
X72487258Y-63477500D01*
X78272500Y-66237258D02*
X78272500Y-65762742D01*
X77227500Y-66237258D02*
X77227500Y-65762742D01*
X122237258Y-53477500D02*
X121762742Y-53477500D01*
X122237258Y-54522500D02*
X121762742Y-54522500D01*
X112762742Y-47977500D02*
X113237258Y-47977500D01*
X112762742Y-49022500D02*
X113237258Y-49022500D01*
X75012742Y-66022500D02*
X75487258Y-66022500D01*
X75012742Y-64977500D02*
X75487258Y-64977500D01*
X122109420Y-60240000D02*
X122390580Y-60240000D01*
X122109420Y-61260000D02*
X122390580Y-61260000D01*
X66140580Y-68260000D02*
X65859420Y-68260000D01*
X66140580Y-67240000D02*
X65859420Y-67240000D01*
X125390580Y-52260000D02*
X125109420Y-52260000D01*
X125390580Y-51240000D02*
X125109420Y-51240000D01*
X118250000Y-54700000D02*
X118250000Y-53300000D01*
X118950000Y-52600000D02*
X119550000Y-52600000D01*
X120250000Y-53300000D02*
X120250000Y-54700000D01*
X119550000Y-55400000D02*
X118950000Y-55400000D01*
X118950000Y-52600000D02*
G75*
G03*
X118250000Y-53300000I0J-700000D01*
G01*
X119550000Y-55400000D02*
G75*
G03*
X120250000Y-54700000I1J699999D01*
G01*
X120250000Y-53300000D02*
G75*
G03*
X119550000Y-52600000I-700000J0D01*
G01*
X118250000Y-54700000D02*
G75*
G03*
X118950000Y-55400000I699999J-1D01*
G01*
X124750000Y-24250000D02*
X124750000Y-28750000D01*
X128750000Y-23000000D02*
X127250000Y-23000000D01*
X127250000Y-30000000D02*
X128750000Y-30000000D01*
X131250000Y-28750000D02*
X131250000Y-24250000D01*
X112762742Y-49477500D02*
X113237258Y-49477500D01*
X112762742Y-50522500D02*
X113237258Y-50522500D01*
X112762742Y-46477500D02*
X113237258Y-46477500D01*
X112762742Y-47522500D02*
X113237258Y-47522500D01*
X125390580Y-66510000D02*
X125109420Y-66510000D01*
X125390580Y-65490000D02*
X125109420Y-65490000D01*
X114522500Y-32987258D02*
X114522500Y-32512742D01*
X113477500Y-32987258D02*
X113477500Y-32512742D01*
X90170000Y-57090000D02*
X54550000Y-57090000D01*
X54550000Y-57090000D02*
X54550000Y-59750000D01*
X92770000Y-59750000D02*
X91440000Y-59750000D01*
X90170000Y-59750000D02*
X54550000Y-59750000D01*
X90170000Y-57090000D02*
X90170000Y-59750000D01*
X92770000Y-58420000D02*
X92770000Y-59750000D01*
X115760000Y-51359420D02*
X115760000Y-51640580D01*
X114740000Y-51359420D02*
X114740000Y-51640580D01*
X91477500Y-79487258D02*
X91477500Y-79012742D01*
X92522500Y-79487258D02*
X92522500Y-79012742D01*
X85000000Y-82750000D02*
X85000000Y-81250000D01*
X83750000Y-78750000D02*
X79250000Y-78750000D01*
X79250000Y-85250000D02*
X83750000Y-85250000D01*
X78000000Y-81250000D02*
X78000000Y-82750000D01*
X64250000Y-78750000D02*
X59750000Y-78750000D01*
X65500000Y-82750000D02*
X65500000Y-81250000D01*
X58500000Y-81250000D02*
X58500000Y-82750000D01*
X59750000Y-85250000D02*
X64250000Y-85250000D01*
X78727500Y-65762742D02*
X78727500Y-66237258D01*
X79772500Y-65762742D02*
X79772500Y-66237258D01*
X63500000Y-24045000D02*
X101660000Y-24045000D01*
X60900000Y-24045000D02*
X62230000Y-24045000D01*
X101660000Y-26705000D02*
X101660000Y-24045000D01*
X63500000Y-26705000D02*
X101660000Y-26705000D01*
X60900000Y-25375000D02*
X60900000Y-24045000D01*
X63500000Y-26705000D02*
X63500000Y-24045000D01*
X99400000Y-41500000D02*
X101100000Y-41500000D01*
X99400000Y-41500000D02*
X99400000Y-38950000D01*
X101100000Y-41500000D02*
X101100000Y-38950000D01*
X106550000Y-41300000D02*
X101450000Y-41300000D01*
X106550000Y-36200000D02*
X101450000Y-36200000D01*
X107260000Y-42859420D02*
X107260000Y-43140580D01*
X106240000Y-42859420D02*
X106240000Y-43140580D01*
X116727500Y-58512742D02*
X116727500Y-58987258D01*
X117772500Y-58512742D02*
X117772500Y-58987258D01*
X125390580Y-47760000D02*
X125109420Y-47760000D01*
X125390580Y-46740000D02*
X125109420Y-46740000D01*
X118940000Y-34390000D02*
X118940000Y-35650000D01*
X118940000Y-41210000D02*
X118940000Y-39950000D01*
X124950000Y-41210000D02*
X118940000Y-41210000D01*
X122700000Y-34390000D02*
X118940000Y-34390000D01*
X113727500Y-58512742D02*
X113727500Y-58987258D01*
X114772500Y-58512742D02*
X114772500Y-58987258D01*
X127420000Y-62500000D02*
X127420000Y-61170000D01*
X127420000Y-66370000D02*
X130080000Y-66370000D01*
X130080000Y-63770000D02*
X130080000Y-66370000D01*
X127420000Y-61170000D02*
X128750000Y-61170000D01*
X127420000Y-63770000D02*
X127420000Y-66370000D01*
X127420000Y-63770000D02*
X130080000Y-63770000D01*
X112762742Y-63727500D02*
X113237258Y-63727500D01*
X112762742Y-64772500D02*
X113237258Y-64772500D01*
X88477500Y-79487258D02*
X88477500Y-79012742D01*
X89522500Y-79487258D02*
X89522500Y-79012742D01*
X72012742Y-64977500D02*
X72487258Y-64977500D01*
X72012742Y-66022500D02*
X72487258Y-66022500D01*
X67740000Y-71890580D02*
X67740000Y-71609420D01*
X68760000Y-71890580D02*
X68760000Y-71609420D01*
X116272500Y-44262742D02*
X116272500Y-44737258D01*
X115227500Y-44262742D02*
X115227500Y-44737258D01*
X131022500Y-33237258D02*
X131022500Y-32762742D01*
X129977500Y-33237258D02*
X129977500Y-32762742D01*
X120835000Y-47390000D02*
X120360000Y-47390000D01*
X120835000Y-47865000D02*
X120835000Y-47390000D01*
X116615000Y-47865000D02*
X116615000Y-47390000D01*
X116615000Y-51135000D02*
X116615000Y-51610000D01*
X120835000Y-51135000D02*
X120835000Y-51610000D01*
X116615000Y-47390000D02*
X117090000Y-47390000D01*
X120835000Y-51610000D02*
X120360000Y-51610000D01*
X91265000Y-84485000D02*
X92735000Y-84485000D01*
X91265000Y-82200000D02*
X91265000Y-84485000D01*
X92735000Y-84485000D02*
X92735000Y-82200000D01*
X115760000Y-65609420D02*
X115760000Y-65890580D01*
X114740000Y-65609420D02*
X114740000Y-65890580D01*
X66587221Y-73490000D02*
X66912779Y-73490000D01*
X66587221Y-74510000D02*
X66912779Y-74510000D01*
X125087221Y-62490000D02*
X125412779Y-62490000D01*
X125087221Y-63510000D02*
X125412779Y-63510000D01*
X123410000Y-50211252D02*
X123410000Y-48788748D01*
X121590000Y-50211252D02*
X121590000Y-48788748D01*
X104000000Y-41690000D02*
X102200000Y-41690000D01*
X104000000Y-44810000D02*
X104800000Y-44810000D01*
X104000000Y-44810000D02*
X103200000Y-44810000D01*
X104000000Y-41690000D02*
X104800000Y-41690000D01*
X125087221Y-49260000D02*
X125412779Y-49260000D01*
X125087221Y-48240000D02*
X125412779Y-48240000D01*
X125087221Y-49740000D02*
X125412779Y-49740000D01*
X125087221Y-50760000D02*
X125412779Y-50760000D01*
X70260000Y-64890580D02*
X70260000Y-64609420D01*
X69240000Y-64890580D02*
X69240000Y-64609420D01*
X118950000Y-66850000D02*
X119550000Y-66850000D01*
X120250000Y-67550000D02*
X120250000Y-68950000D01*
X118250000Y-68950000D02*
X118250000Y-67550000D01*
X119550000Y-69650000D02*
X118950000Y-69650000D01*
X120250000Y-67550000D02*
G75*
G03*
X119550000Y-66850000I-700000J0D01*
G01*
X119550000Y-69650000D02*
G75*
G03*
X120250000Y-68950000I1J699999D01*
G01*
X118250000Y-68950000D02*
G75*
G03*
X118950000Y-69650000I699999J-1D01*
G01*
X118950000Y-66850000D02*
G75*
G03*
X118250000Y-67550000I0J-700000D01*
G01*
X122109420Y-51990000D02*
X122390580Y-51990000D01*
X122109420Y-53010000D02*
X122390580Y-53010000D01*
X90170000Y-31690000D02*
X54550000Y-31690000D01*
X92770000Y-33020000D02*
X92770000Y-34350000D01*
X90170000Y-34350000D02*
X54550000Y-34350000D01*
X92770000Y-34350000D02*
X91440000Y-34350000D01*
X54550000Y-31690000D02*
X54550000Y-34350000D01*
X90170000Y-31690000D02*
X90170000Y-34350000D01*
X73772500Y-73487258D02*
X73772500Y-73012742D01*
X72727500Y-73487258D02*
X72727500Y-73012742D01*
X119550000Y-60650000D02*
X118950000Y-60650000D01*
X118950000Y-57850000D02*
X119550000Y-57850000D01*
X118250000Y-59950000D02*
X118250000Y-58550000D01*
X120250000Y-58550000D02*
X120250000Y-59950000D01*
X118250000Y-59950000D02*
G75*
G03*
X118950000Y-60650000I700000J0D01*
G01*
X118950000Y-57850000D02*
G75*
G03*
X118250000Y-58550000I-1J-699999D01*
G01*
X120250000Y-58550000D02*
G75*
G03*
X119550000Y-57850000I-699999J1D01*
G01*
X119550000Y-60650000D02*
G75*
G03*
X120250000Y-59950000I0J700000D01*
G01*
X122237258Y-44477500D02*
X121762742Y-44477500D01*
X122237258Y-45522500D02*
X121762742Y-45522500D01*
X71227500Y-73012742D02*
X71227500Y-73487258D01*
X72272500Y-73012742D02*
X72272500Y-73487258D01*
X65990000Y-71912779D02*
X65990000Y-71587221D01*
X67010000Y-71912779D02*
X67010000Y-71587221D01*
X69500000Y-85250000D02*
X74000000Y-85250000D01*
X74000000Y-78750000D02*
X69500000Y-78750000D01*
X68250000Y-81250000D02*
X68250000Y-82750000D01*
X75250000Y-82750000D02*
X75250000Y-81250000D01*
X69740000Y-73109420D02*
X69740000Y-73390580D01*
X70760000Y-73109420D02*
X70760000Y-73390580D01*
X122237258Y-68772500D02*
X121762742Y-68772500D01*
X122237258Y-67727500D02*
X121762742Y-67727500D01*
X116272500Y-58512742D02*
X116272500Y-58987258D01*
X115227500Y-58512742D02*
X115227500Y-58987258D01*
X67359420Y-70010000D02*
X67640580Y-70010000D01*
X67359420Y-68990000D02*
X67640580Y-68990000D01*
X125390580Y-62010000D02*
X125109420Y-62010000D01*
X125390580Y-60990000D02*
X125109420Y-60990000D01*
X114512742Y-29977500D02*
X114987258Y-29977500D01*
X114512742Y-31022500D02*
X114987258Y-31022500D01*
X101760000Y-42859420D02*
X101760000Y-43140580D01*
X100740000Y-42859420D02*
X100740000Y-43140580D01*
X122109420Y-45990000D02*
X122390580Y-45990000D01*
X122109420Y-47010000D02*
X122390580Y-47010000D01*
X99237258Y-43227500D02*
X98762742Y-43227500D01*
X99237258Y-44272500D02*
X98762742Y-44272500D01*
X119550000Y-46400000D02*
X118950000Y-46400000D01*
X118250000Y-45700000D02*
X118250000Y-44300000D01*
X120250000Y-44300000D02*
X120250000Y-45700000D01*
X118950000Y-43600000D02*
X119550000Y-43600000D01*
X119550000Y-46400000D02*
G75*
G03*
X120250000Y-45700000I0J700000D01*
G01*
X120250000Y-44300000D02*
G75*
G03*
X119550000Y-43600000I-699999J1D01*
G01*
X118950000Y-43600000D02*
G75*
G03*
X118250000Y-44300000I-1J-699999D01*
G01*
X118250000Y-45700000D02*
G75*
G03*
X118950000Y-46400000I700000J0D01*
G01*
X111359420Y-28510000D02*
X111640580Y-28510000D01*
X111359420Y-27490000D02*
X111640580Y-27490000D01*
X66140580Y-66760000D02*
X65859420Y-66760000D01*
X66140580Y-65740000D02*
X65859420Y-65740000D01*
X112762742Y-63272500D02*
X113237258Y-63272500D01*
X112762742Y-62227500D02*
X113237258Y-62227500D01*
X117772500Y-44262742D02*
X117772500Y-44737258D01*
X116727500Y-44262742D02*
X116727500Y-44737258D01*
X129012742Y-36022500D02*
X129487258Y-36022500D01*
X129012742Y-34977500D02*
X129487258Y-34977500D01*
X116615000Y-61640000D02*
X117090000Y-61640000D01*
X120835000Y-65860000D02*
X120360000Y-65860000D01*
X116615000Y-62115000D02*
X116615000Y-61640000D01*
X116615000Y-65385000D02*
X116615000Y-65860000D01*
X120835000Y-65385000D02*
X120835000Y-65860000D01*
X120835000Y-61640000D02*
X120360000Y-61640000D01*
X120835000Y-62115000D02*
X120835000Y-61640000D01*
X64240000Y-71890580D02*
X64240000Y-71609420D01*
X65260000Y-71890580D02*
X65260000Y-71609420D01*
X126610000Y-36159420D02*
X126610000Y-36440580D01*
X125590000Y-36159420D02*
X125590000Y-36440580D01*
X115595000Y-26580000D02*
X115595000Y-23920000D01*
X111725000Y-26580000D02*
X110395000Y-26580000D01*
X112995000Y-23920000D02*
X115595000Y-23920000D01*
X110395000Y-26580000D02*
X110395000Y-25250000D01*
X112995000Y-26580000D02*
X115595000Y-26580000D01*
X112995000Y-26580000D02*
X112995000Y-23920000D01*
X123560000Y-26750000D02*
X123560000Y-27550000D01*
X120440000Y-26750000D02*
X120440000Y-25950000D01*
X123560000Y-26750000D02*
X123560000Y-24950000D01*
X120440000Y-26750000D02*
X120440000Y-27550000D01*
X111359420Y-34010000D02*
X111640580Y-34010000D01*
X111359420Y-32990000D02*
X111640580Y-32990000D01*
X115550000Y-28265000D02*
X113265000Y-28265000D01*
X113265000Y-28265000D02*
X113265000Y-29735000D01*
X113265000Y-29735000D02*
X115550000Y-29735000D01*
%LPC*%
D12*
X53845000Y-66170000D03*
X53845000Y-72670000D03*
D13*
X58545000Y-66570000D03*
X61145000Y-65170000D03*
X57745000Y-73270000D03*
X60845000Y-71270000D03*
D14*
X52745000Y-69670000D03*
D13*
X61145000Y-68070000D03*
D15*
X128750000Y-48250000D03*
D16*
X128750000Y-50790000D03*
D17*
X122500000Y-65225000D03*
X122500000Y-62275000D03*
D18*
X112175000Y-61250000D03*
X113825000Y-61250000D03*
X78425000Y-69250000D03*
X80075000Y-69250000D03*
D15*
X118250000Y-25225000D03*
D16*
X118250000Y-27765000D03*
X118250000Y-30305000D03*
D19*
X122825000Y-59250000D03*
X121175000Y-59250000D03*
D18*
X121175000Y-23250000D03*
X122825000Y-23250000D03*
X98175000Y-42250000D03*
X99825000Y-42250000D03*
D20*
X114250000Y-43675000D03*
X114250000Y-45325000D03*
D18*
X74425000Y-64000000D03*
X76075000Y-64000000D03*
D21*
X112450000Y-29612500D03*
X111500000Y-29612500D03*
X110550000Y-29612500D03*
X110550000Y-31887500D03*
X112450000Y-31887500D03*
D22*
X125250000Y-75500000D03*
X125250000Y-80500000D03*
D23*
X118250000Y-83600000D03*
X118250000Y-72400000D03*
D22*
X110750000Y-78000000D03*
X110750000Y-80500000D03*
D24*
X110750000Y-75500000D03*
D25*
X105400000Y-77050000D03*
X96600000Y-77050000D03*
D26*
X103500000Y-84050000D03*
X101000000Y-84050000D03*
X98500000Y-84050000D03*
D27*
X121475000Y-66750000D03*
X123025000Y-66750000D03*
D28*
X126100000Y-38525000D03*
X126100000Y-40075000D03*
D29*
X89000000Y-83787500D03*
X89000000Y-82212500D03*
D30*
X124462500Y-64500000D03*
X126037500Y-64500000D03*
D31*
X128750000Y-33650000D03*
X128750000Y-32350000D03*
X126750000Y-33000000D03*
D32*
X70137500Y-66725000D03*
X70137500Y-67375000D03*
X70137500Y-68025000D03*
X70137500Y-68675000D03*
X70137500Y-69325000D03*
X70137500Y-69975000D03*
X70137500Y-70625000D03*
X70137500Y-71275000D03*
X75862500Y-71275000D03*
X75862500Y-70625000D03*
X75862500Y-69975000D03*
X75862500Y-69325000D03*
X75862500Y-68675000D03*
X75862500Y-68025000D03*
X75862500Y-67375000D03*
X75862500Y-66725000D03*
D18*
X71425000Y-64000000D03*
X73075000Y-64000000D03*
D33*
X77750000Y-66825000D03*
X77750000Y-65175000D03*
D19*
X122825000Y-54000000D03*
X121175000Y-54000000D03*
D18*
X112175000Y-48500000D03*
X113825000Y-48500000D03*
X74425000Y-65500000D03*
X76075000Y-65500000D03*
D27*
X121475000Y-60750000D03*
X123025000Y-60750000D03*
D34*
X66775000Y-67750000D03*
X65225000Y-67750000D03*
X126025000Y-51750000D03*
X124475000Y-51750000D03*
D35*
X130250000Y-83250000D03*
D36*
X119250000Y-54650000D03*
D37*
X119250000Y-53350000D03*
D22*
X130250000Y-29750000D03*
X130250000Y-23250000D03*
X125750000Y-29750000D03*
X125750000Y-23250000D03*
D18*
X112175000Y-50000000D03*
X113825000Y-50000000D03*
X112175000Y-47000000D03*
X113825000Y-47000000D03*
D34*
X126025000Y-66000000D03*
X124475000Y-66000000D03*
D33*
X114000000Y-33575000D03*
X114000000Y-31925000D03*
D15*
X91440000Y-58420000D03*
D16*
X88900000Y-58420000D03*
X86360000Y-58420000D03*
X83820000Y-58420000D03*
X81280000Y-58420000D03*
X78740000Y-58420000D03*
X76200000Y-58420000D03*
X73660000Y-58420000D03*
X71120000Y-58420000D03*
X68580000Y-58420000D03*
X66040000Y-58420000D03*
X63500000Y-58420000D03*
X60960000Y-58420000D03*
X58420000Y-58420000D03*
X55880000Y-58420000D03*
D28*
X115250000Y-50725000D03*
X115250000Y-52275000D03*
D33*
X92000000Y-80075000D03*
X92000000Y-78425000D03*
D22*
X78250000Y-84250000D03*
X84750000Y-84250000D03*
X78250000Y-79750000D03*
X84750000Y-79750000D03*
X58750000Y-84250000D03*
X65250000Y-84250000D03*
X58750000Y-79750000D03*
X65250000Y-79750000D03*
D20*
X79250000Y-65175000D03*
X79250000Y-66825000D03*
D15*
X62230000Y-25375000D03*
D16*
X64770000Y-25375000D03*
X67310000Y-25375000D03*
X69850000Y-25375000D03*
X72390000Y-25375000D03*
X74930000Y-25375000D03*
X77470000Y-25375000D03*
X80010000Y-25375000D03*
X82550000Y-25375000D03*
X85090000Y-25375000D03*
X87630000Y-25375000D03*
X90170000Y-25375000D03*
X92710000Y-25375000D03*
X95250000Y-25375000D03*
X97790000Y-25375000D03*
X100330000Y-25375000D03*
D38*
X100250000Y-41050000D03*
X100250000Y-38950000D03*
D39*
X105800000Y-38750000D03*
X102200000Y-38750000D03*
D28*
X106750000Y-42225000D03*
X106750000Y-43775000D03*
D20*
X117250000Y-57925000D03*
X117250000Y-59575000D03*
D34*
X126025000Y-47250000D03*
X124475000Y-47250000D03*
D40*
X124000000Y-40100000D03*
D41*
X117700000Y-37800000D03*
D40*
X124000000Y-37800000D03*
X124000000Y-35500000D03*
D20*
X114250000Y-57925000D03*
X114250000Y-59575000D03*
D15*
X128750000Y-62500000D03*
D16*
X128750000Y-65040000D03*
D18*
X112175000Y-64250000D03*
X113825000Y-64250000D03*
D33*
X89000000Y-80075000D03*
X89000000Y-78425000D03*
D18*
X71425000Y-65500000D03*
X73075000Y-65500000D03*
D42*
X68250000Y-72525000D03*
X68250000Y-70975000D03*
D20*
X115750000Y-43675000D03*
X115750000Y-45325000D03*
D33*
X130500000Y-33825000D03*
X130500000Y-32175000D03*
D43*
X117475000Y-51437500D03*
X117975000Y-51437500D03*
X118475000Y-51437500D03*
X118975000Y-51437500D03*
X119475000Y-51437500D03*
X119975000Y-51437500D03*
D44*
X120662500Y-50750000D03*
X120662500Y-50250000D03*
X120662500Y-49750000D03*
X120662500Y-49250000D03*
X120662500Y-48750000D03*
X120662500Y-48250000D03*
D43*
X119975000Y-47562500D03*
X119475000Y-47562500D03*
X118975000Y-47562500D03*
X118475000Y-47562500D03*
X117975000Y-47562500D03*
X117475000Y-47562500D03*
D44*
X116787500Y-48250000D03*
X116787500Y-48750000D03*
X116787500Y-49250000D03*
X116787500Y-49750000D03*
X116787500Y-50250000D03*
X116787500Y-50750000D03*
D45*
X118725000Y-49500000D03*
D29*
X92000000Y-83787500D03*
X92000000Y-82212500D03*
D28*
X115250000Y-64975000D03*
X115250000Y-66525000D03*
D30*
X65962500Y-74000000D03*
X67537500Y-74000000D03*
X124462500Y-63000000D03*
X126037500Y-63000000D03*
D17*
X122500000Y-50975000D03*
X122500000Y-48025000D03*
D46*
X102862500Y-42300000D03*
X102862500Y-43250000D03*
X102862500Y-44200000D03*
X105137500Y-44200000D03*
X105137500Y-42300000D03*
D30*
X124462500Y-48750000D03*
X126037500Y-48750000D03*
X124462500Y-50250000D03*
X126037500Y-50250000D03*
D42*
X69750000Y-65525000D03*
X69750000Y-63975000D03*
D35*
X54250000Y-83250000D03*
D36*
X119250000Y-68900000D03*
D37*
X119250000Y-67600000D03*
D27*
X121475000Y-52500000D03*
X123025000Y-52500000D03*
D15*
X91440000Y-33020000D03*
D16*
X88900000Y-33020000D03*
X86360000Y-33020000D03*
X83820000Y-33020000D03*
X81280000Y-33020000D03*
X78740000Y-33020000D03*
X76200000Y-33020000D03*
X73660000Y-33020000D03*
X71120000Y-33020000D03*
X68580000Y-33020000D03*
X66040000Y-33020000D03*
X63500000Y-33020000D03*
X60960000Y-33020000D03*
X58420000Y-33020000D03*
X55880000Y-33020000D03*
D33*
X73250000Y-74075000D03*
X73250000Y-72425000D03*
D47*
X119250000Y-58600000D03*
D48*
X119250000Y-59900000D03*
D19*
X122825000Y-45000000D03*
X121175000Y-45000000D03*
D20*
X71750000Y-72425000D03*
X71750000Y-74075000D03*
D29*
X66500000Y-72537500D03*
X66500000Y-70962500D03*
D22*
X75000000Y-84250000D03*
X68500000Y-84250000D03*
X75000000Y-79750000D03*
X68500000Y-79750000D03*
D28*
X70250000Y-72475000D03*
X70250000Y-74025000D03*
D19*
X122825000Y-68250000D03*
X121175000Y-68250000D03*
D20*
X115750000Y-57925000D03*
X115750000Y-59575000D03*
D27*
X66725000Y-69500000D03*
X68275000Y-69500000D03*
D34*
X126025000Y-61500000D03*
X124475000Y-61500000D03*
D18*
X113925000Y-30500000D03*
X115575000Y-30500000D03*
D28*
X101250000Y-42225000D03*
X101250000Y-43775000D03*
D35*
X54250000Y-24250000D03*
X130250000Y-39750000D03*
D27*
X121475000Y-46500000D03*
X123025000Y-46500000D03*
D19*
X99825000Y-43750000D03*
X98175000Y-43750000D03*
D47*
X119250000Y-44350000D03*
D48*
X119250000Y-45650000D03*
D27*
X110725000Y-28000000D03*
X112275000Y-28000000D03*
D34*
X66775000Y-66250000D03*
X65225000Y-66250000D03*
D18*
X112175000Y-62750000D03*
X113825000Y-62750000D03*
D20*
X117250000Y-43675000D03*
X117250000Y-45325000D03*
D18*
X128425000Y-35500000D03*
X130075000Y-35500000D03*
D43*
X117475000Y-65687500D03*
X117975000Y-65687500D03*
X118475000Y-65687500D03*
X118975000Y-65687500D03*
X119475000Y-65687500D03*
X119975000Y-65687500D03*
D44*
X120662500Y-65000000D03*
X120662500Y-64500000D03*
X120662500Y-64000000D03*
X120662500Y-63500000D03*
X120662500Y-63000000D03*
X120662500Y-62500000D03*
D43*
X119975000Y-61812500D03*
X119475000Y-61812500D03*
X118975000Y-61812500D03*
X118475000Y-61812500D03*
X117975000Y-61812500D03*
X117475000Y-61812500D03*
D44*
X116787500Y-62500000D03*
X116787500Y-63000000D03*
X116787500Y-63500000D03*
X116787500Y-64000000D03*
X116787500Y-64500000D03*
X116787500Y-65000000D03*
D45*
X118725000Y-63750000D03*
D42*
X64750000Y-72525000D03*
X64750000Y-70975000D03*
D28*
X126100000Y-35525000D03*
X126100000Y-37075000D03*
D15*
X111725000Y-25250000D03*
D16*
X114265000Y-25250000D03*
D21*
X122950000Y-27887500D03*
X122000000Y-25612500D03*
X122000000Y-27887500D03*
X122950000Y-25612500D03*
X121050000Y-25612500D03*
X121050000Y-27887500D03*
D27*
X110725000Y-33500000D03*
X112275000Y-33500000D03*
D30*
X113962500Y-29000000D03*
X115537500Y-29000000D03*
M02*
