G04 #@! TF.GenerationSoftware,KiCad,Pcbnew,(6.0.7)*
G04 #@! TF.CreationDate,2022-10-03T20:14:31+03:00*
G04 #@! TF.ProjectId,ESP32_blAudio_portable,45535033-325f-4626-9c41-7564696f5f70,rev?*
G04 #@! TF.SameCoordinates,Original*
G04 #@! TF.FileFunction,Soldermask,Top*
G04 #@! TF.FilePolarity,Negative*
%FSLAX46Y46*%
G04 Gerber Fmt 4.6, Leading zero omitted, Abs format (unit mm)*
G04 Created by KiCad (PCBNEW (6.0.7)) date 2022-10-03 20:14:31*
%MOMM*%
%LPD*%
G01*
G04 APERTURE LIST*
G04 Aperture macros list*
%AMRoundRect*
0 Rectangle with rounded corners*
0 $1 Rounding radius*
0 $2 $3 $4 $5 $6 $7 $8 $9 X,Y pos of 4 corners*
0 Add a 4 corners polygon primitive as box body*
4,1,4,$2,$3,$4,$5,$6,$7,$8,$9,$2,$3,0*
0 Add four circle primitives for the rounded corners*
1,1,$1+$1,$2,$3*
1,1,$1+$1,$4,$5*
1,1,$1+$1,$6,$7*
1,1,$1+$1,$8,$9*
0 Add four rect primitives between the rounded corners*
20,1,$1+$1,$2,$3,$4,$5,0*
20,1,$1+$1,$4,$5,$6,$7,0*
20,1,$1+$1,$6,$7,$8,$9,0*
20,1,$1+$1,$8,$9,$2,$3,0*%
%AMFreePoly0*
4,1,22,0.500000,-0.750000,0.000000,-0.750000,0.000000,-0.745033,-0.079941,-0.743568,-0.215256,-0.701293,-0.333266,-0.622738,-0.424486,-0.514219,-0.481581,-0.384460,-0.499164,-0.250000,-0.500000,-0.250000,-0.500000,0.250000,-0.499164,0.250000,-0.499963,0.256109,-0.478152,0.396186,-0.417904,0.524511,-0.324060,0.630769,-0.204165,0.706417,-0.067858,0.745374,0.000000,0.744959,0.000000,0.750000,
0.500000,0.750000,0.500000,-0.750000,0.500000,-0.750000,$1*%
%AMFreePoly1*
4,1,20,0.000000,0.744959,0.073905,0.744508,0.209726,0.703889,0.328688,0.626782,0.421226,0.519385,0.479903,0.390333,0.500000,0.250000,0.500000,-0.250000,0.499851,-0.262216,0.476331,-0.402017,0.414519,-0.529596,0.319384,-0.634700,0.198574,-0.708877,0.061801,-0.746166,0.000000,-0.745033,0.000000,-0.750000,-0.500000,-0.750000,-0.500000,0.750000,0.000000,0.750000,0.000000,0.744959,
0.000000,0.744959,$1*%
G04 Aperture macros list end*
%ADD10C,1.300000*%
%ADD11RoundRect,0.450000X-0.650000X-0.450000X0.650000X-0.450000X0.650000X0.450000X-0.650000X0.450000X0*%
%ADD12RoundRect,0.450000X0.450000X-0.650000X0.450000X0.650000X-0.450000X0.650000X-0.450000X-0.650000X0*%
%ADD13R,1.700000X1.700000*%
%ADD14O,1.700000X1.700000*%
%ADD15RoundRect,0.250000X0.650000X-0.325000X0.650000X0.325000X-0.650000X0.325000X-0.650000X-0.325000X0*%
%ADD16RoundRect,0.200000X-0.200000X-0.275000X0.200000X-0.275000X0.200000X0.275000X-0.200000X0.275000X0*%
%ADD17RoundRect,0.200000X0.200000X0.275000X-0.200000X0.275000X-0.200000X-0.275000X0.200000X-0.275000X0*%
%ADD18RoundRect,0.200000X-0.275000X0.200000X-0.275000X-0.200000X0.275000X-0.200000X0.275000X0.200000X0*%
%ADD19RoundRect,0.150000X-0.150000X0.512500X-0.150000X-0.512500X0.150000X-0.512500X0.150000X0.512500X0*%
%ADD20C,2.000000*%
%ADD21R,3.200000X2.000000*%
%ADD22R,2.000000X2.000000*%
%ADD23C,4.000000*%
%ADD24C,1.800000*%
%ADD25RoundRect,0.225000X-0.225000X-0.250000X0.225000X-0.250000X0.225000X0.250000X-0.225000X0.250000X0*%
%ADD26RoundRect,0.225000X-0.250000X0.225000X-0.250000X-0.225000X0.250000X-0.225000X0.250000X0.225000X0*%
%ADD27RoundRect,0.218750X0.256250X-0.218750X0.256250X0.218750X-0.256250X0.218750X-0.256250X-0.218750X0*%
%ADD28RoundRect,0.218750X-0.218750X-0.256250X0.218750X-0.256250X0.218750X0.256250X-0.218750X0.256250X0*%
%ADD29R,0.700000X0.450000*%
%ADD30RoundRect,0.100000X-0.637500X-0.100000X0.637500X-0.100000X0.637500X0.100000X-0.637500X0.100000X0*%
%ADD31RoundRect,0.200000X0.275000X-0.200000X0.275000X0.200000X-0.275000X0.200000X-0.275000X-0.200000X0*%
%ADD32RoundRect,0.225000X0.225000X0.250000X-0.225000X0.250000X-0.225000X-0.250000X0.225000X-0.250000X0*%
%ADD33C,3.200000*%
%ADD34FreePoly0,90.000000*%
%ADD35FreePoly1,90.000000*%
%ADD36R,0.450000X0.600000*%
%ADD37R,1.500000X4.000000*%
%ADD38R,2.000000X1.500000*%
%ADD39R,2.000000X3.800000*%
%ADD40RoundRect,0.225000X0.250000X-0.225000X0.250000X0.225000X-0.250000X0.225000X-0.250000X-0.225000X0*%
%ADD41RoundRect,0.062500X0.062500X-0.375000X0.062500X0.375000X-0.062500X0.375000X-0.062500X-0.375000X0*%
%ADD42RoundRect,0.062500X0.375000X-0.062500X0.375000X0.062500X-0.375000X0.062500X-0.375000X-0.062500X0*%
%ADD43R,2.600000X2.600000*%
%ADD44RoundRect,0.150000X-0.512500X-0.150000X0.512500X-0.150000X0.512500X0.150000X-0.512500X0.150000X0*%
%ADD45FreePoly0,270.000000*%
%ADD46FreePoly1,270.000000*%
G04 APERTURE END LIST*
D10*
X53845000Y-66170000D03*
X53845000Y-72670000D03*
D11*
X58545000Y-66570000D03*
X61145000Y-65170000D03*
X57745000Y-73270000D03*
X60845000Y-71270000D03*
D12*
X52745000Y-69670000D03*
D11*
X61145000Y-68070000D03*
D13*
X128750000Y-48250000D03*
D14*
X128750000Y-50790000D03*
D15*
X122500000Y-65225000D03*
X122500000Y-62275000D03*
D16*
X112175000Y-61250000D03*
X113825000Y-61250000D03*
X78425000Y-69250000D03*
X80075000Y-69250000D03*
D13*
X118250000Y-25225000D03*
D14*
X118250000Y-27765000D03*
X118250000Y-30305000D03*
D17*
X122825000Y-59250000D03*
X121175000Y-59250000D03*
D16*
X121175000Y-23250000D03*
X122825000Y-23250000D03*
X98175000Y-42250000D03*
X99825000Y-42250000D03*
D18*
X114250000Y-43675000D03*
X114250000Y-45325000D03*
D16*
X74425000Y-64000000D03*
X76075000Y-64000000D03*
D19*
X112450000Y-29612500D03*
X111500000Y-29612500D03*
X110550000Y-29612500D03*
X110550000Y-31887500D03*
X112450000Y-31887500D03*
D20*
X125250000Y-75500000D03*
X125250000Y-80500000D03*
D21*
X118250000Y-83600000D03*
X118250000Y-72400000D03*
D20*
X110750000Y-78000000D03*
X110750000Y-80500000D03*
D22*
X110750000Y-75500000D03*
D23*
X105400000Y-77050000D03*
X96600000Y-77050000D03*
D24*
X103500000Y-84050000D03*
X101000000Y-84050000D03*
X98500000Y-84050000D03*
D25*
X121475000Y-66750000D03*
X123025000Y-66750000D03*
D26*
X126100000Y-38525000D03*
X126100000Y-40075000D03*
D27*
X89000000Y-83787500D03*
X89000000Y-82212500D03*
D28*
X124462500Y-64500000D03*
X126037500Y-64500000D03*
D29*
X128750000Y-33650000D03*
X128750000Y-32350000D03*
X126750000Y-33000000D03*
D30*
X70137500Y-66725000D03*
X70137500Y-67375000D03*
X70137500Y-68025000D03*
X70137500Y-68675000D03*
X70137500Y-69325000D03*
X70137500Y-69975000D03*
X70137500Y-70625000D03*
X70137500Y-71275000D03*
X75862500Y-71275000D03*
X75862500Y-70625000D03*
X75862500Y-69975000D03*
X75862500Y-69325000D03*
X75862500Y-68675000D03*
X75862500Y-68025000D03*
X75862500Y-67375000D03*
X75862500Y-66725000D03*
D16*
X71425000Y-64000000D03*
X73075000Y-64000000D03*
D31*
X77750000Y-66825000D03*
X77750000Y-65175000D03*
D17*
X122825000Y-54000000D03*
X121175000Y-54000000D03*
D16*
X112175000Y-48500000D03*
X113825000Y-48500000D03*
X74425000Y-65500000D03*
X76075000Y-65500000D03*
D25*
X121475000Y-60750000D03*
X123025000Y-60750000D03*
D32*
X66775000Y-67750000D03*
X65225000Y-67750000D03*
X126025000Y-51750000D03*
X124475000Y-51750000D03*
D33*
X130250000Y-83250000D03*
D34*
X119250000Y-54650000D03*
D35*
X119250000Y-53350000D03*
D20*
X130250000Y-29750000D03*
X130250000Y-23250000D03*
X125750000Y-29750000D03*
X125750000Y-23250000D03*
D16*
X112175000Y-50000000D03*
X113825000Y-50000000D03*
X112175000Y-47000000D03*
X113825000Y-47000000D03*
D32*
X126025000Y-66000000D03*
X124475000Y-66000000D03*
D31*
X114000000Y-33575000D03*
X114000000Y-31925000D03*
D13*
X91440000Y-58420000D03*
D14*
X88900000Y-58420000D03*
X86360000Y-58420000D03*
X83820000Y-58420000D03*
X81280000Y-58420000D03*
X78740000Y-58420000D03*
X76200000Y-58420000D03*
X73660000Y-58420000D03*
X71120000Y-58420000D03*
X68580000Y-58420000D03*
X66040000Y-58420000D03*
X63500000Y-58420000D03*
X60960000Y-58420000D03*
X58420000Y-58420000D03*
X55880000Y-58420000D03*
D26*
X115250000Y-50725000D03*
X115250000Y-52275000D03*
D31*
X92000000Y-80075000D03*
X92000000Y-78425000D03*
D20*
X78250000Y-84250000D03*
X84750000Y-84250000D03*
X78250000Y-79750000D03*
X84750000Y-79750000D03*
X58750000Y-84250000D03*
X65250000Y-84250000D03*
X58750000Y-79750000D03*
X65250000Y-79750000D03*
D18*
X79250000Y-65175000D03*
X79250000Y-66825000D03*
D13*
X62230000Y-25375000D03*
D14*
X64770000Y-25375000D03*
X67310000Y-25375000D03*
X69850000Y-25375000D03*
X72390000Y-25375000D03*
X74930000Y-25375000D03*
X77470000Y-25375000D03*
X80010000Y-25375000D03*
X82550000Y-25375000D03*
X85090000Y-25375000D03*
X87630000Y-25375000D03*
X90170000Y-25375000D03*
X92710000Y-25375000D03*
X95250000Y-25375000D03*
X97790000Y-25375000D03*
X100330000Y-25375000D03*
D36*
X100250000Y-41050000D03*
X100250000Y-38950000D03*
D37*
X105800000Y-38750000D03*
X102200000Y-38750000D03*
D26*
X106750000Y-42225000D03*
X106750000Y-43775000D03*
D18*
X117250000Y-57925000D03*
X117250000Y-59575000D03*
D32*
X126025000Y-47250000D03*
X124475000Y-47250000D03*
D38*
X124000000Y-40100000D03*
D39*
X117700000Y-37800000D03*
D38*
X124000000Y-37800000D03*
X124000000Y-35500000D03*
D18*
X114250000Y-57925000D03*
X114250000Y-59575000D03*
D13*
X128750000Y-62500000D03*
D14*
X128750000Y-65040000D03*
D16*
X112175000Y-64250000D03*
X113825000Y-64250000D03*
D31*
X89000000Y-80075000D03*
X89000000Y-78425000D03*
D16*
X71425000Y-65500000D03*
X73075000Y-65500000D03*
D40*
X68250000Y-72525000D03*
X68250000Y-70975000D03*
D18*
X115750000Y-43675000D03*
X115750000Y-45325000D03*
D31*
X130500000Y-33825000D03*
X130500000Y-32175000D03*
D41*
X117475000Y-51437500D03*
X117975000Y-51437500D03*
X118475000Y-51437500D03*
X118975000Y-51437500D03*
X119475000Y-51437500D03*
X119975000Y-51437500D03*
D42*
X120662500Y-50750000D03*
X120662500Y-50250000D03*
X120662500Y-49750000D03*
X120662500Y-49250000D03*
X120662500Y-48750000D03*
X120662500Y-48250000D03*
D41*
X119975000Y-47562500D03*
X119475000Y-47562500D03*
X118975000Y-47562500D03*
X118475000Y-47562500D03*
X117975000Y-47562500D03*
X117475000Y-47562500D03*
D42*
X116787500Y-48250000D03*
X116787500Y-48750000D03*
X116787500Y-49250000D03*
X116787500Y-49750000D03*
X116787500Y-50250000D03*
X116787500Y-50750000D03*
D43*
X118725000Y-49500000D03*
D27*
X92000000Y-83787500D03*
X92000000Y-82212500D03*
D26*
X115250000Y-64975000D03*
X115250000Y-66525000D03*
D28*
X65962500Y-74000000D03*
X67537500Y-74000000D03*
X124462500Y-63000000D03*
X126037500Y-63000000D03*
D15*
X122500000Y-50975000D03*
X122500000Y-48025000D03*
D44*
X102862500Y-42300000D03*
X102862500Y-43250000D03*
X102862500Y-44200000D03*
X105137500Y-44200000D03*
X105137500Y-42300000D03*
D28*
X124462500Y-48750000D03*
X126037500Y-48750000D03*
X124462500Y-50250000D03*
X126037500Y-50250000D03*
D40*
X69750000Y-65525000D03*
X69750000Y-63975000D03*
D33*
X54250000Y-83250000D03*
D34*
X119250000Y-68900000D03*
D35*
X119250000Y-67600000D03*
D25*
X121475000Y-52500000D03*
X123025000Y-52500000D03*
D13*
X91440000Y-33020000D03*
D14*
X88900000Y-33020000D03*
X86360000Y-33020000D03*
X83820000Y-33020000D03*
X81280000Y-33020000D03*
X78740000Y-33020000D03*
X76200000Y-33020000D03*
X73660000Y-33020000D03*
X71120000Y-33020000D03*
X68580000Y-33020000D03*
X66040000Y-33020000D03*
X63500000Y-33020000D03*
X60960000Y-33020000D03*
X58420000Y-33020000D03*
X55880000Y-33020000D03*
D31*
X73250000Y-74075000D03*
X73250000Y-72425000D03*
D45*
X119250000Y-58600000D03*
D46*
X119250000Y-59900000D03*
D17*
X122825000Y-45000000D03*
X121175000Y-45000000D03*
D18*
X71750000Y-72425000D03*
X71750000Y-74075000D03*
D27*
X66500000Y-72537500D03*
X66500000Y-70962500D03*
D20*
X75000000Y-84250000D03*
X68500000Y-84250000D03*
X75000000Y-79750000D03*
X68500000Y-79750000D03*
D26*
X70250000Y-72475000D03*
X70250000Y-74025000D03*
D17*
X122825000Y-68250000D03*
X121175000Y-68250000D03*
D18*
X115750000Y-57925000D03*
X115750000Y-59575000D03*
D25*
X66725000Y-69500000D03*
X68275000Y-69500000D03*
D32*
X126025000Y-61500000D03*
X124475000Y-61500000D03*
D16*
X113925000Y-30500000D03*
X115575000Y-30500000D03*
D26*
X101250000Y-42225000D03*
X101250000Y-43775000D03*
D33*
X54250000Y-24250000D03*
X130250000Y-39750000D03*
D25*
X121475000Y-46500000D03*
X123025000Y-46500000D03*
D17*
X99825000Y-43750000D03*
X98175000Y-43750000D03*
D45*
X119250000Y-44350000D03*
D46*
X119250000Y-45650000D03*
D25*
X110725000Y-28000000D03*
X112275000Y-28000000D03*
D32*
X66775000Y-66250000D03*
X65225000Y-66250000D03*
D16*
X112175000Y-62750000D03*
X113825000Y-62750000D03*
D18*
X117250000Y-43675000D03*
X117250000Y-45325000D03*
D16*
X128425000Y-35500000D03*
X130075000Y-35500000D03*
D41*
X117475000Y-65687500D03*
X117975000Y-65687500D03*
X118475000Y-65687500D03*
X118975000Y-65687500D03*
X119475000Y-65687500D03*
X119975000Y-65687500D03*
D42*
X120662500Y-65000000D03*
X120662500Y-64500000D03*
X120662500Y-64000000D03*
X120662500Y-63500000D03*
X120662500Y-63000000D03*
X120662500Y-62500000D03*
D41*
X119975000Y-61812500D03*
X119475000Y-61812500D03*
X118975000Y-61812500D03*
X118475000Y-61812500D03*
X117975000Y-61812500D03*
X117475000Y-61812500D03*
D42*
X116787500Y-62500000D03*
X116787500Y-63000000D03*
X116787500Y-63500000D03*
X116787500Y-64000000D03*
X116787500Y-64500000D03*
X116787500Y-65000000D03*
D43*
X118725000Y-63750000D03*
D40*
X64750000Y-72525000D03*
X64750000Y-70975000D03*
D26*
X126100000Y-35525000D03*
X126100000Y-37075000D03*
D13*
X111725000Y-25250000D03*
D14*
X114265000Y-25250000D03*
D19*
X122950000Y-27887500D03*
X122000000Y-25612500D03*
X122000000Y-27887500D03*
X122950000Y-25612500D03*
X121050000Y-25612500D03*
X121050000Y-27887500D03*
D25*
X110725000Y-33500000D03*
X112275000Y-33500000D03*
D28*
X113962500Y-29000000D03*
X115537500Y-29000000D03*
M02*
