G04 #@! TF.GenerationSoftware,KiCad,Pcbnew,(6.0.7)*
G04 #@! TF.CreationDate,2022-10-03T20:14:31+03:00*
G04 #@! TF.ProjectId,ESP32_blAudio_portable,45535033-325f-4626-9c41-7564696f5f70,rev?*
G04 #@! TF.SameCoordinates,Original*
G04 #@! TF.FileFunction,Soldermask,Bot*
G04 #@! TF.FilePolarity,Negative*
%FSLAX46Y46*%
G04 Gerber Fmt 4.6, Leading zero omitted, Abs format (unit mm)*
G04 Created by KiCad (PCBNEW (6.0.7)) date 2022-10-03 20:14:31*
%MOMM*%
%LPD*%
G01*
G04 APERTURE LIST*
G04 Aperture macros list*
%AMRoundRect*
0 Rectangle with rounded corners*
0 $1 Rounding radius*
0 $2 $3 $4 $5 $6 $7 $8 $9 X,Y pos of 4 corners*
0 Add a 4 corners polygon primitive as box body*
4,1,4,$2,$3,$4,$5,$6,$7,$8,$9,$2,$3,0*
0 Add four circle primitives for the rounded corners*
1,1,$1+$1,$2,$3*
1,1,$1+$1,$4,$5*
1,1,$1+$1,$6,$7*
1,1,$1+$1,$8,$9*
0 Add four rect primitives between the rounded corners*
20,1,$1+$1,$2,$3,$4,$5,0*
20,1,$1+$1,$4,$5,$6,$7,0*
20,1,$1+$1,$6,$7,$8,$9,0*
20,1,$1+$1,$8,$9,$2,$3,0*%
%AMFreePoly0*
4,1,22,0.500000,-0.750000,0.000000,-0.750000,0.000000,-0.745033,-0.079941,-0.743568,-0.215256,-0.701293,-0.333266,-0.622738,-0.424486,-0.514219,-0.481581,-0.384460,-0.499164,-0.250000,-0.500000,-0.250000,-0.500000,0.250000,-0.499164,0.250000,-0.499963,0.256109,-0.478152,0.396186,-0.417904,0.524511,-0.324060,0.630769,-0.204165,0.706417,-0.067858,0.745374,0.000000,0.744959,0.000000,0.750000,
0.500000,0.750000,0.500000,-0.750000,0.500000,-0.750000,$1*%
%AMFreePoly1*
4,1,20,0.000000,0.744959,0.073905,0.744508,0.209726,0.703889,0.328688,0.626782,0.421226,0.519385,0.479903,0.390333,0.500000,0.250000,0.500000,-0.250000,0.499851,-0.262216,0.476331,-0.402017,0.414519,-0.529596,0.319384,-0.634700,0.198574,-0.708877,0.061801,-0.746166,0.000000,-0.745033,0.000000,-0.750000,-0.500000,-0.750000,-0.500000,0.750000,0.000000,0.750000,0.000000,0.744959,
0.000000,0.744959,$1*%
G04 Aperture macros list end*
%ADD10C,1.300000*%
%ADD11RoundRect,0.450000X-0.650000X-0.450000X0.650000X-0.450000X0.650000X0.450000X-0.650000X0.450000X0*%
%ADD12RoundRect,0.450000X0.450000X-0.650000X0.450000X0.650000X-0.450000X0.650000X-0.450000X-0.650000X0*%
%ADD13R,1.700000X1.700000*%
%ADD14O,1.700000X1.700000*%
%ADD15C,2.000000*%
%ADD16R,3.200000X2.000000*%
%ADD17R,2.000000X2.000000*%
%ADD18C,4.000000*%
%ADD19C,1.800000*%
%ADD20C,3.200000*%
%ADD21RoundRect,0.225000X-0.250000X0.225000X-0.250000X-0.225000X0.250000X-0.225000X0.250000X0.225000X0*%
%ADD22FreePoly0,90.000000*%
%ADD23FreePoly1,90.000000*%
%ADD24R,0.700000X0.450000*%
%ADD25RoundRect,0.200000X-0.200000X-0.275000X0.200000X-0.275000X0.200000X0.275000X-0.200000X0.275000X0*%
%ADD26RoundRect,0.200000X0.275000X-0.200000X0.275000X0.200000X-0.275000X0.200000X-0.275000X-0.200000X0*%
%ADD27RoundRect,0.150000X0.150000X-0.875000X0.150000X0.875000X-0.150000X0.875000X-0.150000X-0.875000X0*%
%ADD28R,1.200000X1.200000*%
%ADD29R,1.500000X1.600000*%
G04 APERTURE END LIST*
D10*
X53845000Y-66170000D03*
X53845000Y-72670000D03*
D11*
X58545000Y-66570000D03*
X61145000Y-65170000D03*
X57745000Y-73270000D03*
X60845000Y-71270000D03*
D12*
X52745000Y-69670000D03*
D11*
X61145000Y-68070000D03*
D13*
X128750000Y-48250000D03*
D14*
X128750000Y-50790000D03*
D13*
X118250000Y-25225000D03*
D14*
X118250000Y-27765000D03*
X118250000Y-30305000D03*
D15*
X125250000Y-75500000D03*
X125250000Y-80500000D03*
D16*
X118250000Y-83600000D03*
X118250000Y-72400000D03*
D15*
X110750000Y-78000000D03*
X110750000Y-80500000D03*
D17*
X110750000Y-75500000D03*
D18*
X105400000Y-77050000D03*
X96600000Y-77050000D03*
D19*
X103500000Y-84050000D03*
X101000000Y-84050000D03*
X98500000Y-84050000D03*
D20*
X130250000Y-83250000D03*
D15*
X130250000Y-29750000D03*
X130250000Y-23250000D03*
X125750000Y-29750000D03*
X125750000Y-23250000D03*
D13*
X91440000Y-58420000D03*
D14*
X88900000Y-58420000D03*
X86360000Y-58420000D03*
X83820000Y-58420000D03*
X81280000Y-58420000D03*
X78740000Y-58420000D03*
X76200000Y-58420000D03*
X73660000Y-58420000D03*
X71120000Y-58420000D03*
X68580000Y-58420000D03*
X66040000Y-58420000D03*
X63500000Y-58420000D03*
X60960000Y-58420000D03*
X58420000Y-58420000D03*
X55880000Y-58420000D03*
D15*
X78250000Y-84250000D03*
X84750000Y-84250000D03*
X78250000Y-79750000D03*
X84750000Y-79750000D03*
X58750000Y-84250000D03*
X65250000Y-84250000D03*
X58750000Y-79750000D03*
X65250000Y-79750000D03*
D13*
X62230000Y-25375000D03*
D14*
X64770000Y-25375000D03*
X67310000Y-25375000D03*
X69850000Y-25375000D03*
X72390000Y-25375000D03*
X74930000Y-25375000D03*
X77470000Y-25375000D03*
X80010000Y-25375000D03*
X82550000Y-25375000D03*
X85090000Y-25375000D03*
X87630000Y-25375000D03*
X90170000Y-25375000D03*
X92710000Y-25375000D03*
X95250000Y-25375000D03*
X97790000Y-25375000D03*
X100330000Y-25375000D03*
D13*
X128750000Y-62500000D03*
D14*
X128750000Y-65040000D03*
D20*
X54250000Y-83250000D03*
D13*
X91440000Y-33020000D03*
D14*
X88900000Y-33020000D03*
X86360000Y-33020000D03*
X83820000Y-33020000D03*
X81280000Y-33020000D03*
X78740000Y-33020000D03*
X76200000Y-33020000D03*
X73660000Y-33020000D03*
X71120000Y-33020000D03*
X68580000Y-33020000D03*
X66040000Y-33020000D03*
X63500000Y-33020000D03*
X60960000Y-33020000D03*
X58420000Y-33020000D03*
X55880000Y-33020000D03*
D15*
X75000000Y-84250000D03*
X68500000Y-84250000D03*
X75000000Y-79750000D03*
X68500000Y-79750000D03*
D20*
X54250000Y-24250000D03*
X130250000Y-39750000D03*
D13*
X111725000Y-25250000D03*
D14*
X114265000Y-25250000D03*
D21*
X105750000Y-29225000D03*
X105750000Y-30775000D03*
D22*
X101750000Y-42150000D03*
D23*
X101750000Y-40850000D03*
D24*
X105250000Y-24850000D03*
X105250000Y-26150000D03*
X103250000Y-25500000D03*
D25*
X70925000Y-78750000D03*
X72575000Y-78750000D03*
X61175000Y-78750000D03*
X62825000Y-78750000D03*
X105675000Y-39000000D03*
X107325000Y-39000000D03*
D22*
X104250000Y-42150000D03*
D23*
X104250000Y-40850000D03*
D26*
X81250000Y-37325000D03*
X81250000Y-35675000D03*
D27*
X103945000Y-38400000D03*
X102675000Y-38400000D03*
X101405000Y-38400000D03*
X100135000Y-38400000D03*
X98865000Y-38400000D03*
X97595000Y-38400000D03*
X96325000Y-38400000D03*
X95055000Y-38400000D03*
X95055000Y-29100000D03*
X96325000Y-29100000D03*
X97595000Y-29100000D03*
X98865000Y-29100000D03*
X100135000Y-29100000D03*
X101405000Y-29100000D03*
X102675000Y-29100000D03*
X103945000Y-29100000D03*
D28*
X62200000Y-29750000D03*
D29*
X65450000Y-28750000D03*
D28*
X62200000Y-27750000D03*
D25*
X105675000Y-37500000D03*
X107325000Y-37500000D03*
X105675000Y-36000000D03*
X107325000Y-36000000D03*
X80675000Y-78750000D03*
X82325000Y-78750000D03*
D22*
X106750000Y-42150000D03*
D23*
X106750000Y-40850000D03*
D26*
X83750000Y-37325000D03*
X83750000Y-35675000D03*
M02*
