G04 #@! TF.GenerationSoftware,KiCad,Pcbnew,(6.0.7)*
G04 #@! TF.CreationDate,2022-10-03T20:14:31+03:00*
G04 #@! TF.ProjectId,ESP32_blAudio_portable,45535033-325f-4626-9c41-7564696f5f70,rev?*
G04 #@! TF.SameCoordinates,Original*
G04 #@! TF.FileFunction,Legend,Bot*
G04 #@! TF.FilePolarity,Positive*
%FSLAX46Y46*%
G04 Gerber Fmt 4.6, Leading zero omitted, Abs format (unit mm)*
G04 Created by KiCad (PCBNEW (6.0.7)) date 2022-10-03 20:14:31*
%MOMM*%
%LPD*%
G01*
G04 APERTURE LIST*
G04 Aperture macros list*
%AMRoundRect*
0 Rectangle with rounded corners*
0 $1 Rounding radius*
0 $2 $3 $4 $5 $6 $7 $8 $9 X,Y pos of 4 corners*
0 Add a 4 corners polygon primitive as box body*
4,1,4,$2,$3,$4,$5,$6,$7,$8,$9,$2,$3,0*
0 Add four circle primitives for the rounded corners*
1,1,$1+$1,$2,$3*
1,1,$1+$1,$4,$5*
1,1,$1+$1,$6,$7*
1,1,$1+$1,$8,$9*
0 Add four rect primitives between the rounded corners*
20,1,$1+$1,$2,$3,$4,$5,0*
20,1,$1+$1,$4,$5,$6,$7,0*
20,1,$1+$1,$6,$7,$8,$9,0*
20,1,$1+$1,$8,$9,$2,$3,0*%
%AMFreePoly0*
4,1,22,0.500000,-0.750000,0.000000,-0.750000,0.000000,-0.745033,-0.079941,-0.743568,-0.215256,-0.701293,-0.333266,-0.622738,-0.424486,-0.514219,-0.481581,-0.384460,-0.499164,-0.250000,-0.500000,-0.250000,-0.500000,0.250000,-0.499164,0.250000,-0.499963,0.256109,-0.478152,0.396186,-0.417904,0.524511,-0.324060,0.630769,-0.204165,0.706417,-0.067858,0.745374,0.000000,0.744959,0.000000,0.750000,
0.500000,0.750000,0.500000,-0.750000,0.500000,-0.750000,$1*%
%AMFreePoly1*
4,1,20,0.000000,0.744959,0.073905,0.744508,0.209726,0.703889,0.328688,0.626782,0.421226,0.519385,0.479903,0.390333,0.500000,0.250000,0.500000,-0.250000,0.499851,-0.262216,0.476331,-0.402017,0.414519,-0.529596,0.319384,-0.634700,0.198574,-0.708877,0.061801,-0.746166,0.000000,-0.745033,0.000000,-0.750000,-0.500000,-0.750000,-0.500000,0.750000,0.000000,0.750000,0.000000,0.744959,
0.000000,0.744959,$1*%
G04 Aperture macros list end*
%ADD10C,0.150000*%
%ADD11C,0.120000*%
%ADD12C,1.300000*%
%ADD13RoundRect,0.450000X-0.650000X-0.450000X0.650000X-0.450000X0.650000X0.450000X-0.650000X0.450000X0*%
%ADD14RoundRect,0.450000X0.450000X-0.650000X0.450000X0.650000X-0.450000X0.650000X-0.450000X-0.650000X0*%
%ADD15R,1.700000X1.700000*%
%ADD16O,1.700000X1.700000*%
%ADD17C,2.000000*%
%ADD18R,3.200000X2.000000*%
%ADD19R,2.000000X2.000000*%
%ADD20C,4.000000*%
%ADD21C,1.800000*%
%ADD22C,3.200000*%
%ADD23RoundRect,0.225000X-0.250000X0.225000X-0.250000X-0.225000X0.250000X-0.225000X0.250000X0.225000X0*%
%ADD24FreePoly0,90.000000*%
%ADD25FreePoly1,90.000000*%
%ADD26R,0.700000X0.450000*%
%ADD27RoundRect,0.200000X-0.200000X-0.275000X0.200000X-0.275000X0.200000X0.275000X-0.200000X0.275000X0*%
%ADD28RoundRect,0.200000X0.275000X-0.200000X0.275000X0.200000X-0.275000X0.200000X-0.275000X-0.200000X0*%
%ADD29RoundRect,0.150000X0.150000X-0.875000X0.150000X0.875000X-0.150000X0.875000X-0.150000X-0.875000X0*%
%ADD30R,1.200000X1.200000*%
%ADD31R,1.500000X1.600000*%
G04 APERTURE END LIST*
D10*
X107607142Y-29216562D02*
X107654761Y-29168943D01*
X107702380Y-29026086D01*
X107702380Y-28930848D01*
X107654761Y-28787991D01*
X107559523Y-28692753D01*
X107464285Y-28645134D01*
X107273809Y-28597515D01*
X107130952Y-28597515D01*
X106940476Y-28645134D01*
X106845238Y-28692753D01*
X106750000Y-28787991D01*
X106702380Y-28930848D01*
X106702380Y-29026086D01*
X106750000Y-29168943D01*
X106797619Y-29216562D01*
X106797619Y-29597515D02*
X106750000Y-29645134D01*
X106702380Y-29740372D01*
X106702380Y-29978467D01*
X106750000Y-30073705D01*
X106797619Y-30121324D01*
X106892857Y-30168943D01*
X106988095Y-30168943D01*
X107130952Y-30121324D01*
X107702380Y-29549896D01*
X107702380Y-30168943D01*
X107035714Y-31026086D02*
X107702380Y-31026086D01*
X106654761Y-30787991D02*
X107369047Y-30549896D01*
X107369047Y-31168943D01*
X101202380Y-43416666D02*
X101916666Y-43416666D01*
X102059523Y-43369047D01*
X102154761Y-43273809D01*
X102202380Y-43130952D01*
X102202380Y-43035714D01*
X102202380Y-43892857D02*
X101202380Y-43892857D01*
X101202380Y-44273809D01*
X101250000Y-44369047D01*
X101297619Y-44416666D01*
X101392857Y-44464285D01*
X101535714Y-44464285D01*
X101630952Y-44416666D01*
X101678571Y-44369047D01*
X101726190Y-44273809D01*
X101726190Y-43892857D01*
X101630952Y-45035714D02*
X101583333Y-44940476D01*
X101535714Y-44892857D01*
X101440476Y-44845238D01*
X101392857Y-44845238D01*
X101297619Y-44892857D01*
X101250000Y-44940476D01*
X101202380Y-45035714D01*
X101202380Y-45226190D01*
X101250000Y-45321428D01*
X101297619Y-45369047D01*
X101392857Y-45416666D01*
X101440476Y-45416666D01*
X101535714Y-45369047D01*
X101583333Y-45321428D01*
X101630952Y-45226190D01*
X101630952Y-45035714D01*
X101678571Y-44940476D01*
X101726190Y-44892857D01*
X101821428Y-44845238D01*
X102011904Y-44845238D01*
X102107142Y-44892857D01*
X102154761Y-44940476D01*
X102202380Y-45035714D01*
X102202380Y-45226190D01*
X102154761Y-45321428D01*
X102107142Y-45369047D01*
X102011904Y-45416666D01*
X101821428Y-45416666D01*
X101726190Y-45369047D01*
X101678571Y-45321428D01*
X101630952Y-45226190D01*
X104395238Y-24097619D02*
X104490476Y-24050000D01*
X104585714Y-23954761D01*
X104728571Y-23811904D01*
X104823809Y-23764285D01*
X104919047Y-23764285D01*
X104871428Y-24002380D02*
X104966666Y-23954761D01*
X105061904Y-23859523D01*
X105109523Y-23669047D01*
X105109523Y-23335714D01*
X105061904Y-23145238D01*
X104966666Y-23050000D01*
X104871428Y-23002380D01*
X104680952Y-23002380D01*
X104585714Y-23050000D01*
X104490476Y-23145238D01*
X104442857Y-23335714D01*
X104442857Y-23669047D01*
X104490476Y-23859523D01*
X104585714Y-23954761D01*
X104680952Y-24002380D01*
X104871428Y-24002380D01*
X104109523Y-23002380D02*
X103490476Y-23002380D01*
X103823809Y-23383333D01*
X103680952Y-23383333D01*
X103585714Y-23430952D01*
X103538095Y-23478571D01*
X103490476Y-23573809D01*
X103490476Y-23811904D01*
X103538095Y-23907142D01*
X103585714Y-23954761D01*
X103680952Y-24002380D01*
X103966666Y-24002380D01*
X104061904Y-23954761D01*
X104109523Y-23907142D01*
X71916666Y-80632380D02*
X72250000Y-80156190D01*
X72488095Y-80632380D02*
X72488095Y-79632380D01*
X72107142Y-79632380D01*
X72011904Y-79680000D01*
X71964285Y-79727619D01*
X71916666Y-79822857D01*
X71916666Y-79965714D01*
X71964285Y-80060952D01*
X72011904Y-80108571D01*
X72107142Y-80156190D01*
X72488095Y-80156190D01*
X71535714Y-79727619D02*
X71488095Y-79680000D01*
X71392857Y-79632380D01*
X71154761Y-79632380D01*
X71059523Y-79680000D01*
X71011904Y-79727619D01*
X70964285Y-79822857D01*
X70964285Y-79918095D01*
X71011904Y-80060952D01*
X71583333Y-80632380D01*
X70964285Y-80632380D01*
X62166666Y-80632380D02*
X62500000Y-80156190D01*
X62738095Y-80632380D02*
X62738095Y-79632380D01*
X62357142Y-79632380D01*
X62261904Y-79680000D01*
X62214285Y-79727619D01*
X62166666Y-79822857D01*
X62166666Y-79965714D01*
X62214285Y-80060952D01*
X62261904Y-80108571D01*
X62357142Y-80156190D01*
X62738095Y-80156190D01*
X61261904Y-79632380D02*
X61738095Y-79632380D01*
X61785714Y-80108571D01*
X61738095Y-80060952D01*
X61642857Y-80013333D01*
X61404761Y-80013333D01*
X61309523Y-80060952D01*
X61261904Y-80108571D01*
X61214285Y-80203809D01*
X61214285Y-80441904D01*
X61261904Y-80537142D01*
X61309523Y-80584761D01*
X61404761Y-80632380D01*
X61642857Y-80632380D01*
X61738095Y-80584761D01*
X61785714Y-80537142D01*
X110142857Y-39452380D02*
X110476190Y-38976190D01*
X110714285Y-39452380D02*
X110714285Y-38452380D01*
X110333333Y-38452380D01*
X110238095Y-38500000D01*
X110190476Y-38547619D01*
X110142857Y-38642857D01*
X110142857Y-38785714D01*
X110190476Y-38880952D01*
X110238095Y-38928571D01*
X110333333Y-38976190D01*
X110714285Y-38976190D01*
X109285714Y-38785714D02*
X109285714Y-39452380D01*
X109523809Y-38404761D02*
X109761904Y-39119047D01*
X109142857Y-39119047D01*
X108238095Y-39452380D02*
X108809523Y-39452380D01*
X108523809Y-39452380D02*
X108523809Y-38452380D01*
X108619047Y-38595238D01*
X108714285Y-38690476D01*
X108809523Y-38738095D01*
X103702380Y-43416666D02*
X104416666Y-43416666D01*
X104559523Y-43369047D01*
X104654761Y-43273809D01*
X104702380Y-43130952D01*
X104702380Y-43035714D01*
X104702380Y-43892857D02*
X103702380Y-43892857D01*
X103702380Y-44273809D01*
X103750000Y-44369047D01*
X103797619Y-44416666D01*
X103892857Y-44464285D01*
X104035714Y-44464285D01*
X104130952Y-44416666D01*
X104178571Y-44369047D01*
X104226190Y-44273809D01*
X104226190Y-43892857D01*
X103702380Y-44797619D02*
X103702380Y-45464285D01*
X104702380Y-45035714D01*
X80452380Y-35857142D02*
X79976190Y-35523809D01*
X80452380Y-35285714D02*
X79452380Y-35285714D01*
X79452380Y-35666666D01*
X79500000Y-35761904D01*
X79547619Y-35809523D01*
X79642857Y-35857142D01*
X79785714Y-35857142D01*
X79880952Y-35809523D01*
X79928571Y-35761904D01*
X79976190Y-35666666D01*
X79976190Y-35285714D01*
X80452380Y-36809523D02*
X80452380Y-36238095D01*
X80452380Y-36523809D02*
X79452380Y-36523809D01*
X79595238Y-36428571D01*
X79690476Y-36333333D01*
X79738095Y-36238095D01*
X79785714Y-37666666D02*
X80452380Y-37666666D01*
X79404761Y-37428571D02*
X80119047Y-37190476D01*
X80119047Y-37809523D01*
X105052380Y-32988095D02*
X105861904Y-32988095D01*
X105957142Y-33035714D01*
X106004761Y-33083333D01*
X106052380Y-33178571D01*
X106052380Y-33369047D01*
X106004761Y-33464285D01*
X105957142Y-33511904D01*
X105861904Y-33559523D01*
X105052380Y-33559523D01*
X105052380Y-34464285D02*
X105052380Y-34273809D01*
X105100000Y-34178571D01*
X105147619Y-34130952D01*
X105290476Y-34035714D01*
X105480952Y-33988095D01*
X105861904Y-33988095D01*
X105957142Y-34035714D01*
X106004761Y-34083333D01*
X106052380Y-34178571D01*
X106052380Y-34369047D01*
X106004761Y-34464285D01*
X105957142Y-34511904D01*
X105861904Y-34559523D01*
X105623809Y-34559523D01*
X105528571Y-34511904D01*
X105480952Y-34464285D01*
X105433333Y-34369047D01*
X105433333Y-34178571D01*
X105480952Y-34083333D01*
X105528571Y-34035714D01*
X105623809Y-33988095D01*
X67452380Y-28154761D02*
X66976190Y-27821428D01*
X67452380Y-27583333D02*
X66452380Y-27583333D01*
X66452380Y-27964285D01*
X66500000Y-28059523D01*
X66547619Y-28107142D01*
X66642857Y-28154761D01*
X66785714Y-28154761D01*
X66880952Y-28107142D01*
X66928571Y-28059523D01*
X66976190Y-27964285D01*
X66976190Y-27583333D01*
X66452380Y-28440476D02*
X67452380Y-28773809D01*
X66452380Y-29107142D01*
X66547619Y-29392857D02*
X66500000Y-29440476D01*
X66452380Y-29535714D01*
X66452380Y-29773809D01*
X66500000Y-29869047D01*
X66547619Y-29916666D01*
X66642857Y-29964285D01*
X66738095Y-29964285D01*
X66880952Y-29916666D01*
X67452380Y-29345238D01*
X67452380Y-29964285D01*
X110142857Y-37952380D02*
X110476190Y-37476190D01*
X110714285Y-37952380D02*
X110714285Y-36952380D01*
X110333333Y-36952380D01*
X110238095Y-37000000D01*
X110190476Y-37047619D01*
X110142857Y-37142857D01*
X110142857Y-37285714D01*
X110190476Y-37380952D01*
X110238095Y-37428571D01*
X110333333Y-37476190D01*
X110714285Y-37476190D01*
X109285714Y-37285714D02*
X109285714Y-37952380D01*
X109523809Y-36904761D02*
X109761904Y-37619047D01*
X109142857Y-37619047D01*
X108809523Y-37047619D02*
X108761904Y-37000000D01*
X108666666Y-36952380D01*
X108428571Y-36952380D01*
X108333333Y-37000000D01*
X108285714Y-37047619D01*
X108238095Y-37142857D01*
X108238095Y-37238095D01*
X108285714Y-37380952D01*
X108857142Y-37952380D01*
X108238095Y-37952380D01*
X110142857Y-36452380D02*
X110476190Y-35976190D01*
X110714285Y-36452380D02*
X110714285Y-35452380D01*
X110333333Y-35452380D01*
X110238095Y-35500000D01*
X110190476Y-35547619D01*
X110142857Y-35642857D01*
X110142857Y-35785714D01*
X110190476Y-35880952D01*
X110238095Y-35928571D01*
X110333333Y-35976190D01*
X110714285Y-35976190D01*
X109285714Y-35785714D02*
X109285714Y-36452380D01*
X109523809Y-35404761D02*
X109761904Y-36119047D01*
X109142857Y-36119047D01*
X108285714Y-35452380D02*
X108761904Y-35452380D01*
X108809523Y-35928571D01*
X108761904Y-35880952D01*
X108666666Y-35833333D01*
X108428571Y-35833333D01*
X108333333Y-35880952D01*
X108285714Y-35928571D01*
X108238095Y-36023809D01*
X108238095Y-36261904D01*
X108285714Y-36357142D01*
X108333333Y-36404761D01*
X108428571Y-36452380D01*
X108666666Y-36452380D01*
X108761904Y-36404761D01*
X108809523Y-36357142D01*
X81666666Y-80632380D02*
X82000000Y-80156190D01*
X82238095Y-80632380D02*
X82238095Y-79632380D01*
X81857142Y-79632380D01*
X81761904Y-79680000D01*
X81714285Y-79727619D01*
X81666666Y-79822857D01*
X81666666Y-79965714D01*
X81714285Y-80060952D01*
X81761904Y-80108571D01*
X81857142Y-80156190D01*
X82238095Y-80156190D01*
X80714285Y-80632380D02*
X81285714Y-80632380D01*
X81000000Y-80632380D02*
X81000000Y-79632380D01*
X81095238Y-79775238D01*
X81190476Y-79870476D01*
X81285714Y-79918095D01*
X106202380Y-43416666D02*
X106916666Y-43416666D01*
X107059523Y-43369047D01*
X107154761Y-43273809D01*
X107202380Y-43130952D01*
X107202380Y-43035714D01*
X107202380Y-43892857D02*
X106202380Y-43892857D01*
X106202380Y-44273809D01*
X106250000Y-44369047D01*
X106297619Y-44416666D01*
X106392857Y-44464285D01*
X106535714Y-44464285D01*
X106630952Y-44416666D01*
X106678571Y-44369047D01*
X106726190Y-44273809D01*
X106726190Y-43892857D01*
X106202380Y-45321428D02*
X106202380Y-45130952D01*
X106250000Y-45035714D01*
X106297619Y-44988095D01*
X106440476Y-44892857D01*
X106630952Y-44845238D01*
X107011904Y-44845238D01*
X107107142Y-44892857D01*
X107154761Y-44940476D01*
X107202380Y-45035714D01*
X107202380Y-45226190D01*
X107154761Y-45321428D01*
X107107142Y-45369047D01*
X107011904Y-45416666D01*
X106773809Y-45416666D01*
X106678571Y-45369047D01*
X106630952Y-45321428D01*
X106583333Y-45226190D01*
X106583333Y-45035714D01*
X106630952Y-44940476D01*
X106678571Y-44892857D01*
X106773809Y-44845238D01*
X85632380Y-35857142D02*
X85156190Y-35523809D01*
X85632380Y-35285714D02*
X84632380Y-35285714D01*
X84632380Y-35666666D01*
X84680000Y-35761904D01*
X84727619Y-35809523D01*
X84822857Y-35857142D01*
X84965714Y-35857142D01*
X85060952Y-35809523D01*
X85108571Y-35761904D01*
X85156190Y-35666666D01*
X85156190Y-35285714D01*
X85632380Y-36809523D02*
X85632380Y-36238095D01*
X85632380Y-36523809D02*
X84632380Y-36523809D01*
X84775238Y-36428571D01*
X84870476Y-36333333D01*
X84918095Y-36238095D01*
X84632380Y-37714285D02*
X84632380Y-37238095D01*
X85108571Y-37190476D01*
X85060952Y-37238095D01*
X85013333Y-37333333D01*
X85013333Y-37571428D01*
X85060952Y-37666666D01*
X85108571Y-37714285D01*
X85203809Y-37761904D01*
X85441904Y-37761904D01*
X85537142Y-37714285D01*
X85584761Y-37666666D01*
X85632380Y-37571428D01*
X85632380Y-37333333D01*
X85584761Y-37238095D01*
X85537142Y-37190476D01*
D11*
X106260000Y-29859420D02*
X106260000Y-30140580D01*
X105240000Y-29859420D02*
X105240000Y-30140580D01*
X102050000Y-40100000D02*
X101450000Y-40100000D01*
X102750000Y-42200000D02*
X102750000Y-40800000D01*
X101450000Y-42900000D02*
X102050000Y-42900000D01*
X100750000Y-40800000D02*
X100750000Y-42200000D01*
X101450000Y-40100000D02*
G75*
G03*
X100750000Y-40800000I0J-700000D01*
G01*
X102050000Y-42900000D02*
G75*
G03*
X102750000Y-42200000I1J699999D01*
G01*
X100750000Y-42200000D02*
G75*
G03*
X101450000Y-42900000I699999J-1D01*
G01*
X102750000Y-40800000D02*
G75*
G03*
X102050000Y-40100000I-700000J0D01*
G01*
X103520000Y-26000000D02*
X103520000Y-26660000D01*
X103520000Y-24340000D02*
X103520000Y-25000000D01*
X104930000Y-26660000D02*
X103520000Y-26660000D01*
X103520000Y-24340000D02*
X105550000Y-24340000D01*
X71512742Y-79272500D02*
X71987258Y-79272500D01*
X71512742Y-78227500D02*
X71987258Y-78227500D01*
X61762742Y-79272500D02*
X62237258Y-79272500D01*
X61762742Y-78227500D02*
X62237258Y-78227500D01*
X106262742Y-39522500D02*
X106737258Y-39522500D01*
X106262742Y-38477500D02*
X106737258Y-38477500D01*
X105250000Y-42200000D02*
X105250000Y-40800000D01*
X103950000Y-42900000D02*
X104550000Y-42900000D01*
X104550000Y-40100000D02*
X103950000Y-40100000D01*
X103250000Y-40800000D02*
X103250000Y-42200000D01*
X105250000Y-40800000D02*
G75*
G03*
X104550000Y-40100000I-700000J0D01*
G01*
X103950000Y-40100000D02*
G75*
G03*
X103250000Y-40800000I0J-700000D01*
G01*
X104550000Y-42900000D02*
G75*
G03*
X105250000Y-42200000I1J699999D01*
G01*
X103250000Y-42200000D02*
G75*
G03*
X103950000Y-42900000I699999J-1D01*
G01*
X80727500Y-36737258D02*
X80727500Y-36262742D01*
X81772500Y-36737258D02*
X81772500Y-36262742D01*
X94240000Y-33750000D02*
X94240000Y-29890000D01*
X104760000Y-33750000D02*
X104760000Y-37610000D01*
X104760000Y-37610000D02*
X104505000Y-37610000D01*
X104760000Y-29890000D02*
X104505000Y-29890000D01*
X104505000Y-37610000D02*
X104505000Y-39425000D01*
X94240000Y-29890000D02*
X94495000Y-29890000D01*
X104760000Y-33750000D02*
X104760000Y-29890000D01*
X94240000Y-37610000D02*
X94495000Y-37610000D01*
X94240000Y-33750000D02*
X94240000Y-37610000D01*
D10*
X62000000Y-30250000D02*
X62000000Y-27250000D01*
X65750000Y-30250000D02*
X65750000Y-27250000D01*
X62000000Y-30250000D02*
X65750000Y-30250000D01*
X64400000Y-28750000D02*
X63600000Y-28750000D01*
X65750000Y-27250000D02*
X62000000Y-27250000D01*
X64000000Y-29150000D02*
X64000000Y-28350000D01*
X65800000Y-28750000D02*
G75*
G03*
X65800000Y-28750000I-1800000J0D01*
G01*
D11*
X106262742Y-36977500D02*
X106737258Y-36977500D01*
X106262742Y-38022500D02*
X106737258Y-38022500D01*
X106262742Y-36522500D02*
X106737258Y-36522500D01*
X106262742Y-35477500D02*
X106737258Y-35477500D01*
X81262742Y-78227500D02*
X81737258Y-78227500D01*
X81262742Y-79272500D02*
X81737258Y-79272500D01*
X107750000Y-42200000D02*
X107750000Y-40800000D01*
X106450000Y-42900000D02*
X107050000Y-42900000D01*
X107050000Y-40100000D02*
X106450000Y-40100000D01*
X105750000Y-40800000D02*
X105750000Y-42200000D01*
X106450000Y-40100000D02*
G75*
G03*
X105750000Y-40800000I0J-700000D01*
G01*
X107750000Y-40800000D02*
G75*
G03*
X107050000Y-40100000I-700000J0D01*
G01*
X107050000Y-42900000D02*
G75*
G03*
X107750000Y-42200000I1J699999D01*
G01*
X105750000Y-42200000D02*
G75*
G03*
X106450000Y-42900000I699999J-1D01*
G01*
X83227500Y-36737258D02*
X83227500Y-36262742D01*
X84272500Y-36737258D02*
X84272500Y-36262742D01*
%LPC*%
D12*
X53845000Y-66170000D03*
X53845000Y-72670000D03*
D13*
X58545000Y-66570000D03*
X61145000Y-65170000D03*
X57745000Y-73270000D03*
X60845000Y-71270000D03*
D14*
X52745000Y-69670000D03*
D13*
X61145000Y-68070000D03*
D15*
X128750000Y-48250000D03*
D16*
X128750000Y-50790000D03*
D15*
X118250000Y-25225000D03*
D16*
X118250000Y-27765000D03*
X118250000Y-30305000D03*
D17*
X125250000Y-75500000D03*
X125250000Y-80500000D03*
D18*
X118250000Y-83600000D03*
X118250000Y-72400000D03*
D17*
X110750000Y-78000000D03*
X110750000Y-80500000D03*
D19*
X110750000Y-75500000D03*
D20*
X105400000Y-77050000D03*
X96600000Y-77050000D03*
D21*
X103500000Y-84050000D03*
X101000000Y-84050000D03*
X98500000Y-84050000D03*
D22*
X130250000Y-83250000D03*
D17*
X130250000Y-29750000D03*
X130250000Y-23250000D03*
X125750000Y-29750000D03*
X125750000Y-23250000D03*
D15*
X91440000Y-58420000D03*
D16*
X88900000Y-58420000D03*
X86360000Y-58420000D03*
X83820000Y-58420000D03*
X81280000Y-58420000D03*
X78740000Y-58420000D03*
X76200000Y-58420000D03*
X73660000Y-58420000D03*
X71120000Y-58420000D03*
X68580000Y-58420000D03*
X66040000Y-58420000D03*
X63500000Y-58420000D03*
X60960000Y-58420000D03*
X58420000Y-58420000D03*
X55880000Y-58420000D03*
D17*
X78250000Y-84250000D03*
X84750000Y-84250000D03*
X78250000Y-79750000D03*
X84750000Y-79750000D03*
X58750000Y-84250000D03*
X65250000Y-84250000D03*
X58750000Y-79750000D03*
X65250000Y-79750000D03*
D15*
X62230000Y-25375000D03*
D16*
X64770000Y-25375000D03*
X67310000Y-25375000D03*
X69850000Y-25375000D03*
X72390000Y-25375000D03*
X74930000Y-25375000D03*
X77470000Y-25375000D03*
X80010000Y-25375000D03*
X82550000Y-25375000D03*
X85090000Y-25375000D03*
X87630000Y-25375000D03*
X90170000Y-25375000D03*
X92710000Y-25375000D03*
X95250000Y-25375000D03*
X97790000Y-25375000D03*
X100330000Y-25375000D03*
D15*
X128750000Y-62500000D03*
D16*
X128750000Y-65040000D03*
D22*
X54250000Y-83250000D03*
D15*
X91440000Y-33020000D03*
D16*
X88900000Y-33020000D03*
X86360000Y-33020000D03*
X83820000Y-33020000D03*
X81280000Y-33020000D03*
X78740000Y-33020000D03*
X76200000Y-33020000D03*
X73660000Y-33020000D03*
X71120000Y-33020000D03*
X68580000Y-33020000D03*
X66040000Y-33020000D03*
X63500000Y-33020000D03*
X60960000Y-33020000D03*
X58420000Y-33020000D03*
X55880000Y-33020000D03*
D17*
X75000000Y-84250000D03*
X68500000Y-84250000D03*
X75000000Y-79750000D03*
X68500000Y-79750000D03*
D22*
X54250000Y-24250000D03*
X130250000Y-39750000D03*
D15*
X111725000Y-25250000D03*
D16*
X114265000Y-25250000D03*
D23*
X105750000Y-29225000D03*
X105750000Y-30775000D03*
D24*
X101750000Y-42150000D03*
D25*
X101750000Y-40850000D03*
D26*
X105250000Y-24850000D03*
X105250000Y-26150000D03*
X103250000Y-25500000D03*
D27*
X70925000Y-78750000D03*
X72575000Y-78750000D03*
X61175000Y-78750000D03*
X62825000Y-78750000D03*
X105675000Y-39000000D03*
X107325000Y-39000000D03*
D24*
X104250000Y-42150000D03*
D25*
X104250000Y-40850000D03*
D28*
X81250000Y-37325000D03*
X81250000Y-35675000D03*
D29*
X103945000Y-38400000D03*
X102675000Y-38400000D03*
X101405000Y-38400000D03*
X100135000Y-38400000D03*
X98865000Y-38400000D03*
X97595000Y-38400000D03*
X96325000Y-38400000D03*
X95055000Y-38400000D03*
X95055000Y-29100000D03*
X96325000Y-29100000D03*
X97595000Y-29100000D03*
X98865000Y-29100000D03*
X100135000Y-29100000D03*
X101405000Y-29100000D03*
X102675000Y-29100000D03*
X103945000Y-29100000D03*
D30*
X62200000Y-29750000D03*
D31*
X65450000Y-28750000D03*
D30*
X62200000Y-27750000D03*
D27*
X105675000Y-37500000D03*
X107325000Y-37500000D03*
X105675000Y-36000000D03*
X107325000Y-36000000D03*
X80675000Y-78750000D03*
X82325000Y-78750000D03*
D24*
X106750000Y-42150000D03*
D25*
X106750000Y-40850000D03*
D28*
X83750000Y-37325000D03*
X83750000Y-35675000D03*
M02*
