%TF.GenerationSoftware,KiCad,Pcbnew,(6.0.7)*%
%TF.CreationDate,2022-10-03T20:15:35+03:00*%
%TF.ProjectId,ESP32_blAudio_portable,45535033-325f-4626-9c41-7564696f5f70,rev?*%
%TF.SameCoordinates,Original*%
%TF.FileFunction,Drillmap*%
%TF.FilePolarity,Positive*%
%FSLAX45Y45*%
G04 Gerber Fmt 4.5, Leading zero omitted, Abs format (unit mm)*
G04 Created by KiCad (PCBNEW (6.0.7)) date 2022-10-03 20:15:35*
%MOMM*%
%LPD*%
G01*
G04 APERTURE LIST*
%ADD10C,0.150000*%
%ADD11C,0.200000*%
%ADD12C,0.030000*%
%ADD13C,0.040000*%
%ADD14C,0.100000*%
%ADD15C,0.110000*%
%ADD16C,0.120000*%
G04 APERTURE END LIST*
D10*
X5100000Y-2100000D02*
X13350000Y-2100000D01*
X13350000Y-2100000D02*
X13350000Y-8650000D01*
X13350000Y-8650000D02*
X5100000Y-8650000D01*
X5100000Y-8650000D02*
X5100000Y-2100000D01*
D11*
D12*
X11752500Y-4830000D02*
X11782500Y-4860000D01*
X11782500Y-4830000D02*
X11752500Y-4860000D01*
X11752500Y-4935000D02*
X11782500Y-4965000D01*
X11782500Y-4935000D02*
X11752500Y-4965000D01*
X11752500Y-5040000D02*
X11782500Y-5070000D01*
X11782500Y-5040000D02*
X11752500Y-5070000D01*
X11752500Y-6255000D02*
X11782500Y-6285000D01*
X11782500Y-6255000D02*
X11752500Y-6285000D01*
X11752500Y-6360000D02*
X11782500Y-6390000D01*
X11782500Y-6360000D02*
X11752500Y-6390000D01*
X11752500Y-6465000D02*
X11782500Y-6495000D01*
X11782500Y-6465000D02*
X11752500Y-6495000D01*
X11857500Y-4830000D02*
X11887500Y-4860000D01*
X11887500Y-4830000D02*
X11857500Y-4860000D01*
X11857500Y-4935000D02*
X11887500Y-4965000D01*
X11887500Y-4935000D02*
X11857500Y-4965000D01*
X11857500Y-5040000D02*
X11887500Y-5070000D01*
X11887500Y-5040000D02*
X11857500Y-5070000D01*
X11857500Y-6255000D02*
X11887500Y-6285000D01*
X11887500Y-6255000D02*
X11857500Y-6285000D01*
X11857500Y-6360000D02*
X11887500Y-6390000D01*
X11887500Y-6360000D02*
X11857500Y-6390000D01*
X11857500Y-6465000D02*
X11887500Y-6495000D01*
X11887500Y-6465000D02*
X11857500Y-6495000D01*
X11962500Y-4830000D02*
X11992500Y-4860000D01*
X11992500Y-4830000D02*
X11962500Y-4860000D01*
X11962500Y-4935000D02*
X11992500Y-4965000D01*
X11992500Y-4935000D02*
X11962500Y-4965000D01*
X11962500Y-5040000D02*
X11992500Y-5070000D01*
X11992500Y-5040000D02*
X11962500Y-5070000D01*
X11962500Y-6255000D02*
X11992500Y-6285000D01*
X11992500Y-6255000D02*
X11962500Y-6285000D01*
X11962500Y-6360000D02*
X11992500Y-6390000D01*
X11992500Y-6360000D02*
X11962500Y-6390000D01*
X11962500Y-6465000D02*
X11992500Y-6495000D01*
X11992500Y-6465000D02*
X11962500Y-6495000D01*
D13*
X5220000Y-7375000D02*
G75*
G03*
X5220000Y-7375000I-20000J0D01*
G01*
X5245000Y-6575000D02*
G75*
G03*
X5245000Y-6575000I-20000J0D01*
G01*
X5270000Y-2900000D02*
G75*
G03*
X5270000Y-2900000I-20000J0D01*
G01*
X5270000Y-5800000D02*
G75*
G03*
X5270000Y-5800000I-20000J0D01*
G01*
X5320000Y-7875000D02*
G75*
G03*
X5320000Y-7875000I-20000J0D01*
G01*
X5595000Y-3850000D02*
G75*
G03*
X5595000Y-3850000I-20000J0D01*
G01*
X5595000Y-4800000D02*
G75*
G03*
X5595000Y-4800000I-20000J0D01*
G01*
X5695000Y-6850000D02*
G75*
G03*
X5695000Y-6850000I-20000J0D01*
G01*
X5695000Y-8325000D02*
G75*
G03*
X5695000Y-8325000I-20000J0D01*
G01*
X5745000Y-2275000D02*
G75*
G03*
X5745000Y-2275000I-20000J0D01*
G01*
X5795000Y-5550000D02*
G75*
G03*
X5795000Y-5550000I-20000J0D01*
G01*
X5895000Y-3000000D02*
G75*
G03*
X5895000Y-3000000I-20000J0D01*
G01*
X5920000Y-6025000D02*
G75*
G03*
X5920000Y-6025000I-20000J0D01*
G01*
X5970000Y-7600000D02*
G75*
G03*
X5970000Y-7600000I-20000J0D01*
G01*
X6020000Y-7325000D02*
G75*
G03*
X6020000Y-7325000I-20000J0D01*
G01*
X6120000Y-6250000D02*
G75*
G03*
X6120000Y-6250000I-20000J0D01*
G01*
X6145000Y-4350000D02*
G75*
G03*
X6145000Y-4350000I-20000J0D01*
G01*
X6245000Y-3150000D02*
G75*
G03*
X6245000Y-3150000I-20000J0D01*
G01*
X6245000Y-8425000D02*
G75*
G03*
X6245000Y-8425000I-20000J0D01*
G01*
X6270000Y-3850000D02*
G75*
G03*
X6270000Y-3850000I-20000J0D01*
G01*
X6270000Y-5575000D02*
G75*
G03*
X6270000Y-5575000I-20000J0D01*
G01*
X6420000Y-2200000D02*
G75*
G03*
X6420000Y-2200000I-20000J0D01*
G01*
X6495000Y-7350000D02*
G75*
G03*
X6495000Y-7350000I-20000J0D01*
G01*
X6495000Y-7800000D02*
G75*
G03*
X6495000Y-7800000I-20000J0D01*
G01*
X6545000Y-4450000D02*
G75*
G03*
X6545000Y-4450000I-20000J0D01*
G01*
X6595000Y-3625000D02*
G75*
G03*
X6595000Y-3625000I-20000J0D01*
G01*
X6595000Y-6975000D02*
G75*
G03*
X6595000Y-6975000I-20000J0D01*
G01*
X6745000Y-6000000D02*
G75*
G03*
X6745000Y-6000000I-20000J0D01*
G01*
X6870000Y-7475000D02*
G75*
G03*
X6870000Y-7475000I-20000J0D01*
G01*
X6895000Y-6400000D02*
G75*
G03*
X6895000Y-6400000I-20000J0D01*
G01*
X6895000Y-7350000D02*
G75*
G03*
X6895000Y-7350000I-20000J0D01*
G01*
X6920000Y-2900000D02*
G75*
G03*
X6920000Y-2900000I-20000J0D01*
G01*
X7095000Y-8050000D02*
G75*
G03*
X7095000Y-8050000I-20000J0D01*
G01*
X7170000Y-8400000D02*
G75*
G03*
X7170000Y-8400000I-20000J0D01*
G01*
X7195000Y-6800000D02*
G75*
G03*
X7195000Y-6800000I-20000J0D01*
G01*
X7270000Y-6900000D02*
G75*
G03*
X7270000Y-6900000I-20000J0D01*
G01*
X7307500Y-2762500D02*
G75*
G03*
X7307500Y-2762500I-20000J0D01*
G01*
X7320000Y-3950000D02*
G75*
G03*
X7320000Y-3950000I-20000J0D01*
G01*
X7320000Y-5575000D02*
G75*
G03*
X7320000Y-5575000I-20000J0D01*
G01*
X7370000Y-6800000D02*
G75*
G03*
X7370000Y-6800000I-20000J0D01*
G01*
X7445000Y-6925000D02*
G75*
G03*
X7445000Y-6925000I-20000J0D01*
G01*
X7495000Y-7650000D02*
G75*
G03*
X7495000Y-7650000I-20000J0D01*
G01*
X7520000Y-4200000D02*
G75*
G03*
X7520000Y-4200000I-20000J0D01*
G01*
X7545000Y-2800000D02*
G75*
G03*
X7545000Y-2800000I-20000J0D01*
G01*
X7720000Y-6400000D02*
G75*
G03*
X7720000Y-6400000I-20000J0D01*
G01*
X7770000Y-7350000D02*
G75*
G03*
X7770000Y-7350000I-20000J0D01*
G01*
X7795000Y-4450000D02*
G75*
G03*
X7795000Y-4450000I-20000J0D01*
G01*
X7895000Y-6150000D02*
G75*
G03*
X7895000Y-6150000I-20000J0D01*
G01*
X7945000Y-2200000D02*
G75*
G03*
X7945000Y-2200000I-20000J0D01*
G01*
X8120000Y-7550000D02*
G75*
G03*
X8120000Y-7550000I-20000J0D01*
G01*
X8145000Y-8375000D02*
G75*
G03*
X8145000Y-8375000I-20000J0D01*
G01*
X8220000Y-3900000D02*
G75*
G03*
X8220000Y-3900000I-20000J0D01*
G01*
X8420000Y-2950000D02*
G75*
G03*
X8420000Y-2950000I-20000J0D01*
G01*
X8470000Y-4300000D02*
G75*
G03*
X8470000Y-4300000I-20000J0D01*
G01*
X8545000Y-3750000D02*
G75*
G03*
X8545000Y-3750000I-20000J0D01*
G01*
X8570000Y-3950000D02*
G75*
G03*
X8570000Y-3950000I-20000J0D01*
G01*
X8620000Y-7850000D02*
G75*
G03*
X8620000Y-7850000I-20000J0D01*
G01*
X8645000Y-5275000D02*
G75*
G03*
X8645000Y-5275000I-20000J0D01*
G01*
X8670000Y-6600000D02*
G75*
G03*
X8670000Y-6600000I-20000J0D01*
G01*
X8720000Y-4325000D02*
G75*
G03*
X8720000Y-4325000I-20000J0D01*
G01*
X8795000Y-3500000D02*
G75*
G03*
X8795000Y-3500000I-20000J0D01*
G01*
X8820000Y-3150000D02*
G75*
G03*
X8820000Y-3150000I-20000J0D01*
G01*
X8970000Y-6825000D02*
G75*
G03*
X8970000Y-6825000I-20000J0D01*
G01*
X9045000Y-4700000D02*
G75*
G03*
X9045000Y-4700000I-20000J0D01*
G01*
X9070000Y-4425000D02*
G75*
G03*
X9070000Y-4425000I-20000J0D01*
G01*
X9070000Y-5250000D02*
G75*
G03*
X9070000Y-5250000I-20000J0D01*
G01*
X9095000Y-8500000D02*
G75*
G03*
X9095000Y-8500000I-20000J0D01*
G01*
X9195000Y-5150000D02*
G75*
G03*
X9195000Y-5150000I-20000J0D01*
G01*
X9270000Y-3825000D02*
G75*
G03*
X9270000Y-3825000I-20000J0D01*
G01*
X9295000Y-4350000D02*
G75*
G03*
X9295000Y-4350000I-20000J0D01*
G01*
X9320000Y-5025000D02*
G75*
G03*
X9320000Y-5025000I-20000J0D01*
G01*
X9395000Y-7775000D02*
G75*
G03*
X9395000Y-7775000I-20000J0D01*
G01*
X9445000Y-3375000D02*
G75*
G03*
X9445000Y-3375000I-20000J0D01*
G01*
X9445000Y-4900000D02*
G75*
G03*
X9445000Y-4900000I-20000J0D01*
G01*
X9470000Y-8400000D02*
G75*
G03*
X9470000Y-8400000I-20000J0D01*
G01*
X9620000Y-3275000D02*
G75*
G03*
X9620000Y-3275000I-20000J0D01*
G01*
X9695000Y-6100000D02*
G75*
G03*
X9695000Y-6100000I-20000J0D01*
G01*
X9745000Y-2200000D02*
G75*
G03*
X9745000Y-2200000I-20000J0D01*
G01*
X9820000Y-3075000D02*
G75*
G03*
X9820000Y-3075000I-20000J0D01*
G01*
X9870000Y-4650000D02*
G75*
G03*
X9870000Y-4650000I-20000J0D01*
G01*
X9970000Y-4000000D02*
G75*
G03*
X9970000Y-4000000I-20000J0D01*
G01*
X9995000Y-6775000D02*
G75*
G03*
X9995000Y-6775000I-20000J0D01*
G01*
X10070000Y-3175000D02*
G75*
G03*
X10070000Y-3175000I-20000J0D01*
G01*
X10070000Y-4375000D02*
G75*
G03*
X10070000Y-4375000I-20000J0D01*
G01*
X10095000Y-3325000D02*
G75*
G03*
X10095000Y-3325000I-20000J0D01*
G01*
X10120000Y-3625000D02*
G75*
G03*
X10120000Y-3625000I-20000J0D01*
G01*
X10145000Y-3025000D02*
G75*
G03*
X10145000Y-3025000I-20000J0D01*
G01*
X10170000Y-3500000D02*
G75*
G03*
X10170000Y-3500000I-20000J0D01*
G01*
X10170000Y-5100000D02*
G75*
G03*
X10170000Y-5100000I-20000J0D01*
G01*
X10270000Y-2800000D02*
G75*
G03*
X10270000Y-2800000I-20000J0D01*
G01*
X10320000Y-7975000D02*
G75*
G03*
X10320000Y-7975000I-20000J0D01*
G01*
X10345000Y-5700000D02*
G75*
G03*
X10345000Y-5700000I-20000J0D01*
G01*
X10420000Y-4325000D02*
G75*
G03*
X10420000Y-4325000I-20000J0D01*
G01*
X10470000Y-5000000D02*
G75*
G03*
X10470000Y-5000000I-20000J0D01*
G01*
X10495000Y-3075000D02*
G75*
G03*
X10495000Y-3075000I-20000J0D01*
G01*
X10545000Y-2750000D02*
G75*
G03*
X10545000Y-2750000I-20000J0D01*
G01*
X10595000Y-4875000D02*
G75*
G03*
X10595000Y-4875000I-20000J0D01*
G01*
X10645000Y-2600000D02*
G75*
G03*
X10645000Y-2600000I-20000J0D01*
G01*
X10720000Y-6900000D02*
G75*
G03*
X10720000Y-6900000I-20000J0D01*
G01*
X10720000Y-7325000D02*
G75*
G03*
X10720000Y-7325000I-20000J0D01*
G01*
X10745000Y-3175000D02*
G75*
G03*
X10745000Y-3175000I-20000J0D01*
G01*
X10745000Y-4775000D02*
G75*
G03*
X10745000Y-4775000I-20000J0D01*
G01*
X10795000Y-8200000D02*
G75*
G03*
X10795000Y-8200000I-20000J0D01*
G01*
X10845000Y-2925000D02*
G75*
G03*
X10845000Y-2925000I-20000J0D01*
G01*
X10845000Y-4025000D02*
G75*
G03*
X10845000Y-4025000I-20000J0D01*
G01*
X10895000Y-5350000D02*
G75*
G03*
X10895000Y-5350000I-20000J0D01*
G01*
X11020000Y-5650000D02*
G75*
G03*
X11020000Y-5650000I-20000J0D01*
G01*
X11045000Y-5175000D02*
G75*
G03*
X11045000Y-5175000I-20000J0D01*
G01*
X11118770Y-5401230D02*
G75*
G03*
X11118770Y-5401230I-20000J0D01*
G01*
X11120000Y-4725000D02*
G75*
G03*
X11120000Y-4725000I-20000J0D01*
G01*
X11120000Y-4850000D02*
G75*
G03*
X11120000Y-4850000I-20000J0D01*
G01*
X11120000Y-5000000D02*
G75*
G03*
X11120000Y-5000000I-20000J0D01*
G01*
X11170000Y-2275000D02*
G75*
G03*
X11170000Y-2275000I-20000J0D01*
G01*
X11170000Y-3950000D02*
G75*
G03*
X11170000Y-3950000I-20000J0D01*
G01*
X11245000Y-7300000D02*
G75*
G03*
X11245000Y-7300000I-20000J0D01*
G01*
X11295000Y-4295050D02*
G75*
G03*
X11295000Y-4295050I-20000J0D01*
G01*
X11295000Y-4550000D02*
G75*
G03*
X11295000Y-4550000I-20000J0D01*
G01*
X11295000Y-5275000D02*
G75*
G03*
X11295000Y-5275000I-20000J0D01*
G01*
X11295000Y-6575000D02*
G75*
G03*
X11295000Y-6575000I-20000J0D01*
G01*
X11320000Y-3725000D02*
G75*
G03*
X11320000Y-3725000I-20000J0D01*
G01*
X11420000Y-5175000D02*
G75*
G03*
X11420000Y-5175000I-20000J0D01*
G01*
X11420000Y-6600000D02*
G75*
G03*
X11420000Y-6600000I-20000J0D01*
G01*
X11445000Y-3875000D02*
G75*
G03*
X11445000Y-3875000I-20000J0D01*
G01*
X11520000Y-7125000D02*
G75*
G03*
X11520000Y-7125000I-20000J0D01*
G01*
X11545000Y-3950000D02*
G75*
G03*
X11545000Y-3950000I-20000J0D01*
G01*
X11645000Y-2725000D02*
G75*
G03*
X11645000Y-2725000I-20000J0D01*
G01*
X11645000Y-7875000D02*
G75*
G03*
X11645000Y-7875000I-20000J0D01*
G01*
X11695000Y-6675000D02*
G75*
G03*
X11695000Y-6675000I-20000J0D01*
G01*
X11720000Y-5250000D02*
G75*
G03*
X11720000Y-5250000I-20000J0D01*
G01*
X11745000Y-6850000D02*
G75*
G03*
X11745000Y-6850000I-20000J0D01*
G01*
X11795000Y-5325000D02*
G75*
G03*
X11795000Y-5325000I-20000J0D01*
G01*
X11795000Y-6700000D02*
G75*
G03*
X11795000Y-6700000I-20000J0D01*
G01*
X11970000Y-5725000D02*
G75*
G03*
X11970000Y-5725000I-20000J0D01*
G01*
X11995000Y-2275000D02*
G75*
G03*
X11995000Y-2275000I-20000J0D01*
G01*
X12120000Y-5125000D02*
G75*
G03*
X12120000Y-5125000I-20000J0D01*
G01*
X12120000Y-6550000D02*
G75*
G03*
X12120000Y-6550000I-20000J0D01*
G01*
X12145000Y-4275000D02*
G75*
G03*
X12145000Y-4275000I-20000J0D01*
G01*
X12145000Y-4375000D02*
G75*
G03*
X12145000Y-4375000I-20000J0D01*
G01*
X12195000Y-4175000D02*
G75*
G03*
X12195000Y-4175000I-20000J0D01*
G01*
X12195000Y-5175000D02*
G75*
G03*
X12195000Y-5175000I-20000J0D01*
G01*
X12195000Y-6600000D02*
G75*
G03*
X12195000Y-6600000I-20000J0D01*
G01*
X12220000Y-7350000D02*
G75*
G03*
X12220000Y-7350000I-20000J0D01*
G01*
X12245000Y-4275000D02*
G75*
G03*
X12245000Y-4275000I-20000J0D01*
G01*
X12245000Y-4375000D02*
G75*
G03*
X12245000Y-4375000I-20000J0D01*
G01*
X12370000Y-4750000D02*
G75*
G03*
X12370000Y-4750000I-20000J0D01*
G01*
X12370000Y-5675000D02*
G75*
G03*
X12370000Y-5675000I-20000J0D01*
G01*
X12370000Y-6175000D02*
G75*
G03*
X12370000Y-6175000I-20000J0D01*
G01*
X12420000Y-4625000D02*
G75*
G03*
X12420000Y-4625000I-20000J0D01*
G01*
X12420000Y-5300000D02*
G75*
G03*
X12420000Y-5300000I-20000J0D01*
G01*
X12420000Y-6050000D02*
G75*
G03*
X12420000Y-6050000I-20000J0D01*
G01*
X12445000Y-2800000D02*
G75*
G03*
X12445000Y-2800000I-20000J0D01*
G01*
X12470000Y-4175000D02*
G75*
G03*
X12470000Y-4175000I-20000J0D01*
G01*
X12595000Y-8450000D02*
G75*
G03*
X12595000Y-8450000I-20000J0D01*
G01*
X12645000Y-5450000D02*
G75*
G03*
X12645000Y-5450000I-20000J0D01*
G01*
X12670000Y-5825000D02*
G75*
G03*
X12670000Y-5825000I-20000J0D01*
G01*
X12670000Y-6825000D02*
G75*
G03*
X12670000Y-6825000I-20000J0D01*
G01*
X12770000Y-3475000D02*
G75*
G03*
X12770000Y-3475000I-20000J0D01*
G01*
X12770000Y-3725000D02*
G75*
G03*
X12770000Y-3725000I-20000J0D01*
G01*
X12795000Y-4300000D02*
G75*
G03*
X12795000Y-4300000I-20000J0D01*
G01*
X12845000Y-2675000D02*
G75*
G03*
X12845000Y-2675000I-20000J0D01*
G01*
X13170000Y-6525000D02*
G75*
G03*
X13170000Y-6525000I-20000J0D01*
G01*
X13170000Y-7775000D02*
G75*
G03*
X13170000Y-7775000I-20000J0D01*
G01*
X13195000Y-4575000D02*
G75*
G03*
X13195000Y-4575000I-20000J0D01*
G01*
X13195000Y-5225000D02*
G75*
G03*
X13195000Y-5225000I-20000J0D01*
G01*
X13220000Y-3775000D02*
G75*
G03*
X13220000Y-3775000I-20000J0D01*
G01*
X13220000Y-5950000D02*
G75*
G03*
X13220000Y-5950000I-20000J0D01*
G01*
X13270000Y-3050000D02*
G75*
G03*
X13270000Y-3050000I-20000J0D01*
G01*
D14*
X5588000Y-3252000D02*
X5588000Y-3352000D01*
X5538000Y-3302000D02*
X5638000Y-3302000D01*
X5588000Y-5792000D02*
X5588000Y-5892000D01*
X5538000Y-5842000D02*
X5638000Y-5842000D01*
X5842000Y-3252000D02*
X5842000Y-3352000D01*
X5792000Y-3302000D02*
X5892000Y-3302000D01*
X5842000Y-5792000D02*
X5842000Y-5892000D01*
X5792000Y-5842000D02*
X5892000Y-5842000D01*
X6096000Y-3252000D02*
X6096000Y-3352000D01*
X6046000Y-3302000D02*
X6146000Y-3302000D01*
X6096000Y-5792000D02*
X6096000Y-5892000D01*
X6046000Y-5842000D02*
X6146000Y-5842000D01*
X6223000Y-2487500D02*
X6223000Y-2587500D01*
X6173000Y-2537500D02*
X6273000Y-2537500D01*
X6350000Y-3252000D02*
X6350000Y-3352000D01*
X6300000Y-3302000D02*
X6400000Y-3302000D01*
X6350000Y-5792000D02*
X6350000Y-5892000D01*
X6300000Y-5842000D02*
X6400000Y-5842000D01*
X6477000Y-2487500D02*
X6477000Y-2587500D01*
X6427000Y-2537500D02*
X6527000Y-2537500D01*
X6604000Y-3252000D02*
X6604000Y-3352000D01*
X6554000Y-3302000D02*
X6654000Y-3302000D01*
X6604000Y-5792000D02*
X6604000Y-5892000D01*
X6554000Y-5842000D02*
X6654000Y-5842000D01*
X6731000Y-2487500D02*
X6731000Y-2587500D01*
X6681000Y-2537500D02*
X6781000Y-2537500D01*
X6858000Y-3252000D02*
X6858000Y-3352000D01*
X6808000Y-3302000D02*
X6908000Y-3302000D01*
X6858000Y-5792000D02*
X6858000Y-5892000D01*
X6808000Y-5842000D02*
X6908000Y-5842000D01*
X6985000Y-2487500D02*
X6985000Y-2587500D01*
X6935000Y-2537500D02*
X7035000Y-2537500D01*
X7112000Y-3252000D02*
X7112000Y-3352000D01*
X7062000Y-3302000D02*
X7162000Y-3302000D01*
X7112000Y-5792000D02*
X7112000Y-5892000D01*
X7062000Y-5842000D02*
X7162000Y-5842000D01*
X7239000Y-2487500D02*
X7239000Y-2587500D01*
X7189000Y-2537500D02*
X7289000Y-2537500D01*
X7366000Y-3252000D02*
X7366000Y-3352000D01*
X7316000Y-3302000D02*
X7416000Y-3302000D01*
X7366000Y-5792000D02*
X7366000Y-5892000D01*
X7316000Y-5842000D02*
X7416000Y-5842000D01*
X7493000Y-2487500D02*
X7493000Y-2587500D01*
X7443000Y-2537500D02*
X7543000Y-2537500D01*
X7620000Y-3252000D02*
X7620000Y-3352000D01*
X7570000Y-3302000D02*
X7670000Y-3302000D01*
X7620000Y-5792000D02*
X7620000Y-5892000D01*
X7570000Y-5842000D02*
X7670000Y-5842000D01*
X7747000Y-2487500D02*
X7747000Y-2587500D01*
X7697000Y-2537500D02*
X7797000Y-2537500D01*
X7874000Y-3252000D02*
X7874000Y-3352000D01*
X7824000Y-3302000D02*
X7924000Y-3302000D01*
X7874000Y-5792000D02*
X7874000Y-5892000D01*
X7824000Y-5842000D02*
X7924000Y-5842000D01*
X8001000Y-2487500D02*
X8001000Y-2587500D01*
X7951000Y-2537500D02*
X8051000Y-2537500D01*
X8128000Y-3252000D02*
X8128000Y-3352000D01*
X8078000Y-3302000D02*
X8178000Y-3302000D01*
X8128000Y-5792000D02*
X8128000Y-5892000D01*
X8078000Y-5842000D02*
X8178000Y-5842000D01*
X8255000Y-2487500D02*
X8255000Y-2587500D01*
X8205000Y-2537500D02*
X8305000Y-2537500D01*
X8382000Y-3252000D02*
X8382000Y-3352000D01*
X8332000Y-3302000D02*
X8432000Y-3302000D01*
X8382000Y-5792000D02*
X8382000Y-5892000D01*
X8332000Y-5842000D02*
X8432000Y-5842000D01*
X8509000Y-2487500D02*
X8509000Y-2587500D01*
X8459000Y-2537500D02*
X8559000Y-2537500D01*
X8636000Y-3252000D02*
X8636000Y-3352000D01*
X8586000Y-3302000D02*
X8686000Y-3302000D01*
X8636000Y-5792000D02*
X8636000Y-5892000D01*
X8586000Y-5842000D02*
X8686000Y-5842000D01*
X8763000Y-2487500D02*
X8763000Y-2587500D01*
X8713000Y-2537500D02*
X8813000Y-2537500D01*
X8890000Y-3252000D02*
X8890000Y-3352000D01*
X8840000Y-3302000D02*
X8940000Y-3302000D01*
X8890000Y-5792000D02*
X8890000Y-5892000D01*
X8840000Y-5842000D02*
X8940000Y-5842000D01*
X9017000Y-2487500D02*
X9017000Y-2587500D01*
X8967000Y-2537500D02*
X9067000Y-2537500D01*
X9144000Y-3252000D02*
X9144000Y-3352000D01*
X9094000Y-3302000D02*
X9194000Y-3302000D01*
X9144000Y-5792000D02*
X9144000Y-5892000D01*
X9094000Y-5842000D02*
X9194000Y-5842000D01*
X9271000Y-2487500D02*
X9271000Y-2587500D01*
X9221000Y-2537500D02*
X9321000Y-2537500D01*
X9525000Y-2487500D02*
X9525000Y-2587500D01*
X9475000Y-2537500D02*
X9575000Y-2537500D01*
X9779000Y-2487500D02*
X9779000Y-2587500D01*
X9729000Y-2537500D02*
X9829000Y-2537500D01*
X9850000Y-8355000D02*
X9850000Y-8455000D01*
X9800000Y-8405000D02*
X9900000Y-8405000D01*
X10033000Y-2487500D02*
X10033000Y-2587500D01*
X9983000Y-2537500D02*
X10083000Y-2537500D01*
X10100000Y-8355000D02*
X10100000Y-8455000D01*
X10050000Y-8405000D02*
X10150000Y-8405000D01*
X10350000Y-8355000D02*
X10350000Y-8455000D01*
X10300000Y-8405000D02*
X10400000Y-8405000D01*
X11075000Y-7500000D02*
X11075000Y-7600000D01*
X11025000Y-7550000D02*
X11125000Y-7550000D01*
X11075000Y-7750000D02*
X11075000Y-7850000D01*
X11025000Y-7800000D02*
X11125000Y-7800000D01*
X11075000Y-8000000D02*
X11075000Y-8100000D01*
X11025000Y-8050000D02*
X11125000Y-8050000D01*
X11172500Y-2475000D02*
X11172500Y-2575000D01*
X11122500Y-2525000D02*
X11222500Y-2525000D01*
X11426500Y-2475000D02*
X11426500Y-2575000D01*
X11376500Y-2525000D02*
X11476500Y-2525000D01*
X11825000Y-2472500D02*
X11825000Y-2572500D01*
X11775000Y-2522500D02*
X11875000Y-2522500D01*
X11825000Y-2726500D02*
X11825000Y-2826500D01*
X11775000Y-2776500D02*
X11875000Y-2776500D01*
X11825000Y-2980500D02*
X11825000Y-3080500D01*
X11775000Y-3030500D02*
X11875000Y-3030500D01*
X12525000Y-7500000D02*
X12525000Y-7600000D01*
X12475000Y-7550000D02*
X12575000Y-7550000D01*
X12525000Y-8000000D02*
X12525000Y-8100000D01*
X12475000Y-8050000D02*
X12575000Y-8050000D01*
X12875000Y-4775000D02*
X12875000Y-4875000D01*
X12825000Y-4825000D02*
X12925000Y-4825000D01*
X12875000Y-5029000D02*
X12875000Y-5129000D01*
X12825000Y-5079000D02*
X12925000Y-5079000D01*
X12875000Y-6200000D02*
X12875000Y-6300000D01*
X12825000Y-6250000D02*
X12925000Y-6250000D01*
X12875000Y-6454000D02*
X12875000Y-6554000D01*
X12825000Y-6504000D02*
X12925000Y-6504000D01*
D15*
X5913891Y-8013891D02*
X5913891Y-7936109D01*
X5836109Y-7936109D01*
X5836109Y-8013891D01*
X5913891Y-8013891D01*
X5913891Y-8463891D02*
X5913891Y-8386109D01*
X5836109Y-8386109D01*
X5836109Y-8463891D01*
X5913891Y-8463891D01*
X6563891Y-8013891D02*
X6563891Y-7936109D01*
X6486109Y-7936109D01*
X6486109Y-8013891D01*
X6563891Y-8013891D01*
X6563891Y-8463891D02*
X6563891Y-8386109D01*
X6486109Y-8386109D01*
X6486109Y-8463891D01*
X6563891Y-8463891D01*
X6888891Y-8013891D02*
X6888891Y-7936109D01*
X6811109Y-7936109D01*
X6811109Y-8013891D01*
X6888891Y-8013891D01*
X6888891Y-8463891D02*
X6888891Y-8386109D01*
X6811109Y-8386109D01*
X6811109Y-8463891D01*
X6888891Y-8463891D01*
X7538891Y-8013891D02*
X7538891Y-7936109D01*
X7461109Y-7936109D01*
X7461109Y-8013891D01*
X7538891Y-8013891D01*
X7538891Y-8463891D02*
X7538891Y-8386109D01*
X7461109Y-8386109D01*
X7461109Y-8463891D01*
X7538891Y-8463891D01*
X7863891Y-8013891D02*
X7863891Y-7936109D01*
X7786109Y-7936109D01*
X7786109Y-8013891D01*
X7863891Y-8013891D01*
X7863891Y-8463891D02*
X7863891Y-8386109D01*
X7786109Y-8386109D01*
X7786109Y-8463891D01*
X7863891Y-8463891D01*
X8513891Y-8013891D02*
X8513891Y-7936109D01*
X8436109Y-7936109D01*
X8436109Y-8013891D01*
X8513891Y-8013891D01*
X8513891Y-8463891D02*
X8513891Y-8386109D01*
X8436109Y-8386109D01*
X8436109Y-8463891D01*
X8513891Y-8463891D01*
X12613891Y-2363891D02*
X12613891Y-2286109D01*
X12536109Y-2286109D01*
X12536109Y-2363891D01*
X12613891Y-2363891D01*
X12613891Y-3013891D02*
X12613891Y-2936109D01*
X12536109Y-2936109D01*
X12536109Y-3013891D01*
X12613891Y-3013891D01*
X13063891Y-2363891D02*
X13063891Y-2286109D01*
X12986109Y-2286109D01*
X12986109Y-2363891D01*
X13063891Y-2363891D01*
X13063891Y-3013891D02*
X13063891Y-2936109D01*
X12986109Y-2936109D01*
X12986109Y-3013891D01*
X13063891Y-3013891D01*
D16*
X5274500Y-7027000D02*
X5334500Y-6967000D01*
X5274500Y-6907000D01*
X5214500Y-6967000D01*
X5274500Y-7027000D01*
X5774500Y-7387000D02*
X5834500Y-7327000D01*
X5774500Y-7267000D01*
X5714500Y-7327000D01*
X5774500Y-7387000D01*
X5884500Y-6717000D02*
X5944500Y-6657000D01*
X5884500Y-6597000D01*
X5824500Y-6657000D01*
X5884500Y-6717000D01*
X6084500Y-6577000D02*
X6144500Y-6517000D01*
X6084500Y-6457000D01*
X6024500Y-6517000D01*
X6084500Y-6577000D01*
X6084500Y-6867000D02*
X6144500Y-6807000D01*
X6084500Y-6747000D01*
X6024500Y-6807000D01*
X6084500Y-6867000D01*
X6084500Y-7187000D02*
X6144500Y-7127000D01*
X6084500Y-7067000D01*
X6024500Y-7127000D01*
X6084500Y-7187000D01*
D10*
X11750000Y-7165000D02*
X11900000Y-7315000D01*
X11900000Y-7165000D02*
X11750000Y-7315000D01*
X11900000Y-7240000D02*
G75*
G03*
X11900000Y-7240000I-75000J0D01*
G01*
D11*
X11760000Y-7315000D02*
X11890000Y-7315000D01*
X11760000Y-7165000D02*
X11890000Y-7165000D01*
X11890000Y-7315000D02*
G75*
G03*
X11890000Y-7165000I0J75000D01*
G01*
X11760000Y-7165000D02*
G75*
G03*
X11760000Y-7315000I0J-75000D01*
G01*
D10*
X11750000Y-8285000D02*
X11900000Y-8435000D01*
X11900000Y-8285000D02*
X11750000Y-8435000D01*
X11900000Y-8360000D02*
G75*
G03*
X11900000Y-8360000I-75000J0D01*
G01*
D11*
X11760000Y-8435000D02*
X11890000Y-8435000D01*
X11760000Y-8285000D02*
X11890000Y-8285000D01*
X11890000Y-8435000D02*
G75*
G03*
X11890000Y-8285000I0J75000D01*
G01*
X11760000Y-8285000D02*
G75*
G03*
X11760000Y-8435000I0J-75000D01*
G01*
X5350119Y-8967976D02*
X5350119Y-8767976D01*
X5397738Y-8767976D01*
X5426310Y-8777500D01*
X5445357Y-8796548D01*
X5454881Y-8815595D01*
X5464405Y-8853690D01*
X5464405Y-8882262D01*
X5454881Y-8920357D01*
X5445357Y-8939405D01*
X5426310Y-8958452D01*
X5397738Y-8967976D01*
X5350119Y-8967976D01*
X5550119Y-8967976D02*
X5550119Y-8834643D01*
X5550119Y-8872738D02*
X5559643Y-8853690D01*
X5569167Y-8844167D01*
X5588214Y-8834643D01*
X5607262Y-8834643D01*
X5673928Y-8967976D02*
X5673928Y-8834643D01*
X5673928Y-8767976D02*
X5664405Y-8777500D01*
X5673928Y-8787024D01*
X5683452Y-8777500D01*
X5673928Y-8767976D01*
X5673928Y-8787024D01*
X5797738Y-8967976D02*
X5778690Y-8958452D01*
X5769167Y-8939405D01*
X5769167Y-8767976D01*
X5902500Y-8967976D02*
X5883452Y-8958452D01*
X5873928Y-8939405D01*
X5873928Y-8767976D01*
X6131071Y-8967976D02*
X6131071Y-8767976D01*
X6197738Y-8910833D01*
X6264405Y-8767976D01*
X6264405Y-8967976D01*
X6445357Y-8967976D02*
X6445357Y-8863214D01*
X6435833Y-8844167D01*
X6416786Y-8834643D01*
X6378690Y-8834643D01*
X6359643Y-8844167D01*
X6445357Y-8958452D02*
X6426309Y-8967976D01*
X6378690Y-8967976D01*
X6359643Y-8958452D01*
X6350119Y-8939405D01*
X6350119Y-8920357D01*
X6359643Y-8901310D01*
X6378690Y-8891786D01*
X6426309Y-8891786D01*
X6445357Y-8882262D01*
X6540595Y-8834643D02*
X6540595Y-9034643D01*
X6540595Y-8844167D02*
X6559643Y-8834643D01*
X6597738Y-8834643D01*
X6616786Y-8844167D01*
X6626309Y-8853690D01*
X6635833Y-8872738D01*
X6635833Y-8929881D01*
X6626309Y-8948929D01*
X6616786Y-8958452D01*
X6597738Y-8967976D01*
X6559643Y-8967976D01*
X6540595Y-8958452D01*
X6721548Y-8948929D02*
X6731071Y-8958452D01*
X6721548Y-8967976D01*
X6712024Y-8958452D01*
X6721548Y-8948929D01*
X6721548Y-8967976D01*
X6721548Y-8844167D02*
X6731071Y-8853690D01*
X6721548Y-8863214D01*
X6712024Y-8853690D01*
X6721548Y-8844167D01*
X6721548Y-8863214D01*
D12*
X5062500Y-9282500D02*
X5092500Y-9312500D01*
X5092500Y-9282500D02*
X5062500Y-9312500D01*
D11*
X5388214Y-9187976D02*
X5407262Y-9187976D01*
X5426310Y-9197500D01*
X5435833Y-9207024D01*
X5445357Y-9226071D01*
X5454881Y-9264167D01*
X5454881Y-9311786D01*
X5445357Y-9349881D01*
X5435833Y-9368929D01*
X5426310Y-9378452D01*
X5407262Y-9387976D01*
X5388214Y-9387976D01*
X5369167Y-9378452D01*
X5359643Y-9368929D01*
X5350119Y-9349881D01*
X5340595Y-9311786D01*
X5340595Y-9264167D01*
X5350119Y-9226071D01*
X5359643Y-9207024D01*
X5369167Y-9197500D01*
X5388214Y-9187976D01*
X5540595Y-9368929D02*
X5550119Y-9378452D01*
X5540595Y-9387976D01*
X5531071Y-9378452D01*
X5540595Y-9368929D01*
X5540595Y-9387976D01*
X5616786Y-9187976D02*
X5740595Y-9187976D01*
X5673928Y-9264167D01*
X5702500Y-9264167D01*
X5721548Y-9273690D01*
X5731071Y-9283214D01*
X5740595Y-9302262D01*
X5740595Y-9349881D01*
X5731071Y-9368929D01*
X5721548Y-9378452D01*
X5702500Y-9387976D01*
X5645357Y-9387976D01*
X5626309Y-9378452D01*
X5616786Y-9368929D01*
X5864405Y-9187976D02*
X5883452Y-9187976D01*
X5902500Y-9197500D01*
X5912024Y-9207024D01*
X5921548Y-9226071D01*
X5931071Y-9264167D01*
X5931071Y-9311786D01*
X5921548Y-9349881D01*
X5912024Y-9368929D01*
X5902500Y-9378452D01*
X5883452Y-9387976D01*
X5864405Y-9387976D01*
X5845357Y-9378452D01*
X5835833Y-9368929D01*
X5826309Y-9349881D01*
X5816786Y-9311786D01*
X5816786Y-9264167D01*
X5826309Y-9226071D01*
X5835833Y-9207024D01*
X5845357Y-9197500D01*
X5864405Y-9187976D01*
X6054881Y-9187976D02*
X6073928Y-9187976D01*
X6092976Y-9197500D01*
X6102500Y-9207024D01*
X6112024Y-9226071D01*
X6121548Y-9264167D01*
X6121548Y-9311786D01*
X6112024Y-9349881D01*
X6102500Y-9368929D01*
X6092976Y-9378452D01*
X6073928Y-9387976D01*
X6054881Y-9387976D01*
X6035833Y-9378452D01*
X6026309Y-9368929D01*
X6016786Y-9349881D01*
X6007262Y-9311786D01*
X6007262Y-9264167D01*
X6016786Y-9226071D01*
X6026309Y-9207024D01*
X6035833Y-9197500D01*
X6054881Y-9187976D01*
X6207262Y-9387976D02*
X6207262Y-9254643D01*
X6207262Y-9273690D02*
X6216786Y-9264167D01*
X6235833Y-9254643D01*
X6264405Y-9254643D01*
X6283452Y-9264167D01*
X6292976Y-9283214D01*
X6292976Y-9387976D01*
X6292976Y-9283214D02*
X6302500Y-9264167D01*
X6321548Y-9254643D01*
X6350119Y-9254643D01*
X6369167Y-9264167D01*
X6378690Y-9283214D01*
X6378690Y-9387976D01*
X6473928Y-9387976D02*
X6473928Y-9254643D01*
X6473928Y-9273690D02*
X6483452Y-9264167D01*
X6502500Y-9254643D01*
X6531071Y-9254643D01*
X6550119Y-9264167D01*
X6559643Y-9283214D01*
X6559643Y-9387976D01*
X6559643Y-9283214D02*
X6569167Y-9264167D01*
X6588214Y-9254643D01*
X6616786Y-9254643D01*
X6635833Y-9264167D01*
X6645357Y-9283214D01*
X6645357Y-9387976D01*
X7035833Y-9178452D02*
X6864405Y-9435595D01*
X7292976Y-9187976D02*
X7312024Y-9187976D01*
X7331071Y-9197500D01*
X7340595Y-9207024D01*
X7350119Y-9226071D01*
X7359643Y-9264167D01*
X7359643Y-9311786D01*
X7350119Y-9349881D01*
X7340595Y-9368929D01*
X7331071Y-9378452D01*
X7312024Y-9387976D01*
X7292976Y-9387976D01*
X7273928Y-9378452D01*
X7264405Y-9368929D01*
X7254881Y-9349881D01*
X7245357Y-9311786D01*
X7245357Y-9264167D01*
X7254881Y-9226071D01*
X7264405Y-9207024D01*
X7273928Y-9197500D01*
X7292976Y-9187976D01*
X7445357Y-9368929D02*
X7454881Y-9378452D01*
X7445357Y-9387976D01*
X7435833Y-9378452D01*
X7445357Y-9368929D01*
X7445357Y-9387976D01*
X7578690Y-9187976D02*
X7597738Y-9187976D01*
X7616786Y-9197500D01*
X7626309Y-9207024D01*
X7635833Y-9226071D01*
X7645357Y-9264167D01*
X7645357Y-9311786D01*
X7635833Y-9349881D01*
X7626309Y-9368929D01*
X7616786Y-9378452D01*
X7597738Y-9387976D01*
X7578690Y-9387976D01*
X7559643Y-9378452D01*
X7550119Y-9368929D01*
X7540595Y-9349881D01*
X7531071Y-9311786D01*
X7531071Y-9264167D01*
X7540595Y-9226071D01*
X7550119Y-9207024D01*
X7559643Y-9197500D01*
X7578690Y-9187976D01*
X7835833Y-9387976D02*
X7721548Y-9387976D01*
X7778690Y-9387976D02*
X7778690Y-9187976D01*
X7759643Y-9216548D01*
X7740595Y-9235595D01*
X7721548Y-9245119D01*
X8026309Y-9387976D02*
X7912024Y-9387976D01*
X7969167Y-9387976D02*
X7969167Y-9187976D01*
X7950119Y-9216548D01*
X7931071Y-9235595D01*
X7912024Y-9245119D01*
X8140595Y-9273690D02*
X8121548Y-9264167D01*
X8112024Y-9254643D01*
X8102500Y-9235595D01*
X8102500Y-9226071D01*
X8112024Y-9207024D01*
X8121548Y-9197500D01*
X8140595Y-9187976D01*
X8178690Y-9187976D01*
X8197738Y-9197500D01*
X8207262Y-9207024D01*
X8216786Y-9226071D01*
X8216786Y-9235595D01*
X8207262Y-9254643D01*
X8197738Y-9264167D01*
X8178690Y-9273690D01*
X8140595Y-9273690D01*
X8121548Y-9283214D01*
X8112024Y-9292738D01*
X8102500Y-9311786D01*
X8102500Y-9349881D01*
X8112024Y-9368929D01*
X8121548Y-9378452D01*
X8140595Y-9387976D01*
X8178690Y-9387976D01*
X8197738Y-9378452D01*
X8207262Y-9368929D01*
X8216786Y-9349881D01*
X8216786Y-9311786D01*
X8207262Y-9292738D01*
X8197738Y-9283214D01*
X8178690Y-9273690D01*
X8292976Y-9187976D02*
X8292976Y-9226071D01*
X8369167Y-9187976D02*
X8369167Y-9226071D01*
X8664405Y-9464167D02*
X8654881Y-9454643D01*
X8635833Y-9426071D01*
X8626310Y-9407024D01*
X8616786Y-9378452D01*
X8607262Y-9330833D01*
X8607262Y-9292738D01*
X8616786Y-9245119D01*
X8626310Y-9216548D01*
X8635833Y-9197500D01*
X8654881Y-9168929D01*
X8664405Y-9159405D01*
X8845357Y-9387976D02*
X8731071Y-9387976D01*
X8788214Y-9387976D02*
X8788214Y-9187976D01*
X8769167Y-9216548D01*
X8750119Y-9235595D01*
X8731071Y-9245119D01*
X8959643Y-9273690D02*
X8940595Y-9264167D01*
X8931071Y-9254643D01*
X8921548Y-9235595D01*
X8921548Y-9226071D01*
X8931071Y-9207024D01*
X8940595Y-9197500D01*
X8959643Y-9187976D01*
X8997738Y-9187976D01*
X9016786Y-9197500D01*
X9026310Y-9207024D01*
X9035833Y-9226071D01*
X9035833Y-9235595D01*
X9026310Y-9254643D01*
X9016786Y-9264167D01*
X8997738Y-9273690D01*
X8959643Y-9273690D01*
X8940595Y-9283214D01*
X8931071Y-9292738D01*
X8921548Y-9311786D01*
X8921548Y-9349881D01*
X8931071Y-9368929D01*
X8940595Y-9378452D01*
X8959643Y-9387976D01*
X8997738Y-9387976D01*
X9016786Y-9378452D01*
X9026310Y-9368929D01*
X9035833Y-9349881D01*
X9035833Y-9311786D01*
X9026310Y-9292738D01*
X9016786Y-9283214D01*
X8997738Y-9273690D01*
X9273929Y-9387976D02*
X9273929Y-9187976D01*
X9359643Y-9387976D02*
X9359643Y-9283214D01*
X9350119Y-9264167D01*
X9331071Y-9254643D01*
X9302500Y-9254643D01*
X9283452Y-9264167D01*
X9273929Y-9273690D01*
X9483452Y-9387976D02*
X9464405Y-9378452D01*
X9454881Y-9368929D01*
X9445357Y-9349881D01*
X9445357Y-9292738D01*
X9454881Y-9273690D01*
X9464405Y-9264167D01*
X9483452Y-9254643D01*
X9512024Y-9254643D01*
X9531071Y-9264167D01*
X9540595Y-9273690D01*
X9550119Y-9292738D01*
X9550119Y-9349881D01*
X9540595Y-9368929D01*
X9531071Y-9378452D01*
X9512024Y-9387976D01*
X9483452Y-9387976D01*
X9664405Y-9387976D02*
X9645357Y-9378452D01*
X9635833Y-9359405D01*
X9635833Y-9187976D01*
X9816786Y-9378452D02*
X9797738Y-9387976D01*
X9759643Y-9387976D01*
X9740595Y-9378452D01*
X9731071Y-9359405D01*
X9731071Y-9283214D01*
X9740595Y-9264167D01*
X9759643Y-9254643D01*
X9797738Y-9254643D01*
X9816786Y-9264167D01*
X9826310Y-9283214D01*
X9826310Y-9302262D01*
X9731071Y-9321310D01*
X9902500Y-9378452D02*
X9921548Y-9387976D01*
X9959643Y-9387976D01*
X9978690Y-9378452D01*
X9988214Y-9359405D01*
X9988214Y-9349881D01*
X9978690Y-9330833D01*
X9959643Y-9321310D01*
X9931071Y-9321310D01*
X9912024Y-9311786D01*
X9902500Y-9292738D01*
X9902500Y-9283214D01*
X9912024Y-9264167D01*
X9931071Y-9254643D01*
X9959643Y-9254643D01*
X9978690Y-9264167D01*
X10054881Y-9464167D02*
X10064405Y-9454643D01*
X10083452Y-9426071D01*
X10092976Y-9407024D01*
X10102500Y-9378452D01*
X10112024Y-9330833D01*
X10112024Y-9292738D01*
X10102500Y-9245119D01*
X10092976Y-9216548D01*
X10083452Y-9197500D01*
X10064405Y-9168929D01*
X10054881Y-9159405D01*
D13*
X5092500Y-9561500D02*
G75*
G03*
X5092500Y-9561500I-20000J0D01*
G01*
D11*
X5388214Y-9451976D02*
X5407262Y-9451976D01*
X5426310Y-9461500D01*
X5435833Y-9471024D01*
X5445357Y-9490071D01*
X5454881Y-9528167D01*
X5454881Y-9575786D01*
X5445357Y-9613881D01*
X5435833Y-9632929D01*
X5426310Y-9642452D01*
X5407262Y-9651976D01*
X5388214Y-9651976D01*
X5369167Y-9642452D01*
X5359643Y-9632929D01*
X5350119Y-9613881D01*
X5340595Y-9575786D01*
X5340595Y-9528167D01*
X5350119Y-9490071D01*
X5359643Y-9471024D01*
X5369167Y-9461500D01*
X5388214Y-9451976D01*
X5540595Y-9632929D02*
X5550119Y-9642452D01*
X5540595Y-9651976D01*
X5531071Y-9642452D01*
X5540595Y-9632929D01*
X5540595Y-9651976D01*
X5721548Y-9518643D02*
X5721548Y-9651976D01*
X5673928Y-9442452D02*
X5626309Y-9585310D01*
X5750119Y-9585310D01*
X5864405Y-9451976D02*
X5883452Y-9451976D01*
X5902500Y-9461500D01*
X5912024Y-9471024D01*
X5921548Y-9490071D01*
X5931071Y-9528167D01*
X5931071Y-9575786D01*
X5921548Y-9613881D01*
X5912024Y-9632929D01*
X5902500Y-9642452D01*
X5883452Y-9651976D01*
X5864405Y-9651976D01*
X5845357Y-9642452D01*
X5835833Y-9632929D01*
X5826309Y-9613881D01*
X5816786Y-9575786D01*
X5816786Y-9528167D01*
X5826309Y-9490071D01*
X5835833Y-9471024D01*
X5845357Y-9461500D01*
X5864405Y-9451976D01*
X6054881Y-9451976D02*
X6073928Y-9451976D01*
X6092976Y-9461500D01*
X6102500Y-9471024D01*
X6112024Y-9490071D01*
X6121548Y-9528167D01*
X6121548Y-9575786D01*
X6112024Y-9613881D01*
X6102500Y-9632929D01*
X6092976Y-9642452D01*
X6073928Y-9651976D01*
X6054881Y-9651976D01*
X6035833Y-9642452D01*
X6026309Y-9632929D01*
X6016786Y-9613881D01*
X6007262Y-9575786D01*
X6007262Y-9528167D01*
X6016786Y-9490071D01*
X6026309Y-9471024D01*
X6035833Y-9461500D01*
X6054881Y-9451976D01*
X6207262Y-9651976D02*
X6207262Y-9518643D01*
X6207262Y-9537690D02*
X6216786Y-9528167D01*
X6235833Y-9518643D01*
X6264405Y-9518643D01*
X6283452Y-9528167D01*
X6292976Y-9547214D01*
X6292976Y-9651976D01*
X6292976Y-9547214D02*
X6302500Y-9528167D01*
X6321548Y-9518643D01*
X6350119Y-9518643D01*
X6369167Y-9528167D01*
X6378690Y-9547214D01*
X6378690Y-9651976D01*
X6473928Y-9651976D02*
X6473928Y-9518643D01*
X6473928Y-9537690D02*
X6483452Y-9528167D01*
X6502500Y-9518643D01*
X6531071Y-9518643D01*
X6550119Y-9528167D01*
X6559643Y-9547214D01*
X6559643Y-9651976D01*
X6559643Y-9547214D02*
X6569167Y-9528167D01*
X6588214Y-9518643D01*
X6616786Y-9518643D01*
X6635833Y-9528167D01*
X6645357Y-9547214D01*
X6645357Y-9651976D01*
X7035833Y-9442452D02*
X6864405Y-9699595D01*
X7292976Y-9451976D02*
X7312024Y-9451976D01*
X7331071Y-9461500D01*
X7340595Y-9471024D01*
X7350119Y-9490071D01*
X7359643Y-9528167D01*
X7359643Y-9575786D01*
X7350119Y-9613881D01*
X7340595Y-9632929D01*
X7331071Y-9642452D01*
X7312024Y-9651976D01*
X7292976Y-9651976D01*
X7273928Y-9642452D01*
X7264405Y-9632929D01*
X7254881Y-9613881D01*
X7245357Y-9575786D01*
X7245357Y-9528167D01*
X7254881Y-9490071D01*
X7264405Y-9471024D01*
X7273928Y-9461500D01*
X7292976Y-9451976D01*
X7445357Y-9632929D02*
X7454881Y-9642452D01*
X7445357Y-9651976D01*
X7435833Y-9642452D01*
X7445357Y-9632929D01*
X7445357Y-9651976D01*
X7578690Y-9451976D02*
X7597738Y-9451976D01*
X7616786Y-9461500D01*
X7626309Y-9471024D01*
X7635833Y-9490071D01*
X7645357Y-9528167D01*
X7645357Y-9575786D01*
X7635833Y-9613881D01*
X7626309Y-9632929D01*
X7616786Y-9642452D01*
X7597738Y-9651976D01*
X7578690Y-9651976D01*
X7559643Y-9642452D01*
X7550119Y-9632929D01*
X7540595Y-9613881D01*
X7531071Y-9575786D01*
X7531071Y-9528167D01*
X7540595Y-9490071D01*
X7550119Y-9471024D01*
X7559643Y-9461500D01*
X7578690Y-9451976D01*
X7835833Y-9651976D02*
X7721548Y-9651976D01*
X7778690Y-9651976D02*
X7778690Y-9451976D01*
X7759643Y-9480548D01*
X7740595Y-9499595D01*
X7721548Y-9509119D01*
X8016786Y-9451976D02*
X7921548Y-9451976D01*
X7912024Y-9547214D01*
X7921548Y-9537690D01*
X7940595Y-9528167D01*
X7988214Y-9528167D01*
X8007262Y-9537690D01*
X8016786Y-9547214D01*
X8026309Y-9566262D01*
X8026309Y-9613881D01*
X8016786Y-9632929D01*
X8007262Y-9642452D01*
X7988214Y-9651976D01*
X7940595Y-9651976D01*
X7921548Y-9642452D01*
X7912024Y-9632929D01*
X8092976Y-9451976D02*
X8226309Y-9451976D01*
X8140595Y-9651976D01*
X8292976Y-9451976D02*
X8292976Y-9490071D01*
X8369167Y-9451976D02*
X8369167Y-9490071D01*
X8664405Y-9728167D02*
X8654881Y-9718643D01*
X8635833Y-9690071D01*
X8626310Y-9671024D01*
X8616786Y-9642452D01*
X8607262Y-9594833D01*
X8607262Y-9556738D01*
X8616786Y-9509119D01*
X8626310Y-9480548D01*
X8635833Y-9461500D01*
X8654881Y-9432929D01*
X8664405Y-9423405D01*
X8845357Y-9651976D02*
X8731071Y-9651976D01*
X8788214Y-9651976D02*
X8788214Y-9451976D01*
X8769167Y-9480548D01*
X8750119Y-9499595D01*
X8731071Y-9509119D01*
X9016786Y-9451976D02*
X8978690Y-9451976D01*
X8959643Y-9461500D01*
X8950119Y-9471024D01*
X8931071Y-9499595D01*
X8921548Y-9537690D01*
X8921548Y-9613881D01*
X8931071Y-9632929D01*
X8940595Y-9642452D01*
X8959643Y-9651976D01*
X8997738Y-9651976D01*
X9016786Y-9642452D01*
X9026310Y-9632929D01*
X9035833Y-9613881D01*
X9035833Y-9566262D01*
X9026310Y-9547214D01*
X9016786Y-9537690D01*
X8997738Y-9528167D01*
X8959643Y-9528167D01*
X8940595Y-9537690D01*
X8931071Y-9547214D01*
X8921548Y-9566262D01*
X9102500Y-9451976D02*
X9235833Y-9451976D01*
X9150119Y-9651976D01*
X9464405Y-9651976D02*
X9464405Y-9451976D01*
X9550119Y-9651976D02*
X9550119Y-9547214D01*
X9540595Y-9528167D01*
X9521548Y-9518643D01*
X9492976Y-9518643D01*
X9473929Y-9528167D01*
X9464405Y-9537690D01*
X9673929Y-9651976D02*
X9654881Y-9642452D01*
X9645357Y-9632929D01*
X9635833Y-9613881D01*
X9635833Y-9556738D01*
X9645357Y-9537690D01*
X9654881Y-9528167D01*
X9673929Y-9518643D01*
X9702500Y-9518643D01*
X9721548Y-9528167D01*
X9731071Y-9537690D01*
X9740595Y-9556738D01*
X9740595Y-9613881D01*
X9731071Y-9632929D01*
X9721548Y-9642452D01*
X9702500Y-9651976D01*
X9673929Y-9651976D01*
X9854881Y-9651976D02*
X9835833Y-9642452D01*
X9826310Y-9623405D01*
X9826310Y-9451976D01*
X10007262Y-9642452D02*
X9988214Y-9651976D01*
X9950119Y-9651976D01*
X9931071Y-9642452D01*
X9921548Y-9623405D01*
X9921548Y-9547214D01*
X9931071Y-9528167D01*
X9950119Y-9518643D01*
X9988214Y-9518643D01*
X10007262Y-9528167D01*
X10016786Y-9547214D01*
X10016786Y-9566262D01*
X9921548Y-9585310D01*
X10092976Y-9642452D02*
X10112024Y-9651976D01*
X10150119Y-9651976D01*
X10169167Y-9642452D01*
X10178690Y-9623405D01*
X10178690Y-9613881D01*
X10169167Y-9594833D01*
X10150119Y-9585310D01*
X10121548Y-9585310D01*
X10102500Y-9575786D01*
X10092976Y-9556738D01*
X10092976Y-9547214D01*
X10102500Y-9528167D01*
X10121548Y-9518643D01*
X10150119Y-9518643D01*
X10169167Y-9528167D01*
X10245357Y-9728167D02*
X10254881Y-9718643D01*
X10273929Y-9690071D01*
X10283452Y-9671024D01*
X10292976Y-9642452D01*
X10302500Y-9594833D01*
X10302500Y-9556738D01*
X10292976Y-9509119D01*
X10283452Y-9480548D01*
X10273929Y-9461500D01*
X10254881Y-9432929D01*
X10245357Y-9423405D01*
D14*
X5042500Y-9775500D02*
X5042500Y-9875500D01*
X4992500Y-9825500D02*
X5092500Y-9825500D01*
D11*
X5454881Y-9915976D02*
X5340595Y-9915976D01*
X5397738Y-9915976D02*
X5397738Y-9715976D01*
X5378690Y-9744548D01*
X5359643Y-9763595D01*
X5340595Y-9773119D01*
X5540595Y-9896929D02*
X5550119Y-9906452D01*
X5540595Y-9915976D01*
X5531071Y-9906452D01*
X5540595Y-9896929D01*
X5540595Y-9915976D01*
X5673928Y-9715976D02*
X5692976Y-9715976D01*
X5712024Y-9725500D01*
X5721548Y-9735024D01*
X5731071Y-9754071D01*
X5740595Y-9792167D01*
X5740595Y-9839786D01*
X5731071Y-9877881D01*
X5721548Y-9896929D01*
X5712024Y-9906452D01*
X5692976Y-9915976D01*
X5673928Y-9915976D01*
X5654881Y-9906452D01*
X5645357Y-9896929D01*
X5635833Y-9877881D01*
X5626309Y-9839786D01*
X5626309Y-9792167D01*
X5635833Y-9754071D01*
X5645357Y-9735024D01*
X5654881Y-9725500D01*
X5673928Y-9715976D01*
X5864405Y-9715976D02*
X5883452Y-9715976D01*
X5902500Y-9725500D01*
X5912024Y-9735024D01*
X5921548Y-9754071D01*
X5931071Y-9792167D01*
X5931071Y-9839786D01*
X5921548Y-9877881D01*
X5912024Y-9896929D01*
X5902500Y-9906452D01*
X5883452Y-9915976D01*
X5864405Y-9915976D01*
X5845357Y-9906452D01*
X5835833Y-9896929D01*
X5826309Y-9877881D01*
X5816786Y-9839786D01*
X5816786Y-9792167D01*
X5826309Y-9754071D01*
X5835833Y-9735024D01*
X5845357Y-9725500D01*
X5864405Y-9715976D01*
X6054881Y-9715976D02*
X6073928Y-9715976D01*
X6092976Y-9725500D01*
X6102500Y-9735024D01*
X6112024Y-9754071D01*
X6121548Y-9792167D01*
X6121548Y-9839786D01*
X6112024Y-9877881D01*
X6102500Y-9896929D01*
X6092976Y-9906452D01*
X6073928Y-9915976D01*
X6054881Y-9915976D01*
X6035833Y-9906452D01*
X6026309Y-9896929D01*
X6016786Y-9877881D01*
X6007262Y-9839786D01*
X6007262Y-9792167D01*
X6016786Y-9754071D01*
X6026309Y-9735024D01*
X6035833Y-9725500D01*
X6054881Y-9715976D01*
X6207262Y-9915976D02*
X6207262Y-9782643D01*
X6207262Y-9801690D02*
X6216786Y-9792167D01*
X6235833Y-9782643D01*
X6264405Y-9782643D01*
X6283452Y-9792167D01*
X6292976Y-9811214D01*
X6292976Y-9915976D01*
X6292976Y-9811214D02*
X6302500Y-9792167D01*
X6321548Y-9782643D01*
X6350119Y-9782643D01*
X6369167Y-9792167D01*
X6378690Y-9811214D01*
X6378690Y-9915976D01*
X6473928Y-9915976D02*
X6473928Y-9782643D01*
X6473928Y-9801690D02*
X6483452Y-9792167D01*
X6502500Y-9782643D01*
X6531071Y-9782643D01*
X6550119Y-9792167D01*
X6559643Y-9811214D01*
X6559643Y-9915976D01*
X6559643Y-9811214D02*
X6569167Y-9792167D01*
X6588214Y-9782643D01*
X6616786Y-9782643D01*
X6635833Y-9792167D01*
X6645357Y-9811214D01*
X6645357Y-9915976D01*
X7035833Y-9706452D02*
X6864405Y-9963595D01*
X7292976Y-9715976D02*
X7312024Y-9715976D01*
X7331071Y-9725500D01*
X7340595Y-9735024D01*
X7350119Y-9754071D01*
X7359643Y-9792167D01*
X7359643Y-9839786D01*
X7350119Y-9877881D01*
X7340595Y-9896929D01*
X7331071Y-9906452D01*
X7312024Y-9915976D01*
X7292976Y-9915976D01*
X7273928Y-9906452D01*
X7264405Y-9896929D01*
X7254881Y-9877881D01*
X7245357Y-9839786D01*
X7245357Y-9792167D01*
X7254881Y-9754071D01*
X7264405Y-9735024D01*
X7273928Y-9725500D01*
X7292976Y-9715976D01*
X7445357Y-9896929D02*
X7454881Y-9906452D01*
X7445357Y-9915976D01*
X7435833Y-9906452D01*
X7445357Y-9896929D01*
X7445357Y-9915976D01*
X7578690Y-9715976D02*
X7597738Y-9715976D01*
X7616786Y-9725500D01*
X7626309Y-9735024D01*
X7635833Y-9754071D01*
X7645357Y-9792167D01*
X7645357Y-9839786D01*
X7635833Y-9877881D01*
X7626309Y-9896929D01*
X7616786Y-9906452D01*
X7597738Y-9915976D01*
X7578690Y-9915976D01*
X7559643Y-9906452D01*
X7550119Y-9896929D01*
X7540595Y-9877881D01*
X7531071Y-9839786D01*
X7531071Y-9792167D01*
X7540595Y-9754071D01*
X7550119Y-9735024D01*
X7559643Y-9725500D01*
X7578690Y-9715976D01*
X7712024Y-9715976D02*
X7835833Y-9715976D01*
X7769167Y-9792167D01*
X7797738Y-9792167D01*
X7816786Y-9801690D01*
X7826309Y-9811214D01*
X7835833Y-9830262D01*
X7835833Y-9877881D01*
X7826309Y-9896929D01*
X7816786Y-9906452D01*
X7797738Y-9915976D01*
X7740595Y-9915976D01*
X7721548Y-9906452D01*
X7712024Y-9896929D01*
X7931071Y-9915976D02*
X7969167Y-9915976D01*
X7988214Y-9906452D01*
X7997738Y-9896929D01*
X8016786Y-9868357D01*
X8026309Y-9830262D01*
X8026309Y-9754071D01*
X8016786Y-9735024D01*
X8007262Y-9725500D01*
X7988214Y-9715976D01*
X7950119Y-9715976D01*
X7931071Y-9725500D01*
X7921548Y-9735024D01*
X7912024Y-9754071D01*
X7912024Y-9801690D01*
X7921548Y-9820738D01*
X7931071Y-9830262D01*
X7950119Y-9839786D01*
X7988214Y-9839786D01*
X8007262Y-9830262D01*
X8016786Y-9820738D01*
X8026309Y-9801690D01*
X8197738Y-9782643D02*
X8197738Y-9915976D01*
X8150119Y-9706452D02*
X8102500Y-9849310D01*
X8226309Y-9849310D01*
X8292976Y-9715976D02*
X8292976Y-9754071D01*
X8369167Y-9715976D02*
X8369167Y-9754071D01*
X8664405Y-9992167D02*
X8654881Y-9982643D01*
X8635833Y-9954071D01*
X8626310Y-9935024D01*
X8616786Y-9906452D01*
X8607262Y-9858833D01*
X8607262Y-9820738D01*
X8616786Y-9773119D01*
X8626310Y-9744548D01*
X8635833Y-9725500D01*
X8654881Y-9696929D01*
X8664405Y-9687405D01*
X8826310Y-9715976D02*
X8788214Y-9715976D01*
X8769167Y-9725500D01*
X8759643Y-9735024D01*
X8740595Y-9763595D01*
X8731071Y-9801690D01*
X8731071Y-9877881D01*
X8740595Y-9896929D01*
X8750119Y-9906452D01*
X8769167Y-9915976D01*
X8807262Y-9915976D01*
X8826310Y-9906452D01*
X8835833Y-9896929D01*
X8845357Y-9877881D01*
X8845357Y-9830262D01*
X8835833Y-9811214D01*
X8826310Y-9801690D01*
X8807262Y-9792167D01*
X8769167Y-9792167D01*
X8750119Y-9801690D01*
X8740595Y-9811214D01*
X8731071Y-9830262D01*
X8912024Y-9715976D02*
X9035833Y-9715976D01*
X8969167Y-9792167D01*
X8997738Y-9792167D01*
X9016786Y-9801690D01*
X9026310Y-9811214D01*
X9035833Y-9830262D01*
X9035833Y-9877881D01*
X9026310Y-9896929D01*
X9016786Y-9906452D01*
X8997738Y-9915976D01*
X8940595Y-9915976D01*
X8921548Y-9906452D01*
X8912024Y-9896929D01*
X9273929Y-9915976D02*
X9273929Y-9715976D01*
X9359643Y-9915976D02*
X9359643Y-9811214D01*
X9350119Y-9792167D01*
X9331071Y-9782643D01*
X9302500Y-9782643D01*
X9283452Y-9792167D01*
X9273929Y-9801690D01*
X9483452Y-9915976D02*
X9464405Y-9906452D01*
X9454881Y-9896929D01*
X9445357Y-9877881D01*
X9445357Y-9820738D01*
X9454881Y-9801690D01*
X9464405Y-9792167D01*
X9483452Y-9782643D01*
X9512024Y-9782643D01*
X9531071Y-9792167D01*
X9540595Y-9801690D01*
X9550119Y-9820738D01*
X9550119Y-9877881D01*
X9540595Y-9896929D01*
X9531071Y-9906452D01*
X9512024Y-9915976D01*
X9483452Y-9915976D01*
X9664405Y-9915976D02*
X9645357Y-9906452D01*
X9635833Y-9887405D01*
X9635833Y-9715976D01*
X9816786Y-9906452D02*
X9797738Y-9915976D01*
X9759643Y-9915976D01*
X9740595Y-9906452D01*
X9731071Y-9887405D01*
X9731071Y-9811214D01*
X9740595Y-9792167D01*
X9759643Y-9782643D01*
X9797738Y-9782643D01*
X9816786Y-9792167D01*
X9826310Y-9811214D01*
X9826310Y-9830262D01*
X9731071Y-9849310D01*
X9902500Y-9906452D02*
X9921548Y-9915976D01*
X9959643Y-9915976D01*
X9978690Y-9906452D01*
X9988214Y-9887405D01*
X9988214Y-9877881D01*
X9978690Y-9858833D01*
X9959643Y-9849310D01*
X9931071Y-9849310D01*
X9912024Y-9839786D01*
X9902500Y-9820738D01*
X9902500Y-9811214D01*
X9912024Y-9792167D01*
X9931071Y-9782643D01*
X9959643Y-9782643D01*
X9978690Y-9792167D01*
X10054881Y-9992167D02*
X10064405Y-9982643D01*
X10083452Y-9954071D01*
X10092976Y-9935024D01*
X10102500Y-9906452D01*
X10112024Y-9858833D01*
X10112024Y-9820738D01*
X10102500Y-9773119D01*
X10092976Y-9744548D01*
X10083452Y-9725500D01*
X10064405Y-9696929D01*
X10054881Y-9687405D01*
D15*
X5076391Y-10128391D02*
X5076391Y-10050609D01*
X4998609Y-10050609D01*
X4998609Y-10128391D01*
X5076391Y-10128391D01*
D11*
X5454881Y-10179976D02*
X5340595Y-10179976D01*
X5397738Y-10179976D02*
X5397738Y-9979976D01*
X5378690Y-10008548D01*
X5359643Y-10027595D01*
X5340595Y-10037119D01*
X5540595Y-10160929D02*
X5550119Y-10170452D01*
X5540595Y-10179976D01*
X5531071Y-10170452D01*
X5540595Y-10160929D01*
X5540595Y-10179976D01*
X5740595Y-10179976D02*
X5626309Y-10179976D01*
X5683452Y-10179976D02*
X5683452Y-9979976D01*
X5664405Y-10008548D01*
X5645357Y-10027595D01*
X5626309Y-10037119D01*
X5864405Y-9979976D02*
X5883452Y-9979976D01*
X5902500Y-9989500D01*
X5912024Y-9999024D01*
X5921548Y-10018071D01*
X5931071Y-10056167D01*
X5931071Y-10103786D01*
X5921548Y-10141881D01*
X5912024Y-10160929D01*
X5902500Y-10170452D01*
X5883452Y-10179976D01*
X5864405Y-10179976D01*
X5845357Y-10170452D01*
X5835833Y-10160929D01*
X5826309Y-10141881D01*
X5816786Y-10103786D01*
X5816786Y-10056167D01*
X5826309Y-10018071D01*
X5835833Y-9999024D01*
X5845357Y-9989500D01*
X5864405Y-9979976D01*
X6054881Y-9979976D02*
X6073928Y-9979976D01*
X6092976Y-9989500D01*
X6102500Y-9999024D01*
X6112024Y-10018071D01*
X6121548Y-10056167D01*
X6121548Y-10103786D01*
X6112024Y-10141881D01*
X6102500Y-10160929D01*
X6092976Y-10170452D01*
X6073928Y-10179976D01*
X6054881Y-10179976D01*
X6035833Y-10170452D01*
X6026309Y-10160929D01*
X6016786Y-10141881D01*
X6007262Y-10103786D01*
X6007262Y-10056167D01*
X6016786Y-10018071D01*
X6026309Y-9999024D01*
X6035833Y-9989500D01*
X6054881Y-9979976D01*
X6207262Y-10179976D02*
X6207262Y-10046643D01*
X6207262Y-10065690D02*
X6216786Y-10056167D01*
X6235833Y-10046643D01*
X6264405Y-10046643D01*
X6283452Y-10056167D01*
X6292976Y-10075214D01*
X6292976Y-10179976D01*
X6292976Y-10075214D02*
X6302500Y-10056167D01*
X6321548Y-10046643D01*
X6350119Y-10046643D01*
X6369167Y-10056167D01*
X6378690Y-10075214D01*
X6378690Y-10179976D01*
X6473928Y-10179976D02*
X6473928Y-10046643D01*
X6473928Y-10065690D02*
X6483452Y-10056167D01*
X6502500Y-10046643D01*
X6531071Y-10046643D01*
X6550119Y-10056167D01*
X6559643Y-10075214D01*
X6559643Y-10179976D01*
X6559643Y-10075214D02*
X6569167Y-10056167D01*
X6588214Y-10046643D01*
X6616786Y-10046643D01*
X6635833Y-10056167D01*
X6645357Y-10075214D01*
X6645357Y-10179976D01*
X7035833Y-9970452D02*
X6864405Y-10227595D01*
X7292976Y-9979976D02*
X7312024Y-9979976D01*
X7331071Y-9989500D01*
X7340595Y-9999024D01*
X7350119Y-10018071D01*
X7359643Y-10056167D01*
X7359643Y-10103786D01*
X7350119Y-10141881D01*
X7340595Y-10160929D01*
X7331071Y-10170452D01*
X7312024Y-10179976D01*
X7292976Y-10179976D01*
X7273928Y-10170452D01*
X7264405Y-10160929D01*
X7254881Y-10141881D01*
X7245357Y-10103786D01*
X7245357Y-10056167D01*
X7254881Y-10018071D01*
X7264405Y-9999024D01*
X7273928Y-9989500D01*
X7292976Y-9979976D01*
X7445357Y-10160929D02*
X7454881Y-10170452D01*
X7445357Y-10179976D01*
X7435833Y-10170452D01*
X7445357Y-10160929D01*
X7445357Y-10179976D01*
X7578690Y-9979976D02*
X7597738Y-9979976D01*
X7616786Y-9989500D01*
X7626309Y-9999024D01*
X7635833Y-10018071D01*
X7645357Y-10056167D01*
X7645357Y-10103786D01*
X7635833Y-10141881D01*
X7626309Y-10160929D01*
X7616786Y-10170452D01*
X7597738Y-10179976D01*
X7578690Y-10179976D01*
X7559643Y-10170452D01*
X7550119Y-10160929D01*
X7540595Y-10141881D01*
X7531071Y-10103786D01*
X7531071Y-10056167D01*
X7540595Y-10018071D01*
X7550119Y-9999024D01*
X7559643Y-9989500D01*
X7578690Y-9979976D01*
X7816786Y-10046643D02*
X7816786Y-10179976D01*
X7769167Y-9970452D02*
X7721548Y-10113310D01*
X7845357Y-10113310D01*
X7902500Y-9979976D02*
X8026309Y-9979976D01*
X7959643Y-10056167D01*
X7988214Y-10056167D01*
X8007262Y-10065690D01*
X8016786Y-10075214D01*
X8026309Y-10094262D01*
X8026309Y-10141881D01*
X8016786Y-10160929D01*
X8007262Y-10170452D01*
X7988214Y-10179976D01*
X7931071Y-10179976D01*
X7912024Y-10170452D01*
X7902500Y-10160929D01*
X8092976Y-9979976D02*
X8216786Y-9979976D01*
X8150119Y-10056167D01*
X8178690Y-10056167D01*
X8197738Y-10065690D01*
X8207262Y-10075214D01*
X8216786Y-10094262D01*
X8216786Y-10141881D01*
X8207262Y-10160929D01*
X8197738Y-10170452D01*
X8178690Y-10179976D01*
X8121548Y-10179976D01*
X8102500Y-10170452D01*
X8092976Y-10160929D01*
X8292976Y-9979976D02*
X8292976Y-10018071D01*
X8369167Y-9979976D02*
X8369167Y-10018071D01*
X8664405Y-10256167D02*
X8654881Y-10246643D01*
X8635833Y-10218071D01*
X8626310Y-10199024D01*
X8616786Y-10170452D01*
X8607262Y-10122833D01*
X8607262Y-10084738D01*
X8616786Y-10037119D01*
X8626310Y-10008548D01*
X8635833Y-9989500D01*
X8654881Y-9960929D01*
X8664405Y-9951405D01*
X8845357Y-10179976D02*
X8731071Y-10179976D01*
X8788214Y-10179976D02*
X8788214Y-9979976D01*
X8769167Y-10008548D01*
X8750119Y-10027595D01*
X8731071Y-10037119D01*
X9016786Y-9979976D02*
X8978690Y-9979976D01*
X8959643Y-9989500D01*
X8950119Y-9999024D01*
X8931071Y-10027595D01*
X8921548Y-10065690D01*
X8921548Y-10141881D01*
X8931071Y-10160929D01*
X8940595Y-10170452D01*
X8959643Y-10179976D01*
X8997738Y-10179976D01*
X9016786Y-10170452D01*
X9026310Y-10160929D01*
X9035833Y-10141881D01*
X9035833Y-10094262D01*
X9026310Y-10075214D01*
X9016786Y-10065690D01*
X8997738Y-10056167D01*
X8959643Y-10056167D01*
X8940595Y-10065690D01*
X8931071Y-10075214D01*
X8921548Y-10094262D01*
X9273929Y-10179976D02*
X9273929Y-9979976D01*
X9359643Y-10179976D02*
X9359643Y-10075214D01*
X9350119Y-10056167D01*
X9331071Y-10046643D01*
X9302500Y-10046643D01*
X9283452Y-10056167D01*
X9273929Y-10065690D01*
X9483452Y-10179976D02*
X9464405Y-10170452D01*
X9454881Y-10160929D01*
X9445357Y-10141881D01*
X9445357Y-10084738D01*
X9454881Y-10065690D01*
X9464405Y-10056167D01*
X9483452Y-10046643D01*
X9512024Y-10046643D01*
X9531071Y-10056167D01*
X9540595Y-10065690D01*
X9550119Y-10084738D01*
X9550119Y-10141881D01*
X9540595Y-10160929D01*
X9531071Y-10170452D01*
X9512024Y-10179976D01*
X9483452Y-10179976D01*
X9664405Y-10179976D02*
X9645357Y-10170452D01*
X9635833Y-10151405D01*
X9635833Y-9979976D01*
X9816786Y-10170452D02*
X9797738Y-10179976D01*
X9759643Y-10179976D01*
X9740595Y-10170452D01*
X9731071Y-10151405D01*
X9731071Y-10075214D01*
X9740595Y-10056167D01*
X9759643Y-10046643D01*
X9797738Y-10046643D01*
X9816786Y-10056167D01*
X9826310Y-10075214D01*
X9826310Y-10094262D01*
X9731071Y-10113310D01*
X9902500Y-10170452D02*
X9921548Y-10179976D01*
X9959643Y-10179976D01*
X9978690Y-10170452D01*
X9988214Y-10151405D01*
X9988214Y-10141881D01*
X9978690Y-10122833D01*
X9959643Y-10113310D01*
X9931071Y-10113310D01*
X9912024Y-10103786D01*
X9902500Y-10084738D01*
X9902500Y-10075214D01*
X9912024Y-10056167D01*
X9931071Y-10046643D01*
X9959643Y-10046643D01*
X9978690Y-10056167D01*
X10054881Y-10256167D02*
X10064405Y-10246643D01*
X10083452Y-10218071D01*
X10092976Y-10199024D01*
X10102500Y-10170452D01*
X10112024Y-10122833D01*
X10112024Y-10084738D01*
X10102500Y-10037119D01*
X10092976Y-10008548D01*
X10083452Y-9989500D01*
X10064405Y-9960929D01*
X10054881Y-9951405D01*
D16*
X5032500Y-10413500D02*
X5092500Y-10353500D01*
X5032500Y-10293500D01*
X4972500Y-10353500D01*
X5032500Y-10413500D01*
D11*
X5454881Y-10443976D02*
X5340595Y-10443976D01*
X5397738Y-10443976D02*
X5397738Y-10243976D01*
X5378690Y-10272548D01*
X5359643Y-10291595D01*
X5340595Y-10301119D01*
X5540595Y-10424929D02*
X5550119Y-10434452D01*
X5540595Y-10443976D01*
X5531071Y-10434452D01*
X5540595Y-10424929D01*
X5540595Y-10443976D01*
X5626309Y-10263024D02*
X5635833Y-10253500D01*
X5654881Y-10243976D01*
X5702500Y-10243976D01*
X5721548Y-10253500D01*
X5731071Y-10263024D01*
X5740595Y-10282071D01*
X5740595Y-10301119D01*
X5731071Y-10329690D01*
X5616786Y-10443976D01*
X5740595Y-10443976D01*
X5864405Y-10243976D02*
X5883452Y-10243976D01*
X5902500Y-10253500D01*
X5912024Y-10263024D01*
X5921548Y-10282071D01*
X5931071Y-10320167D01*
X5931071Y-10367786D01*
X5921548Y-10405881D01*
X5912024Y-10424929D01*
X5902500Y-10434452D01*
X5883452Y-10443976D01*
X5864405Y-10443976D01*
X5845357Y-10434452D01*
X5835833Y-10424929D01*
X5826309Y-10405881D01*
X5816786Y-10367786D01*
X5816786Y-10320167D01*
X5826309Y-10282071D01*
X5835833Y-10263024D01*
X5845357Y-10253500D01*
X5864405Y-10243976D01*
X6054881Y-10243976D02*
X6073928Y-10243976D01*
X6092976Y-10253500D01*
X6102500Y-10263024D01*
X6112024Y-10282071D01*
X6121548Y-10320167D01*
X6121548Y-10367786D01*
X6112024Y-10405881D01*
X6102500Y-10424929D01*
X6092976Y-10434452D01*
X6073928Y-10443976D01*
X6054881Y-10443976D01*
X6035833Y-10434452D01*
X6026309Y-10424929D01*
X6016786Y-10405881D01*
X6007262Y-10367786D01*
X6007262Y-10320167D01*
X6016786Y-10282071D01*
X6026309Y-10263024D01*
X6035833Y-10253500D01*
X6054881Y-10243976D01*
X6207262Y-10443976D02*
X6207262Y-10310643D01*
X6207262Y-10329690D02*
X6216786Y-10320167D01*
X6235833Y-10310643D01*
X6264405Y-10310643D01*
X6283452Y-10320167D01*
X6292976Y-10339214D01*
X6292976Y-10443976D01*
X6292976Y-10339214D02*
X6302500Y-10320167D01*
X6321548Y-10310643D01*
X6350119Y-10310643D01*
X6369167Y-10320167D01*
X6378690Y-10339214D01*
X6378690Y-10443976D01*
X6473928Y-10443976D02*
X6473928Y-10310643D01*
X6473928Y-10329690D02*
X6483452Y-10320167D01*
X6502500Y-10310643D01*
X6531071Y-10310643D01*
X6550119Y-10320167D01*
X6559643Y-10339214D01*
X6559643Y-10443976D01*
X6559643Y-10339214D02*
X6569167Y-10320167D01*
X6588214Y-10310643D01*
X6616786Y-10310643D01*
X6635833Y-10320167D01*
X6645357Y-10339214D01*
X6645357Y-10443976D01*
X7035833Y-10234452D02*
X6864405Y-10491595D01*
X7292976Y-10243976D02*
X7312024Y-10243976D01*
X7331071Y-10253500D01*
X7340595Y-10263024D01*
X7350119Y-10282071D01*
X7359643Y-10320167D01*
X7359643Y-10367786D01*
X7350119Y-10405881D01*
X7340595Y-10424929D01*
X7331071Y-10434452D01*
X7312024Y-10443976D01*
X7292976Y-10443976D01*
X7273928Y-10434452D01*
X7264405Y-10424929D01*
X7254881Y-10405881D01*
X7245357Y-10367786D01*
X7245357Y-10320167D01*
X7254881Y-10282071D01*
X7264405Y-10263024D01*
X7273928Y-10253500D01*
X7292976Y-10243976D01*
X7445357Y-10424929D02*
X7454881Y-10434452D01*
X7445357Y-10443976D01*
X7435833Y-10434452D01*
X7445357Y-10424929D01*
X7445357Y-10443976D01*
X7578690Y-10243976D02*
X7597738Y-10243976D01*
X7616786Y-10253500D01*
X7626309Y-10263024D01*
X7635833Y-10282071D01*
X7645357Y-10320167D01*
X7645357Y-10367786D01*
X7635833Y-10405881D01*
X7626309Y-10424929D01*
X7616786Y-10434452D01*
X7597738Y-10443976D01*
X7578690Y-10443976D01*
X7559643Y-10434452D01*
X7550119Y-10424929D01*
X7540595Y-10405881D01*
X7531071Y-10367786D01*
X7531071Y-10320167D01*
X7540595Y-10282071D01*
X7550119Y-10263024D01*
X7559643Y-10253500D01*
X7578690Y-10243976D01*
X7816786Y-10310643D02*
X7816786Y-10443976D01*
X7769167Y-10234452D02*
X7721548Y-10377310D01*
X7845357Y-10377310D01*
X7902500Y-10243976D02*
X8035833Y-10243976D01*
X7950119Y-10443976D01*
X8102500Y-10263024D02*
X8112024Y-10253500D01*
X8131071Y-10243976D01*
X8178690Y-10243976D01*
X8197738Y-10253500D01*
X8207262Y-10263024D01*
X8216786Y-10282071D01*
X8216786Y-10301119D01*
X8207262Y-10329690D01*
X8092976Y-10443976D01*
X8216786Y-10443976D01*
X8292976Y-10243976D02*
X8292976Y-10282071D01*
X8369167Y-10243976D02*
X8369167Y-10282071D01*
X8664405Y-10520167D02*
X8654881Y-10510643D01*
X8635833Y-10482071D01*
X8626310Y-10463024D01*
X8616786Y-10434452D01*
X8607262Y-10386833D01*
X8607262Y-10348738D01*
X8616786Y-10301119D01*
X8626310Y-10272548D01*
X8635833Y-10253500D01*
X8654881Y-10224929D01*
X8664405Y-10215405D01*
X8826310Y-10243976D02*
X8788214Y-10243976D01*
X8769167Y-10253500D01*
X8759643Y-10263024D01*
X8740595Y-10291595D01*
X8731071Y-10329690D01*
X8731071Y-10405881D01*
X8740595Y-10424929D01*
X8750119Y-10434452D01*
X8769167Y-10443976D01*
X8807262Y-10443976D01*
X8826310Y-10434452D01*
X8835833Y-10424929D01*
X8845357Y-10405881D01*
X8845357Y-10358262D01*
X8835833Y-10339214D01*
X8826310Y-10329690D01*
X8807262Y-10320167D01*
X8769167Y-10320167D01*
X8750119Y-10329690D01*
X8740595Y-10339214D01*
X8731071Y-10358262D01*
X9083452Y-10443976D02*
X9083452Y-10243976D01*
X9169167Y-10443976D02*
X9169167Y-10339214D01*
X9159643Y-10320167D01*
X9140595Y-10310643D01*
X9112024Y-10310643D01*
X9092976Y-10320167D01*
X9083452Y-10329690D01*
X9292976Y-10443976D02*
X9273929Y-10434452D01*
X9264405Y-10424929D01*
X9254881Y-10405881D01*
X9254881Y-10348738D01*
X9264405Y-10329690D01*
X9273929Y-10320167D01*
X9292976Y-10310643D01*
X9321548Y-10310643D01*
X9340595Y-10320167D01*
X9350119Y-10329690D01*
X9359643Y-10348738D01*
X9359643Y-10405881D01*
X9350119Y-10424929D01*
X9340595Y-10434452D01*
X9321548Y-10443976D01*
X9292976Y-10443976D01*
X9473929Y-10443976D02*
X9454881Y-10434452D01*
X9445357Y-10415405D01*
X9445357Y-10243976D01*
X9626310Y-10434452D02*
X9607262Y-10443976D01*
X9569167Y-10443976D01*
X9550119Y-10434452D01*
X9540595Y-10415405D01*
X9540595Y-10339214D01*
X9550119Y-10320167D01*
X9569167Y-10310643D01*
X9607262Y-10310643D01*
X9626310Y-10320167D01*
X9635833Y-10339214D01*
X9635833Y-10358262D01*
X9540595Y-10377310D01*
X9712024Y-10434452D02*
X9731071Y-10443976D01*
X9769167Y-10443976D01*
X9788214Y-10434452D01*
X9797738Y-10415405D01*
X9797738Y-10405881D01*
X9788214Y-10386833D01*
X9769167Y-10377310D01*
X9740595Y-10377310D01*
X9721548Y-10367786D01*
X9712024Y-10348738D01*
X9712024Y-10339214D01*
X9721548Y-10320167D01*
X9740595Y-10310643D01*
X9769167Y-10310643D01*
X9788214Y-10320167D01*
X9864405Y-10520167D02*
X9873929Y-10510643D01*
X9892976Y-10482071D01*
X9902500Y-10463024D01*
X9912024Y-10434452D01*
X9921548Y-10386833D01*
X9921548Y-10348738D01*
X9912024Y-10301119D01*
X9902500Y-10272548D01*
X9892976Y-10253500D01*
X9873929Y-10224929D01*
X9864405Y-10215405D01*
D10*
X4942500Y-10542500D02*
X5092500Y-10692500D01*
X5092500Y-10542500D02*
X4942500Y-10692500D01*
X5092500Y-10617500D02*
G75*
G03*
X5092500Y-10617500I-75000J0D01*
G01*
D11*
X5454881Y-10707976D02*
X5340595Y-10707976D01*
X5397738Y-10707976D02*
X5397738Y-10507976D01*
X5378690Y-10536548D01*
X5359643Y-10555595D01*
X5340595Y-10565119D01*
X5540595Y-10688929D02*
X5550119Y-10698452D01*
X5540595Y-10707976D01*
X5531071Y-10698452D01*
X5540595Y-10688929D01*
X5540595Y-10707976D01*
X5731071Y-10507976D02*
X5635833Y-10507976D01*
X5626309Y-10603214D01*
X5635833Y-10593690D01*
X5654881Y-10584167D01*
X5702500Y-10584167D01*
X5721548Y-10593690D01*
X5731071Y-10603214D01*
X5740595Y-10622262D01*
X5740595Y-10669881D01*
X5731071Y-10688929D01*
X5721548Y-10698452D01*
X5702500Y-10707976D01*
X5654881Y-10707976D01*
X5635833Y-10698452D01*
X5626309Y-10688929D01*
X5864405Y-10507976D02*
X5883452Y-10507976D01*
X5902500Y-10517500D01*
X5912024Y-10527024D01*
X5921548Y-10546071D01*
X5931071Y-10584167D01*
X5931071Y-10631786D01*
X5921548Y-10669881D01*
X5912024Y-10688929D01*
X5902500Y-10698452D01*
X5883452Y-10707976D01*
X5864405Y-10707976D01*
X5845357Y-10698452D01*
X5835833Y-10688929D01*
X5826309Y-10669881D01*
X5816786Y-10631786D01*
X5816786Y-10584167D01*
X5826309Y-10546071D01*
X5835833Y-10527024D01*
X5845357Y-10517500D01*
X5864405Y-10507976D01*
X6054881Y-10507976D02*
X6073928Y-10507976D01*
X6092976Y-10517500D01*
X6102500Y-10527024D01*
X6112024Y-10546071D01*
X6121548Y-10584167D01*
X6121548Y-10631786D01*
X6112024Y-10669881D01*
X6102500Y-10688929D01*
X6092976Y-10698452D01*
X6073928Y-10707976D01*
X6054881Y-10707976D01*
X6035833Y-10698452D01*
X6026309Y-10688929D01*
X6016786Y-10669881D01*
X6007262Y-10631786D01*
X6007262Y-10584167D01*
X6016786Y-10546071D01*
X6026309Y-10527024D01*
X6035833Y-10517500D01*
X6054881Y-10507976D01*
X6207262Y-10707976D02*
X6207262Y-10574643D01*
X6207262Y-10593690D02*
X6216786Y-10584167D01*
X6235833Y-10574643D01*
X6264405Y-10574643D01*
X6283452Y-10584167D01*
X6292976Y-10603214D01*
X6292976Y-10707976D01*
X6292976Y-10603214D02*
X6302500Y-10584167D01*
X6321548Y-10574643D01*
X6350119Y-10574643D01*
X6369167Y-10584167D01*
X6378690Y-10603214D01*
X6378690Y-10707976D01*
X6473928Y-10707976D02*
X6473928Y-10574643D01*
X6473928Y-10593690D02*
X6483452Y-10584167D01*
X6502500Y-10574643D01*
X6531071Y-10574643D01*
X6550119Y-10584167D01*
X6559643Y-10603214D01*
X6559643Y-10707976D01*
X6559643Y-10603214D02*
X6569167Y-10584167D01*
X6588214Y-10574643D01*
X6616786Y-10574643D01*
X6635833Y-10584167D01*
X6645357Y-10603214D01*
X6645357Y-10707976D01*
X7035833Y-10498452D02*
X6864405Y-10755595D01*
X7292976Y-10507976D02*
X7312024Y-10507976D01*
X7331071Y-10517500D01*
X7340595Y-10527024D01*
X7350119Y-10546071D01*
X7359643Y-10584167D01*
X7359643Y-10631786D01*
X7350119Y-10669881D01*
X7340595Y-10688929D01*
X7331071Y-10698452D01*
X7312024Y-10707976D01*
X7292976Y-10707976D01*
X7273928Y-10698452D01*
X7264405Y-10688929D01*
X7254881Y-10669881D01*
X7245357Y-10631786D01*
X7245357Y-10584167D01*
X7254881Y-10546071D01*
X7264405Y-10527024D01*
X7273928Y-10517500D01*
X7292976Y-10507976D01*
X7445357Y-10688929D02*
X7454881Y-10698452D01*
X7445357Y-10707976D01*
X7435833Y-10698452D01*
X7445357Y-10688929D01*
X7445357Y-10707976D01*
X7578690Y-10507976D02*
X7597738Y-10507976D01*
X7616786Y-10517500D01*
X7626309Y-10527024D01*
X7635833Y-10546071D01*
X7645357Y-10584167D01*
X7645357Y-10631786D01*
X7635833Y-10669881D01*
X7626309Y-10688929D01*
X7616786Y-10698452D01*
X7597738Y-10707976D01*
X7578690Y-10707976D01*
X7559643Y-10698452D01*
X7550119Y-10688929D01*
X7540595Y-10669881D01*
X7531071Y-10631786D01*
X7531071Y-10584167D01*
X7540595Y-10546071D01*
X7550119Y-10527024D01*
X7559643Y-10517500D01*
X7578690Y-10507976D01*
X7826309Y-10507976D02*
X7731071Y-10507976D01*
X7721548Y-10603214D01*
X7731071Y-10593690D01*
X7750119Y-10584167D01*
X7797738Y-10584167D01*
X7816786Y-10593690D01*
X7826309Y-10603214D01*
X7835833Y-10622262D01*
X7835833Y-10669881D01*
X7826309Y-10688929D01*
X7816786Y-10698452D01*
X7797738Y-10707976D01*
X7750119Y-10707976D01*
X7731071Y-10698452D01*
X7721548Y-10688929D01*
X7931071Y-10707976D02*
X7969167Y-10707976D01*
X7988214Y-10698452D01*
X7997738Y-10688929D01*
X8016786Y-10660357D01*
X8026309Y-10622262D01*
X8026309Y-10546071D01*
X8016786Y-10527024D01*
X8007262Y-10517500D01*
X7988214Y-10507976D01*
X7950119Y-10507976D01*
X7931071Y-10517500D01*
X7921548Y-10527024D01*
X7912024Y-10546071D01*
X7912024Y-10593690D01*
X7921548Y-10612738D01*
X7931071Y-10622262D01*
X7950119Y-10631786D01*
X7988214Y-10631786D01*
X8007262Y-10622262D01*
X8016786Y-10612738D01*
X8026309Y-10593690D01*
X8216786Y-10707976D02*
X8102500Y-10707976D01*
X8159643Y-10707976D02*
X8159643Y-10507976D01*
X8140595Y-10536548D01*
X8121548Y-10555595D01*
X8102500Y-10565119D01*
X8292976Y-10507976D02*
X8292976Y-10546071D01*
X8369167Y-10507976D02*
X8369167Y-10546071D01*
X8664405Y-10784167D02*
X8654881Y-10774643D01*
X8635833Y-10746071D01*
X8626310Y-10727024D01*
X8616786Y-10698452D01*
X8607262Y-10650833D01*
X8607262Y-10612738D01*
X8616786Y-10565119D01*
X8626310Y-10536548D01*
X8635833Y-10517500D01*
X8654881Y-10488929D01*
X8664405Y-10479405D01*
X8778690Y-10507976D02*
X8797738Y-10507976D01*
X8816786Y-10517500D01*
X8826310Y-10527024D01*
X8835833Y-10546071D01*
X8845357Y-10584167D01*
X8845357Y-10631786D01*
X8835833Y-10669881D01*
X8826310Y-10688929D01*
X8816786Y-10698452D01*
X8797738Y-10707976D01*
X8778690Y-10707976D01*
X8759643Y-10698452D01*
X8750119Y-10688929D01*
X8740595Y-10669881D01*
X8731071Y-10631786D01*
X8731071Y-10584167D01*
X8740595Y-10546071D01*
X8750119Y-10527024D01*
X8759643Y-10517500D01*
X8778690Y-10507976D01*
X9083452Y-10707976D02*
X9083452Y-10507976D01*
X9169167Y-10707976D02*
X9169167Y-10603214D01*
X9159643Y-10584167D01*
X9140595Y-10574643D01*
X9112024Y-10574643D01*
X9092976Y-10584167D01*
X9083452Y-10593690D01*
X9292976Y-10707976D02*
X9273929Y-10698452D01*
X9264405Y-10688929D01*
X9254881Y-10669881D01*
X9254881Y-10612738D01*
X9264405Y-10593690D01*
X9273929Y-10584167D01*
X9292976Y-10574643D01*
X9321548Y-10574643D01*
X9340595Y-10584167D01*
X9350119Y-10593690D01*
X9359643Y-10612738D01*
X9359643Y-10669881D01*
X9350119Y-10688929D01*
X9340595Y-10698452D01*
X9321548Y-10707976D01*
X9292976Y-10707976D01*
X9473929Y-10707976D02*
X9454881Y-10698452D01*
X9445357Y-10679405D01*
X9445357Y-10507976D01*
X9626310Y-10698452D02*
X9607262Y-10707976D01*
X9569167Y-10707976D01*
X9550119Y-10698452D01*
X9540595Y-10679405D01*
X9540595Y-10603214D01*
X9550119Y-10584167D01*
X9569167Y-10574643D01*
X9607262Y-10574643D01*
X9626310Y-10584167D01*
X9635833Y-10603214D01*
X9635833Y-10622262D01*
X9540595Y-10641310D01*
X9712024Y-10698452D02*
X9731071Y-10707976D01*
X9769167Y-10707976D01*
X9788214Y-10698452D01*
X9797738Y-10679405D01*
X9797738Y-10669881D01*
X9788214Y-10650833D01*
X9769167Y-10641310D01*
X9740595Y-10641310D01*
X9721548Y-10631786D01*
X9712024Y-10612738D01*
X9712024Y-10603214D01*
X9721548Y-10584167D01*
X9740595Y-10574643D01*
X9769167Y-10574643D01*
X9788214Y-10584167D01*
X10035833Y-10631786D02*
X10188214Y-10631786D01*
X10112024Y-10707976D02*
X10112024Y-10555595D01*
X10426310Y-10527024D02*
X10435833Y-10517500D01*
X10454881Y-10507976D01*
X10502500Y-10507976D01*
X10521548Y-10517500D01*
X10531071Y-10527024D01*
X10540595Y-10546071D01*
X10540595Y-10565119D01*
X10531071Y-10593690D01*
X10416786Y-10707976D01*
X10540595Y-10707976D01*
X10769167Y-10698452D02*
X10788214Y-10707976D01*
X10826310Y-10707976D01*
X10845357Y-10698452D01*
X10854881Y-10679405D01*
X10854881Y-10669881D01*
X10845357Y-10650833D01*
X10826310Y-10641310D01*
X10797738Y-10641310D01*
X10778690Y-10631786D01*
X10769167Y-10612738D01*
X10769167Y-10603214D01*
X10778690Y-10584167D01*
X10797738Y-10574643D01*
X10826310Y-10574643D01*
X10845357Y-10584167D01*
X10969167Y-10707976D02*
X10950119Y-10698452D01*
X10940595Y-10679405D01*
X10940595Y-10507976D01*
X11073929Y-10707976D02*
X11054881Y-10698452D01*
X11045357Y-10688929D01*
X11035833Y-10669881D01*
X11035833Y-10612738D01*
X11045357Y-10593690D01*
X11054881Y-10584167D01*
X11073929Y-10574643D01*
X11102500Y-10574643D01*
X11121548Y-10584167D01*
X11131071Y-10593690D01*
X11140595Y-10612738D01*
X11140595Y-10669881D01*
X11131071Y-10688929D01*
X11121548Y-10698452D01*
X11102500Y-10707976D01*
X11073929Y-10707976D01*
X11197738Y-10574643D02*
X11273928Y-10574643D01*
X11226309Y-10507976D02*
X11226309Y-10679405D01*
X11235833Y-10698452D01*
X11254881Y-10707976D01*
X11273928Y-10707976D01*
X11331071Y-10698452D02*
X11350119Y-10707976D01*
X11388214Y-10707976D01*
X11407262Y-10698452D01*
X11416786Y-10679405D01*
X11416786Y-10669881D01*
X11407262Y-10650833D01*
X11388214Y-10641310D01*
X11359643Y-10641310D01*
X11340595Y-10631786D01*
X11331071Y-10612738D01*
X11331071Y-10603214D01*
X11340595Y-10584167D01*
X11359643Y-10574643D01*
X11388214Y-10574643D01*
X11407262Y-10584167D01*
X11483452Y-10784167D02*
X11492976Y-10774643D01*
X11512024Y-10746071D01*
X11521548Y-10727024D01*
X11531071Y-10698452D01*
X11540595Y-10650833D01*
X11540595Y-10612738D01*
X11531071Y-10565119D01*
X11521548Y-10536548D01*
X11512024Y-10517500D01*
X11492976Y-10488929D01*
X11483452Y-10479405D01*
M02*
